<?xml version="1.0" encoding="utf-8"?>
<!-- Generator: Adobe Illustrator 24.1.1, SVG Export Plug-In . SVG Version: 6.00 Build 0)  -->
<svg version="1.1" id="レイヤー_1" xmlns="http://www.w3.org/2000/svg" xmlns:xlink="http://www.w3.org/1999/xlink" x="0px"
	 y="0px" viewBox="0 0 531 211.5" style="enable-background:new 0 0 531 211.5;" xml:space="preserve">
<style type="text/css">
	.st0{fill:#00A0E9;}
	.st1{fill:none;stroke:#231815;stroke-width:0.93;stroke-miterlimit:10;}
	.st2{fill:#FFFFFF;stroke:#231815;stroke-miterlimit:10;}
	.st3{fill:#FFFFFF;stroke:#00A0E9;stroke-width:4;stroke-miterlimit:10;}
	.st4{fill:#FFFFFF;}
	.st5{fill:#231815;}
	.st6{fill:#FFFFFF;stroke:#0081CC;stroke-width:4;stroke-miterlimit:10;}
	.st7{fill:#FFFFFF;stroke:#FFE100;stroke-width:4;stroke-miterlimit:10;}
</style>
<g id="レイヤー_2_1_">
	<g id="P01-02">
		<circle class="st0" cx="63" cy="81.9" r="42.5"/>
		<circle class="st0" cx="182.4" cy="81.9" r="42.5"/>
		<path class="st1" d="M21.5,20.3h202.3c11.6,0,21,9.4,21,21v80.5c0,11.6-9.4,21-21,21H21.5c-11.6,0-21-9.4-21-21V41.3
			C0.5,29.7,9.9,20.3,21.5,20.3z"/>
		<path class="st1" d="M307.2,20.3h202.3c11.6,0,21,9.4,21,21v80.5c0,11.6-9.4,21-21,21H307.2c-11.6,0-21-9.4-21-21V41.3
			C286.1,29.7,295.5,20.3,307.2,20.3z"/>
		<rect x="53.6" y="0.5" class="st2" width="125.5" height="23.9"/>
		<rect x="343.5" y="0.5" class="st2" width="125.5" height="23.9"/>
		<polygon class="st3" points="152.7,81.9 135.2,65.4 135.2,75.6 110.1,75.6 110.1,65.4 92.6,81.9 110.1,98.4 110.1,88.3 
			135.2,88.3 135.2,98.4 		"/>
		<path class="st4" d="M155.1,81.5c-0.8-0.9-1.7-1.6-2.7-2.2l1.2-1.6c1,0.5,1.9,1.2,2.7,2.1L155.1,81.5z M155.1,89.1
			c-0.1,0.2-0.2,0.4-0.3,0.7c0,0.1,0.1,0.3,0.1,0.4s0,0.2-0.2,0.2c-0.2,0-0.3-0.1-0.5-0.2l-1.8-1.3c1.2-1.8,2.2-3.8,2.9-5.9l1.8,1.4
			C156.6,85.7,155.5,88.4,155.1,89.1L155.1,89.1z M156.5,76.6c-0.7-0.9-1.5-1.7-2.4-2.4l1.4-1.6c0.9,0.7,1.8,1.5,2.5,2.4L156.5,76.6
			z M168.4,90.1c-0.5-1-0.8-1.6-1-2c-3.1,0.5-5,0.8-8.1,1.3c-0.4,0.1-0.5,0.1-0.5,0.2s-0.1,0.4-0.3,0.4s-0.2-0.3-0.3-0.4l-0.6-2.5
			c0.8,0,1.8-0.1,2.3-0.1c0.8-2,1.4-3.4,1.9-4.8h-4.1V80h4.9v-2.6h-3.9v-2.1h3.9v-2.9l2.1,0.2c0.4,0,0.7,0.1,0.7,0.3
			c0,0.1-0.1,0.2-0.2,0.3s-0.3,0.2-0.3,0.3v1.7h4.5v2.2H165V80h5.4v2.1h-5.9c-0.6,1.6-1.3,3.1-2,4.6c2.1-0.2,2.7-0.3,3.8-0.4
			c-0.5-0.7-1-1.3-1.5-1.9l1.8-1.2c1.6,1.7,2.9,3.6,4,5.6L168.4,90.1z"/>
		<path class="st4" d="M188.5,82c-1.5-0.1-3-0.7-4.2-1.6c-0.5,0.4-0.9,0.7-1.5,1l2.5,0.4c0.1,0,0.2,0.1,0.2,0.2
			c0,0.1-0.1,0.1-0.1,0.2c-0.3,0.2-0.4,0.3-0.4,0.4s0,0.5,0,0.6h3.8c0,2-0.2,4-0.7,5.9c-0.4,1-1.6,1.2-3.4,1.2l-0.8-2
			c0.2,0,1.4,0,1.6,0c0.4,0,0.6-0.1,0.7-0.4c0.3-0.9,0.4-1.8,0.4-2.7h-2c-0.4,1.1-0.9,2.2-1.7,3.1c-0.7,0.9-1.6,1.7-2.7,2.2
			l-1.8-1.5c1.8-0.7,3.1-2.1,3.8-3.8h-2.6v-2h3c0.1-0.6,0.1-1.1,0-1.7c-0.5,0.3-1.1,0.6-1.7,0.8l-1.5-1.6c-0.3,0.8-0.6,1.6-1,2.3
			l-1.5-0.8c0.4-0.6,0.7-1.3,0.9-2h-1.1v7.7c0,2.3-0.5,2.6-3.4,2.6l-0.8-2.2h1.4c0.4,0,0.7-0.1,0.7-0.6v-3.9c-0.5,1-1.1,2-1.7,2.9
			l-2-0.9c1.4-1.6,2.5-3.5,3.2-5.5h-2.6V78h3.6c-0.9-0.5-1.7-1-2.7-1.5l0.9-1.6c0.4,0.2,0.8,0.3,1.9,0.8c0.4-0.4,0.8-0.8,1.1-1.2
			H172v-1.9h7.2l0.7,0.7c-1.3,1.4-1.9,2.1-3.1,3.3c0.2,0.1,0.5,0.2,0.7,0.4l-0.5,0.9h2l1,1.1c-0.1,0.4-0.2,0.9-0.4,1.3
			c1.2-0.1,2.3-0.6,3.2-1.3c-0.6-0.8-1.1-1.6-1.4-2.6c-0.3,0.4-0.7,0.8-1.1,1.2l-1.7-1.1c1.5-1.2,2.6-2.7,3.2-4.5l2.1,0.5
			c0.1,0,0.2,0.1,0.2,0.2c0,0.1,0,0.2-0.1,0.2c-0.1,0.1-0.2,0.1-0.3,0.2c0,0-0.2,0.4-0.3,0.5h5.6v1.9h-1.3c-0.5,1.2-1.1,2.2-1.9,3.2
			c1.2,0.8,2.7,1.3,4.1,1.4L188.5,82z M183.3,75.7c0.2,0.7,0.5,1.4,1,2c0.5-0.6,0.9-1.3,1.2-2H183.3z"/>
		<path class="st4" d="M190.3,81.3v-2h2.2c-0.3-0.9-0.7-1.8-1.1-2.7l1.4-0.6h-1.9v-1.8h3.2v-2l2.7,0.2c0.2,0,0.3,0.1,0.3,0.2
			s0,0.2-0.1,0.2c-0.3,0.2-0.3,0.2-0.3,0.3v1.1h2.8V76h-2.1l1.6,1c0.2,0.1,0.2,0.2,0.2,0.3s-0.1,0.2-0.2,0.2
			c-0.3,0.1-0.3,0.1-0.4,0.3c-0.1,0.5-0.4,1-0.6,1.5h1.8v2L190.3,81.3z M196.7,90v-0.5h-3.4v0.7h-2v-7.7h7.6V90L196.7,90z M193.3,76
			c0.5,0.9,0.9,1.9,1.2,2.8l-1.1,0.5h2.4c0.5-1,0.9-2.2,1.2-3.3H193.3z M196.7,84.5h-3.4v2.8h3.4V84.5z M203.9,88.4l-1.4-2.1v3.9
			h-2.1V73.1h6.6l0.8,1.2l-2.5,5.3c1.5,1.2,2.4,3,2.5,4.9c0.1,2.1-1.5,3.9-3.6,4C204.1,88.4,204,88.4,203.9,88.4L203.9,88.4z
			 M203.2,79.7c0.4-0.9,1.1-2.9,1.6-4.7h-2.3v11c0.4,0,0.9,0.1,1.1,0.1c1.1,0.1,2-0.7,2.1-1.8c0,0,0-0.1,0-0.1
			C205.7,82.4,203.8,80.4,203.2,79.7L203.2,79.7z"/>
		<path class="st5" d="M100.8,10.5V9.4h5.7V8.8h-4.1V5.9h4.1V5l1.8,0.1c0.2,0,0.3,0,0.3,0.2s-0.1,0.2-0.1,0.2s-0.2,0.2-0.2,0.4h4.2
			v3h-4.2v0.6h5.7v1.1L100.8,10.5z M112.8,19.1c-1.7-0.2-3.3-0.9-4.8-1.8l0.8-0.7h-2.7l0.4,0.4c0,0,0.2,0.2,0.2,0.3
			c0,0,0,0.1-0.1,0.1c-0.1,0-0.3,0.1-0.4,0.1c-1.3,0.9-2.7,1.4-4.2,1.7l-1-1.5c1.1-0.2,2.2-0.5,3.2-1.1h-1.8V11h9.8v5.6h-2
			c1.1,0.5,2.4,0.9,3.7,0.9L112.8,19.1z M106.4,7H104v0.7h2.4L106.4,7z M110.6,12.1h-6.5v0.6h6.4L110.6,12.1z M110.6,13.4h-6.5V14
			h6.4L110.6,13.4z M110.6,14.8h-6.5v0.6h6.4L110.6,14.8z M110.7,7h-2.4v0.7h2.4V7z"/>
		<path class="st5" d="M124.2,15c-0.6-0.5-1.2-1-1.7-1.5v5.4h-1.6v-4.5c-0.4,0.4-0.9,0.8-1.3,1.1l-1.2-1.2c1.7-1.1,3.1-2.6,4.1-4.4
			H119V8.1h1.8V5.2l1.8,0.2c0.1,0,0.2,0.1,0.2,0.2s-0.1,0.1-0.1,0.2c-0.2,0.2-0.3,0.3-0.3,0.3v2h1.7l0.7,0.7c-0.4,1.1-1,2.1-1.7,3
			c0.6,0.7,1.2,1.3,2,1.8L124.2,15z M123.4,18.6v-1.8h3.6v-5.4h-2.3V9.8h2.3V5.2l1.9,0.2c0.1,0,0.2,0.1,0.2,0.2c0,0.1,0,0.1-0.1,0.2
			c-0.1,0.1-0.2,0.2-0.2,0.3v3.8h2.8v1.7h-2.8v5.4h3.2v1.7L123.4,18.6z"/>
		<path class="st5" d="M386.4,19v-0.5h-9.9v-1.7h9.9v-1.5h-8.5v-1.7h8.5v-1.3h-9.9v-1.6h4.9V5.1l1.9,0.1c0.2,0,0.4,0.1,0.4,0.3
			s-0.3,0.5-0.5,0.6v4.6h5V19H386.4z M378.7,10.3c-0.6-1.3-1.3-2.6-2.1-3.7l1.5-0.9c0.9,1.2,1.6,2.4,2.1,3.7L378.7,10.3z M388.1,6.7
			c-0.1,0-0.1,0.1-0.3,0.3c-0.5,1.2-1.1,2.3-1.9,3.3l-1.6-0.7c0.9-1.1,1.6-2.4,2-3.8l1.6,0.5c0.1,0,0.3,0.1,0.3,0.2
			S388.2,6.7,388.1,6.7L388.1,6.7z"/>
		<path class="st5" d="M403,14.6V17h-1.6v-0.4h-3.1v1.1c0,0.9-0.4,1.4-2.5,1.4l-0.7-1.7c0.4,0,0.8,0.1,1.1,0.1s0.5-0.1,0.5-0.4v-0.5
			h-4.7v-1.2h4.7v-0.7H391v-1.2h5.6v-0.6h-4.7v-1.3h4.7v-0.6h-3.8V8h3.8V7.4H391V6h5.6V5l1.8,0.2c0.1,0,0.2,0,0.2,0.2s0,0.1-0.2,0.2
			c-0.1,0-0.1,0.1-0.1,0.1V6h5.5v1.4h-5.5V8h3.7v2.9h-3.8v0.6h4.8v1.9h0.9v1.2L403,14.6z M396.5,9h-2.2v0.8h2.2V9z M400.5,9h-2.2
			v0.8h2.2V9z M401.5,12.7h-3.1v0.6h3.1V12.7z M401.5,14.6h-3.1v0.7h3.1V14.6z"/>
		<path class="st5" d="M419,12.6c-1.2-0.1-2.3-0.5-3.2-1.3c-0.3,0.3-0.7,0.5-1.1,0.7l1.9,0.3c0.1,0,0.2,0.1,0.2,0.1
			c0,0.1,0,0.1-0.1,0.1c-0.2,0.2-0.3,0.2-0.3,0.3s0,0.4,0,0.5h2.9c0,1.5-0.2,3-0.6,4.5c-0.3,0.8-1.2,0.9-2.6,0.9l-0.6-1.5h1.2
			c0.3,0,0.5-0.1,0.5-0.3c0.2-0.7,0.3-1.4,0.3-2.1H416c-0.3,0.9-0.7,1.7-1.3,2.4c-0.5,0.7-1.2,1.3-2,1.7l-1.3-1.1
			c1.3-0.5,2.4-1.6,2.9-2.9h-2v-1.6h2.3c0-0.4,0-0.9,0-1.3c-0.4,0.2-0.8,0.4-1.3,0.6l-1.1-1.2c-0.2,0.6-0.5,1.2-0.8,1.8l-1.1-0.6
			c0.3-0.5,0.5-1,0.7-1.5h-0.8v5.9c0,1.7-0.4,2-2.6,2l-0.6-1.6h1.1c0.3,0,0.5-0.1,0.5-0.5v-3c-0.4,0.8-0.8,1.5-1.3,2.2l-1.5-0.7
			c1.1-1.3,1.9-2.7,2.4-4.2h-2V9.6h2.7c-0.7-0.4-1.3-0.7-2.1-1.1l0.7-1.2c0.3,0.1,0.6,0.2,1.5,0.6c0.3-0.3,0.6-0.6,0.9-0.9h-3.3V5.5
			h5.5l0.5,0.6c-1,1.1-1.4,1.6-2.3,2.5c0.2,0.1,0.4,0.2,0.5,0.3l-0.4,0.7h1.5l0.7,0.8c-0.1,0.3-0.2,0.7-0.3,1c0.9-0.1,1.7-0.4,2.4-1
			c-0.5-0.6-0.8-1.2-1.1-1.9c-0.3,0.3-0.5,0.6-0.8,0.9l-1.3-0.8c1.1-0.9,2-2.1,2.4-3.4l1.6,0.4c0,0,0.1,0,0.1,0.1
			c0,0.1,0,0.1-0.1,0.2c-0.1,0-0.2,0.1-0.3,0.2c-0.1,0.1-0.1,0.2-0.2,0.4h4.3v1.5h-1c-0.4,0.9-0.9,1.7-1.5,2.4c0.9,0.6,2,0.9,3.1,1
			L419,12.6z M415,7.8c0.1,0.6,0.4,1.1,0.8,1.5c0.4-0.4,0.7-1,0.9-1.5H415z"/>
		<path class="st5" d="M424,13.3c-0.1,1.9-0.5,3.7-1.3,5.4l-1.8-0.3c1.3-2.2,1.5-5.6,1.5-7.3v-3h5.3v5.1L424,13.3z M434.4,7
			c-0.1,0-0.5-0.1-0.6-0.1s-0.8,0.2-1,0.2s-1.6,0.3-2.8,0.5c0,1,0,1.8,0,2h4.4v1.6h-1.7v7.6h-1.7v-7.6h-1c-0.1,2.5-0.3,5.1-3.1,7.7
			l-1.6-1.1c2-1.7,3-3.2,3-7.8c0-1.1-0.1-1.9-0.1-3h-6.6V5.6h6.6v0.5c0.2,0,0.4,0,0.7,0c1.5-0.1,3.1-0.5,4.5-1.1l1,1.7
			c0,0.1,0.1,0.1,0.1,0.2C434.5,7,434.5,7,434.4,7z M426.2,9.6h-2c0,1.1,0,1.3,0,2.1h2V9.6z"/>
		<path class="st4" d="M47.9,71.8v5.9c0,1.3-1.4,1.5-3.1,1.6l-1.1-2.4c0.5,0,0.9,0,1.5,0c0.4,0,0.5-0.1,0.5-0.6v-3.7
			c-0.2,0.1-1.4,0.5-1.5,0.5c-0.1,0.1-0.2,0.2-0.3,0.3c-0.3,0.4-0.3,0.5-0.4,0.5s-0.3-0.2-0.4-0.8l-0.3-2.2c0.4-0.1,2.4-0.6,2.8-0.7
			v-3.3h-2.6v-2.3h2.6v-3.4l1.8,0.1c0.2,0,0.7,0.1,0.7,0.3c0,0.1-0.1,0.3-0.2,0.4c-0.2,0.1-0.2,0.2-0.2,0.3v2.3H50v2.3h-2.1v2.7
			l2.1-0.7V71C49.5,71.2,48.6,71.6,47.9,71.8z M48.8,78.6v-2.2h11.7v2.2H48.8z M57.2,75v-0.5h-4.3V75h-2.2V61.5h8.7V75H57.2z
			 M57.2,63.7h-4.3v3.1h4.3V63.7z M57.2,69.1h-4.3v3.1h4.3V69.1z"/>
		<path class="st4" d="M75.2,79.3v-0.7h-13v-2.2h13v-2H64v-2.1h11.2v-1.8H62.3v-2.1h6.4v-7.3l2.4,0.2c0.3,0,0.5,0.1,0.5,0.4
			s-0.4,0.6-0.6,0.7v6h6.5v10.9H75.2z M65.1,68c-0.7-1.7-1.7-3.3-2.8-4.8l2-1.1c1.1,1.5,2,3.2,2.8,4.9L65.1,68z M77.4,63.3
			c-0.2,0.1-0.2,0.1-0.3,0.4c-0.7,1.5-1.5,3-2.4,4.3l-2.1-0.9c1.2-1.5,2.1-3.2,2.7-5l2.2,0.6c0.1,0,0.4,0.2,0.4,0.3
			S77.6,63.2,77.4,63.3L77.4,63.3z"/>
		<path class="st4" d="M43.1,92.3v-2h2.2c-0.3-0.9-0.7-1.8-1.2-2.7l1.4-0.6h-1.9v-1.8H47v-2l2.7,0.2c0.2,0,0.3,0.1,0.3,0.2
			s0,0.2-0.1,0.2c-0.3,0.2-0.3,0.2-0.3,0.3v1.1h2.8V87h-2.2l1.6,1c0.2,0.1,0.2,0.2,0.2,0.3s-0.1,0.2-0.2,0.2
			c-0.3,0.1-0.3,0.1-0.4,0.3c-0.1,0.5-0.4,1-0.6,1.5h1.8v2L43.1,92.3z M49.5,101v-0.5h-3.4v0.7h-2v-7.7h7.6v7.6L49.5,101z M46.1,87
			c0.5,0.9,0.9,1.9,1.2,2.8l-1.1,0.5h2.4c0.5-1,1-2.2,1.2-3.3H46.1z M49.5,95.5h-3.4v2.8h3.4V95.5z M56.7,99.4l-1.4-2.1v3.9h-2.1
			V84.1h6.6l0.8,1.2l-2.5,5.3c1.5,1.2,2.4,3,2.5,4.9c0.1,2.1-1.5,3.9-3.6,4C56.9,99.4,56.8,99.4,56.7,99.4L56.7,99.4z M56,90.7
			c0.4-0.9,1.1-2.9,1.6-4.7h-2.3v11c0.3,0,0.9,0.1,1.1,0.1c1.1,0.1,2-0.7,2.1-1.8c0,0,0-0.1,0-0.1C58.5,93.4,56.6,91.4,56,90.7z"/>
		<path class="st4" d="M72.5,93.3c-0.3,0.3-0.7,0.5-1.1,0.7h5.9v7.3h-2.3v-0.6h-7.6v0.6h-2.3v-4.5c-1.1,0.3-1.5,0.5-2.7,0.7l-1-2
			c2.5-0.2,5-1,7.2-2.1h-7.1v-1.8h7v-0.9h-5.5v-1.7h5.4v-0.8h-5.9v-4.4h15v4.4h-2.2L77,89c0.2,0.2,0.4,0.3,0.4,0.4s-0.2,0.2-0.4,0.2
			s-0.3,0-0.6,0.4s-1,1-1.6,1.6H79v1.8L72.5,93.3z M67.1,85.2H65v1.4h2.2L67.1,85.2z M75.2,95.7h-6.9l-0.9,0.4v0.4h7.7V95.7z
			 M75.2,98h-7.7v1h7.7V98z M71.4,85.2h-2.2v1.4h2.2V85.2z M71,88.2V89h2.2v1.3c0.7-0.6,1.3-1.3,1.7-2.1L71,88.2z M71,90.7v0.9h0.7
			c0.2-0.2,0.5-0.4,1.1-0.9H71z M75.7,85.2h-2.2v1.4h2.2V85.2z"/>
		<circle class="st0" cx="348.7" cy="81.9" r="42.5"/>
		<circle class="st0" cx="468" cy="81.9" r="42.5"/>
		<polygon class="st3" points="438.4,81.9 420.9,65.4 420.9,75.6 395.8,75.6 395.8,65.4 378.3,81.9 395.8,98.4 395.8,88.3 
			420.9,88.3 420.9,98.4 		"/>
		<path class="st4" d="M450.3,62.6l-0.7-2.2h-4.1l-0.7,2.2h-2l3.8-10.2h2.1l3.8,10.2H450.3z M447.7,54.9l-0.2-0.9l-0.2,0.9l-1.3,3.9
			h3L447.7,54.9z"/>
		<path class="st4" d="M452.5,62.6V52.3h1.8v10.2H452.5z"/>
		<path class="st4" d="M465.6,63.5c-1.9-0.4-3.6-1.4-4.8-3c-1.1,1.6-2.8,2.7-4.8,3L455,62c1.4-0.1,3.3-0.6,4.3-1.9H455v-1.5h5
			c0-0.2,0.1-0.5,0.1-0.8l1.4,0.1l-1-0.6c1.3-0.9,2.1-2.5,2-4.1H461v-1.4h5.3c0,1.5-0.1,3-0.3,4.5c-0.1,1.2-1,2.1-2.2,2
			c-0.1,0-0.1,0-0.2,0l-0.6-1.7c0.2,0.1,0.4,0.1,0.6,0.1c0.4,0,0.8-0.2,0.9-0.5c0.2-1,0.3-2,0.3-3h-1.1c0.1,1.8-0.6,3.6-1.9,4.8
			c0.1,0,0.1,0,0.1,0.1s0,0-0.1,0.1s-0.1,0.1-0.2,0.4h5v1.5h-4.1c0.4,0.5,1,1,1.6,1.2c0.8,0.4,1.7,0.6,2.6,0.7L465.6,63.5z
			 M460.7,56.8c-2,0.5-3.7,0.9-4.5,1.1c-0.1,0-0.2,0.1-0.3,0.2c-0.1,0.2-0.1,0.2-0.2,0.2s-0.2-0.1-0.3-0.4l-0.3-1.3
			c1-0.1,1.6-0.2,2.3-0.3v-1h-1.6V54h1.6v-0.8h-2.1v-1.4h2.1v-0.7h1.2c0.2,0,0.6,0,0.6,0.2s0,0.1-0.2,0.2s-0.1,0.1-0.1,0.3h1.8v1.3
			h-1.8V54h1.3v1.3h-1.3v0.7c0.8-0.1,1.2-0.2,1.8-0.3L460.7,56.8z"/>
		<path class="st4" d="M469,59.5c0,1-0.2,2-0.5,2.9l-1.1-0.3c0.3-1,0.5-2.1,0.6-3.2l1.1,0.2c0.1,0,0.3,0,0.3,0.1
			S469.1,59.4,469,59.5z M471.8,58.3c0-0.1-0.1-0.3-0.1-0.6c-0.5,0.1-0.7,0.1-0.9,0.2v5.4h-1.4v-5.2l-1.2,0.1
			c-0.1,0-0.2,0.1-0.3,0.1c-0.1,0.1-0.1,0.2-0.2,0.2s-0.1-0.1-0.1-0.1l-0.3-1.6c0.6,0,0.9,0,1.4,0c0.1-0.2,0.3-0.4,0.5-0.7
			c-0.5-0.6-1.2-1.2-1.9-1.7l0.8-1.2c0.2,0.1,0.3,0.2,0.5,0.4c0.5-0.7,0.9-1.5,1.2-2.4l1.2,0.7c0,0,0.1,0.1,0.1,0.1
			c0,0.1,0,0.1-0.1,0.1c-0.2,0.1-0.2,0.1-0.2,0.2c-0.4,0.7-0.9,1.4-1.4,2c0.2,0.2,0.3,0.4,0.5,0.7c0.5-0.7,1-1.5,1.5-2.3l1.2,0.8
			c0.1,0,0.1,0.1,0.1,0.2c0,0.1-0.1,0.2-0.1,0.2c-0.2,0-0.2,0-0.4,0.3c-0.7,0.9-1.4,1.8-2.1,2.6c0.4,0,0.7,0,1.3-0.1
			c-0.1-0.3-0.1-0.6-0.2-0.8l1.2-0.3c0.3,0.8,0.5,1.6,0.6,2.5L471.8,58.3z M471.9,61.6c-0.3-0.9-0.4-1.8-0.5-2.7l1.1-0.2
			c0.1,0.9,0.3,1.8,0.6,2.6L471.9,61.6z M478.1,61.9c-0.2,0.9-1.1,1.5-2,1.3h-0.6l-0.7-1.6c0.4,0,0.8,0.1,1.2,0.1c0.4,0,0.7-0.1,1-1
			c0.4-1.6,0.5-3.3,0.5-4.9v-1h-3c-0.3,0.5-0.6,1.1-1,1.5l-1-0.9c0.9-1.2,1.6-2.6,2-4.1l1.4,0.5c0.1,0,0.1,0.1,0.1,0.1
			c0,0.1,0,0.1-0.1,0.1c-0.2,0.1-0.2,0.1-0.3,0.3c-0.1,0.3-0.2,0.6-0.4,0.9h3.7v2.6C479,57.9,478.7,59.9,478.1,61.9L478.1,61.9z
			 M474.9,59.5c-0.3-0.9-0.6-1.9-1-2.8l1.2-0.5c0.4,0.9,0.8,1.9,1,2.8L474.9,59.5z"/>
		<path class="st4" d="M479.9,58.7v-0.9h5v-0.5h-4v-0.9h4v-0.5h-3.5V55h3.5v-0.6H480v-0.9h4.9V53h-3.4v-0.9h3.4v-0.9l1.4,0.1
			c0.1,0,0.4,0,0.4,0.2s-0.1,0.1-0.1,0.2s-0.1,0.1-0.1,0.2v0.4h3.4v1.4h1.5v0.9h-1.5v1.5h-3.4v0.5h3.9v0.9h-3.9v0.5h4.9v0.9
			L479.9,58.7z M488.3,63.2v-0.4H483v0.4h-1.5v-3.9h8.3v3.9H488.3z M488.3,60.2H483v0.5h5.3L488.3,60.2z M488.3,61.4H483V62h5.3
			L488.3,61.4z M488.4,53.1h-2v0.5h2V53.1z M488.4,54.4h-2V55h2V54.4z"/>
		<path class="st4" d="M445,74.7c-0.2-0.1-0.5-0.2-0.7-0.4v3.9h-1.5v-0.3h-5.3v0.4H436v-4c-0.3,0.1-0.5,0.3-0.7,0.4l-1.3-1.1
			c1.2-0.3,2.4-0.9,3.4-1.7h-3.1v-1.1h2.5c-0.2-0.3-0.4-0.6-0.6-0.8l0.6-0.3l-0.5-0.9c0.6,0,1.1,0.1,1.8,0.1c1.4,0.1,2.7-0.2,4-0.7
			H436v1.4h-1.5v-2.4h4.7v-1l1.4,0.1c0.3,0,0.5,0.1,0.5,0.2s-0.1,0.2-0.3,0.3v0.4h4.7v2.4h-1.5v-1.3h-1.5l0.7,0.7
			c0.1,0.1,0.3,0.4,0.3,0.5s-0.1,0.1-0.2,0.1h-0.4c-0.1,0-0.1,0-0.2,0l0.8,0.2c0.3,0.1,0.4,0.2,0.4,0.3s-0.1,0.2-0.2,0.2
			s-0.2,0.1-0.5,0.6h2.6v1.1h-3.2c1,0.8,2.2,1.3,3.4,1.5L445,74.7z M439.2,72c-0.6,0.5-1.2,1-1.8,1.5h1.8V72z M439.2,74.5h-1.8v0.7
			h1.8V74.5z M439.2,76.2h-1.8v0.7h1.8V76.2z M439.2,70c-0.5,0-1.1,0-1.5,0.1c0.1,0.2,0.3,0.3,0.4,0.5l-0.6,0.2h1.7V70z M442.7,74.5
			h-2v0.7h2V74.5z M442.7,76.2h-2v0.7h2V76.2z M441.9,70.6c0.2-0.3,0.3-0.6,0.4-0.9c-0.7,0.1-1.2,0.2-1.6,0.2v1h1.8L441.9,70.6z
			 M440.8,71.9v1.5h1.9C442,73,441.3,72.5,440.8,71.9L440.8,71.9z"/>
		<path class="st4" d="M457.5,72.5c-0.5-0.2-1-0.5-1.5-0.7v5.1h2.2v1.3h-11.5v-1.3h2.3v-5.1c-0.5,0.3-1,0.6-1.6,0.8l-0.9-1.1
			c1.6-0.5,2.9-1.4,3.9-2.7h-3.7v-1.2h4.8v-1.3l1.6,0.2c0.3,0,0.3,0.1,0.3,0.2s0,0.1-0.1,0.2s-0.1,0.1-0.1,0.1v0.6h5.1v1.2h-4.3
			c1.3,1.2,2.9,2.1,4.6,2.5L457.5,72.5z M453.2,69.6v1.6h-1.7v-1.6c-0.7,0.8-1.5,1.5-2.4,2h6.7C454.8,71,454,70.4,453.2,69.6z
			 M454.5,72.7h-4v0.7h4V72.7z M454.5,74.4h-4v0.7h4V74.4z M454.5,76.1h-4v0.7h4V76.1z"/>
		<path class="st4" d="M461.6,72.3c-0.8-0.6-1.7-1-2.6-1.3l0.8-1.4c1,0.3,1.9,0.8,2.7,1.4L461.6,72.3z M465.6,74.8
			c-1.4,1.2-2.9,2.2-4.6,3c-0.1,0-0.1,0.1-0.1,0.2c0,0.2-0.1,0.3-0.1,0.3s-0.3-0.3-0.3-0.4l-0.7-1.3c3.3-1.3,6.1-3.7,8-6.7l1.1,1.3
			C467.9,72.5,466.9,73.8,465.6,74.8L465.6,74.8z M463,69.1c-0.8-0.6-1.7-1.1-2.6-1.4l0.8-1.4c0.9,0.3,1.8,0.8,2.6,1.4L463,69.1z"/>
		<path class="st4" d="M478.1,77.2c-1-1.3-2.1-2.5-3.3-3.5c-1.2,1.5-2.8,2.8-4.6,3.6l-1.2-1.3c1.6-0.7,3.1-1.7,4.3-3
			c1-1.1,1.8-2.4,2.3-3.8h-5.1v-1.7h5.8c0.3,0,0.5-0.1,0.7-0.3l1,1.2c-0.3,0.2-0.6,0.5-0.7,0.8c-0.4,1.1-0.9,2.1-1.5,3.1
			c1.3,1,2.5,2.2,3.5,3.5L478.1,77.2z"/>
		<path class="st4" d="M485.9,71.9c0,1.3-0.3,2.5-0.8,3.6c-0.7,1.2-1.7,2.1-3,2.6l-1.3-1.2c2.7-1,3.5-2.3,3.6-5.1h-4.5v-1.4h10.1
			v1.4H485.9z M481.6,68.4v-1.5h6.5v1.5L481.6,68.4z"/>
		<path class="st4" d="M499.3,77.3c-0.1-0.5-0.3-1.1-0.6-1.6c-1.3,0.2-7.7,1.3-7.8,1.4c-0.1,0.1-0.1,0.1-0.2,0.2c0,0-0.1,0-0.1,0
			c-0.1,0-0.1-0.1-0.2-0.4l-0.3-1.6c0.3,0,0.7,0,1.5-0.1c1-2.7,1.9-5.5,2.6-8.3l1.6,0.4c0.1,0,0.4,0.1,0.4,0.3s0,0.1-0.3,0.2
			s-0.2,0.1-0.3,0.5c-0.7,2.2-1.8,5.2-2.4,6.7c1.9-0.2,3.3-0.4,4.8-0.7c-0.4-0.8-1-1.5-1.5-2.2l1.4-0.7c1.2,1.5,2.2,3.1,2.9,4.9
			L499.3,77.3z"/>
		<path class="st4" d="M442.9,95.2v-7.3h0.9v6.5h3.4v0.8H442.9z"/>
		<path class="st4" d="M448.6,92.7c0,1.6,0.9,2,1.6,2c0.7,0,1.2-0.5,1.4-1.1h0.9c-0.2,1.1-1.2,1.8-2.3,1.7c-2.1,0-2.5-1.7-2.5-2.8
			c0-2.2,1.4-2.9,2.5-2.9c0.9,0,1.7,0.5,2.1,1.4c0.2,0.5,0.3,1.1,0.4,1.7H448.6z M450.2,90.3c-1,0-1.4,0.8-1.6,1.7h3.2
			C451.7,91.7,451.4,90.3,450.2,90.3z"/>
		<path class="st4" d="M457.6,90.4c-0.1,0-0.2,0-0.4,0.1c0.1,0.2,0.2,0.5,0.2,0.8c0,0.9-0.7,1.6-2,1.6c-0.4,0-0.7-0.1-1.1-0.2
			c-0.3,0.1-0.4,0.3-0.4,0.4c0,0.3,0.6,0.4,2.1,0.5c0.5,0,1,0.1,1.4,0.4c0.3,0.3,0.5,0.7,0.5,1.1c0,1.6-1.7,1.7-2.4,1.7
			c-0.9,0-2.4-0.2-2.4-1.6c0-0.5,0.3-1,0.7-1.3c-0.3-0.1-0.5-0.4-0.5-0.7c0-0.4,0.4-0.7,0.7-0.8c-0.3-0.3-0.5-0.7-0.5-1.1
			c0-0.6,0.3-1.6,2-1.6c0.5,0,1,0.1,1.4,0.4c0.2-0.2,0.5-0.4,0.8-0.4c0.1,0,0.3,0,0.4,0.1v0.9C457.9,90.5,457.7,90.5,457.6,90.4z
			 M456.3,94.3c-0.3,0-1.5-0.2-1.8-0.2c-0.4,0.1-0.7,0.5-0.7,1c0,1,1.2,1.1,1.6,1.1c0.7,0,1.6-0.1,1.6-1c0.1-0.4-0.1-0.8-0.5-0.8
			C456.5,94.3,456.4,94.3,456.3,94.3z M455.4,90.3c-0.7,0-1.2,0.3-1.2,1s0.4,1,1.2,1s1.2-0.4,1.2-1S456.1,90.3,455.4,90.3
			L455.4,90.3z"/>
		<path class="st4" d="M462.4,95.2c-0.1-0.2-0.1-0.5-0.1-0.7c-0.5,0.6-1.2,0.9-1.9,0.9c-0.6,0.1-1.3-0.2-1.7-0.7
			c-0.2-0.3-0.3-0.6-0.3-1c0-1.2,1-1.5,2.3-1.7s1.6-0.2,1.6-0.8c0-1-1-1-1.3-1c-1.4,0-1.5,0.7-1.5,1.1h-0.8c0-0.5,0.3-1,0.7-1.3
			c0.5-0.3,1-0.4,1.6-0.4c0.9,0,2.1,0.3,2.1,1.6v3c0,0.3,0.1,0.6,0.2,0.8v0.1L462.4,95.2z M462.2,92.3c-0.3,0.2-0.4,0.2-1.6,0.4
			c-0.9,0.1-1.5,0.3-1.5,1.1c0,0.6,0.4,1,1.3,1c0.9,0.1,1.6-0.5,1.8-1.4V92.3z"/>
		<path class="st4" d="M464.3,95.2v-7.3h0.8v7.3H464.3z"/>
		<path class="st4" d="M468.4,95.4c-0.9,0-1.8-0.4-2.3-1.1c-0.3-0.4-0.4-0.9-0.4-1.4h0.9c0,0.5,0.2,0.9,0.5,1.3
			c0.4,0.3,0.9,0.4,1.4,0.4c0.8,0.1,1.6-0.5,1.7-1.3c0,0,0,0,0,0c0-0.6-0.3-0.8-1.9-1.4c-1.4-0.5-2.4-0.9-2.4-2.2s1.1-2,2.6-2
			c0.8,0,1.6,0.3,2.1,1c0.2,0.4,0.3,0.8,0.4,1.3h-0.9c0-0.5-0.1-1.5-1.6-1.5c-1.1,0-1.6,0.5-1.6,1.2s0.3,0.8,2.1,1.5
			c1.5,0.6,2.3,1,2.3,2.1C471.1,94.6,469.9,95.4,468.4,95.4z"/>
		<path class="st4" d="M475.8,95.2v-3.5c0-0.7-0.5-1.3-1.2-1.3c0,0-0.1,0-0.1,0c-0.8,0-1.5,0.6-1.5,1.4v3.4h-0.8v-7.3h0.8v2.6
			c0.4-0.5,1.1-0.8,1.7-0.8c1-0.1,1.9,0.7,2,1.8c0,0.1,0,0.2,0,0.2v3.5L475.8,95.2z"/>
		<path class="st4" d="M477.8,88.8v-1h0.9v1H477.8z M477.9,95.2v-5.3h0.8v5.3H477.9z"/>
		<path class="st4" d="M481.4,90.4v4.8h-0.8v-4.8h-0.9v-0.6h0.9v-0.7c0-0.9,0.3-1.5,1.3-1.5h0.6v0.6h-0.4c-0.4,0-0.6,0.2-0.6,0.7
			v0.9h1v0.6H481.4z"/>
		<path class="st4" d="M484.4,90.4v3.7c0,0.6,0.3,0.6,0.7,0.6h0.2v0.6c-0.2,0-0.4,0.1-0.7,0.1c-0.6,0-1-0.4-1.1-0.9c0,0,0-0.1,0-0.1
			v-3.9h-0.9v-0.6h0.9v-1.4h0.8v1.4h1v0.6H484.4z"/>
		<path class="st4" d="M486.6,92.7c0,1.6,0.9,2,1.6,2c0.7,0,1.3-0.5,1.4-1.1h0.9c-0.2,1.1-1.2,1.8-2.3,1.7c-2.1,0-2.5-1.7-2.5-2.8
			c0-2.2,1.4-2.9,2.4-2.9c0.9,0,1.7,0.5,2.1,1.4c0.2,0.5,0.4,1.1,0.4,1.7H486.6z M488.2,90.3c-1,0-1.4,0.8-1.6,1.7h3.2
			C489.7,91.7,489.5,90.3,488.2,90.3z"/>
		<path class="st4" d="M492.6,91c-0.3,0.4-0.4,0.8-0.5,1.2v2.9h-0.8v-5.3h0.8v0.9c0.2-0.7,0.8-1.1,1.5-1.1v0.9
			C493.3,90.5,492.9,90.7,492.6,91z"/>
		<path class="st4" d="M457,107.2l-0.7-2h-2.9l-0.7,2h-0.9l2.5-7.3h1l2.5,7.3H457z M454.9,100.8l-1.2,3.7h2.5L454.9,100.8z"/>
		<path class="st4" d="M459,107.2v-7.3h0.9v7.3H459z"/>
		<path class="st4" d="M467.3,107.4c-2,0-3.1-1.7-3.1-3.9s1-3.8,3.2-3.8c0.9,0,1.8,0.4,2.4,1.1c0.2,0.4,0.4,0.8,0.5,1.3h-0.9
			c-0.1-1-1-1.7-2-1.6c-2.1,0-2.3,2.4-2.3,3.1c0,1.4,0.5,3.1,2.2,3.1s2-1.6,2-2h0.9C470.2,106.2,468.9,107.4,467.3,107.4z"/>
		<path class="st4" d="M474.5,107.4c-1.8,0-3-1.5-3-3.8s1.2-3.8,3-3.8s3,1.5,3,3.8S476.3,107.4,474.5,107.4z M474.5,100.4
			c-1.3,0-2.1,1.3-2.1,3.1s0.8,3.1,2.1,3.1s2.1-1.3,2.1-3.1S475.9,100.4,474.5,100.4z"/>
		<path class="st4" d="M483.8,107.2l-3.9-6v6H479v-7.3h0.9l3.9,6v-6h0.9v7.3H483.8z"/>
		<path class="st4" d="M328.6,77.7l0.8,0.1c0.1,0,0.2,0,0.2,0.1s0,0.1-0.3,0.2v5.5c1.1-0.3,2.1-0.8,3-1.5c0.8-0.6,1.6-1.3,2.2-2.1
			l0.3,0.8c-0.7,0.8-1.4,1.4-2.3,2c-1.1,0.8-2.3,1.4-3.6,1.8l-0.5-0.4L328.6,77.7z"/>
		<path class="st4" d="M336.9,82.8c0,1.2,0.4,1.3,1.6,1.3c1.2,0,2.3-0.1,3.5-0.4v0.9c-1.3,0.2-2.6,0.2-3.8,0.2c-1.7,0-2-0.5-2-1.9
			v-5.6l0.8,0.2c0.1,0,0.3,0.1,0.3,0.2s0,0.1-0.3,0.2v2.6c1.5-0.2,3-0.7,4.4-1.4l0.5,0.7c0,0,0.1,0.1,0.1,0.2c0,0.1,0,0.1-0.1,0.1
			l-0.2-0.1c-1.5,0.6-3,1-4.6,1.3L336.9,82.8z M341.4,78.4c-0.3-0.3-0.6-0.6-0.9-0.9l0.4-0.4c0.3,0.3,0.6,0.6,0.9,0.9L341.4,78.4z
			 M342.6,77.8c-0.3-0.3-0.6-0.6-0.9-0.9l0.4-0.4c0.3,0.3,0.6,0.5,0.9,0.9L342.6,77.8z"/>
		<path class="st4" d="M349.9,84.3v0.6h-6.4v-0.6h3.7l0.5-3.1h-2.9v-0.6h3.6l-0.5,3.7H349.9z"/>
		<path class="st4" d="M351,81.6v-0.7h7v0.7H351z"/>
		<path class="st4" d="M363.7,84.2c0.5-0.2,1-0.4,1.5-0.8c0.7-0.6,1.1-1.5,1.1-2.5c0-1.1-0.6-2.1-1.5-2.6c-0.4-0.2-0.9-0.3-1.3-0.3
			c-0.1,1.5-0.5,3-1.1,4.4c-0.4,0.9-0.9,1.8-1.5,1.8c-0.8,0-1.6-1.3-1.6-2.7c0-2.2,1.7-4,3.9-4.1c0,0,0.1,0,0.1,0
			c1.9-0.1,3.6,1.4,3.7,3.3c0,0.1,0,0.2,0,0.2c0,1.8-1.2,3.3-2.9,3.9L363.7,84.2z M360.6,79.5c-0.4,0.6-0.7,1.3-0.7,2
			c0,1.1,0.6,1.9,1,1.9c0.2,0,0.4,0,1-1.6c0.5-1.2,0.7-2.4,0.8-3.6C361.9,78.3,361.1,78.7,360.6,79.5z"/>
		<path class="st4" d="M328.7,97.3v-0.5h-2.2v0.5h-0.7v-4h3.5v4H328.7z M328.7,96.2V94h-2.2v2.2L328.7,96.2z M327.4,92.2v-3.3h4.8
			v3.3L327.4,92.2z M331.5,91.5v-1.9h-3.4v1.9L331.5,91.5z M333.1,97.3v-0.5H331v0.5h-0.7v-4h3.6v4H333.1z M333.1,96.2V94H331v2.2
			L333.1,96.2z"/>
		<path class="st4" d="M336.5,90.7c-0.1,0.7-0.4,1.4-0.9,1.9l-0.6-0.4c0.7-0.7,1-1.7,0.9-2.6c0-0.3,0-0.5,0-0.8c1,0,1.9-0.1,2.9-0.3
			l0.3,0.6c0,0.1,0.1,0.1,0.1,0.2c0,0.1-0.1,0.1-0.1,0.1c-0.1,0-0.2-0.1-0.3-0.1c-0.7,0.1-1.4,0.2-2.2,0.2c0,0.2,0,0.5,0,0.7h2.9
			v0.6h-1.2v1.1h-0.7v-1.1H336.5z M343.1,97.5c-1-0.2-1.9-0.5-2.7-1l0.3-0.5H338l0.4,0.5c0.1,0.1,0.1,0.1,0.1,0.2s-0.1,0.1-0.1,0.1
			c-0.1,0-0.2,0-0.3-0.1c-0.8,0.4-1.6,0.7-2.4,0.8l-0.3-0.7c0.9,0,1.7-0.3,2.5-0.8h-1.3v-4h3l-0.5-0.3c0.6-0.5,0.8-1.2,0.8-2
			c0-0.3,0-0.5-0.1-0.8h0.5c0.9,0,1.8-0.1,2.7-0.3l0.4,0.6c0,0.1,0.1,0.1,0.1,0.2c0,0,0,0.1-0.1,0.1c-0.1,0-0.2-0.1-0.3-0.2
			c-0.8,0.2-1.7,0.2-2.5,0.2c0,0.4,0,0.5,0,0.6h3.2v0.6h-1.4v1.1h-0.7v-1.2h-1.2c-0.1,0.5-0.3,0.9-0.6,1.3h2.7v4H341
			c0.8,0.4,1.6,0.7,2.5,0.8L343.1,97.5z M341.7,93.1v-0.6h-4.5v0.6H341.7z M341.7,94.2v-0.6h-4.5v0.6H341.7z M341.7,95.3v-0.6h-4.5
			v0.6H341.7z"/>
		<path class="st4" d="M346.9,96.5v-0.6h-0.8v1.2h-0.6v-3.9c-0.1,0.3-0.3,0.6-0.5,0.8l-0.6-0.4c0.8-1.1,1.3-2.4,1.4-3.8h-1v-0.7h2.7
			v0.7h-1c-0.2,0.8-0.4,1.6-0.6,2.3h1.7v4.3H346.9z M346.9,92.8h-0.8v2.6h0.8V92.8z M349.5,97v0.5h-0.7V93c-0.2,0.3-0.4,0.4-0.6,0.7
			l-0.5-0.5c0.9-0.9,1.6-1.9,2-3.1h-1.1v1.3h-0.7v-1.9h2c0.1-0.4,0.2-0.6,0.3-1.1l0.7,0.3c0,0,0.2,0.1,0.2,0.2s0,0.1-0.3,0.2
			c0,0.2-0.1,0.3-0.1,0.4h2.6v1.8h-0.7v-1.2h-2.1c-0.2,0.6-0.5,1.2-0.8,1.8h1c0.3-0.5,0.5-0.9,0.7-1.4l0.6,0.4
			c0.1,0,0.1,0.1,0.1,0.1s0,0.1-0.3,0.1c-0.1,0.3-0.3,0.5-0.5,0.8h1.8v0.7h-1.7v0.9h1.5V94h-1.5v0.9h1.5v0.6h-1.5v1h1.9V97H349.5z
			 M350.7,92.6h-1.2v0.9h1.2V92.6z M350.7,94h-1.2v0.9h1.2V94z M350.7,95.4h-1.2v1h1.2V95.4z"/>
		<path class="st4" d="M356.8,89.1c-0.2,0.4-0.4,0.9-0.7,1.5c0.1,0,0.2,0.1,0.2,0.2s-0.1,0.2-0.2,0.2v6.5h-0.7V92
			c-0.3,0.4-0.6,0.9-0.9,1.3l-0.6-0.4c1.1-1.3,1.9-2.8,2.5-4.4l0.7,0.4c0,0,0.1,0.1,0.1,0.1S357,89.1,356.8,89.1z M362.3,96.7
			c-0.9-0.7-1.6-1.5-2.2-2.4v3.2h-0.7v-3.3c-0.6,1.1-1.5,2-2.4,2.8l-0.5-0.5c1-0.7,1.9-1.7,2.5-2.7h-2.3v-0.6h2.7v-1.2h-1.8v-3h4.2
			v3h-1.8v1.2h2.8v0.6h-2.4c0.6,0.9,1.5,1.7,2.4,2.3L362.3,96.7z M361.2,89.5h-2.9v1.8h2.9V89.5z"/>
		<path class="st4" d="M366.1,88.9c0,0.3,0.1,1.3,0.1,1.6c0,0.5,0.2,0.9,0.4,1.3c0.1,0.1,0.2,0.2,0.4,0.2l2.6-1.2l0.1,0.8
			c-1.2,0.4-2.4,0.9-3.5,1.5c-0.5,0.3-1.4,0.8-1.4,1.8c0,1.4,1.1,1.4,1.6,1.4c0.7,0,1.5-0.1,2.2-0.2c0.4,0,0.8-0.1,1.2-0.2v0.9
			c-1.1,0.1-2.1,0.2-3.2,0.2c-1.2,0-1.6-0.2-2-0.6c-0.4-0.4-0.6-0.9-0.6-1.4c0-0.8,0.4-1.5,1-2c0.3-0.3,0.7-0.5,1.1-0.7
			c-0.6-0.7-0.9-1.7-0.9-2.6c0-0.2,0-0.4-0.1-0.5c0-0.1,0-0.2,0-0.3H366.1z"/>
		<path class="st4" d="M327.4,103.1c0.1-0.7,0.1-1.5,0.1-2.2l0.9,0.1c0.1,0,0.1,0,0.1,0.1s0,0.1-0.3,0.2c0,0.6,0,1.2-0.1,1.7h2.9
			c0,1.2-0.2,2.4-0.4,3.5c-0.1,0.7-0.4,1.3-0.8,1.8c-0.3,0.3-0.7,0.3-1.5,0.4l-0.3-0.9c0.2,0,0.4,0,0.6,0c0.5,0,0.9,0,1.2-1.4
			c0.2-0.9,0.3-1.8,0.4-2.7H328c-0.2,1.1-0.6,2.1-1.1,3c-0.5,0.9-1.2,1.6-2.1,2.1l-0.6-0.6c0.8-0.3,1.4-0.9,1.8-1.6
			c0.5-0.9,0.9-1.8,1.1-2.8h-2.7v-0.7L327.4,103.1z"/>
		<path class="st4" d="M338.5,102.2c-0.4,0.3-0.5,0.3-0.6,0.5c-0.4,0.8-0.8,1.7-1.3,2.4c1,0.8,1.9,1.8,2.6,2.9l-0.7,0.6
			c-0.3-0.6-0.7-1.2-1.2-1.7c-0.4-0.4-0.8-0.8-1.2-1.1c-0.9,1.1-2.1,2-3.5,2.6l-0.6-0.7c1.2-0.4,2.2-1,3.1-1.9c0.9-0.9,1.6-2,2-3.2
			h-4v-0.7h4.3c0.2,0,0.3-0.1,0.5-0.2L338.5,102.2z"/>
		<path class="st4" d="M346.6,103.1c-0.1,0.1-0.2,0.2-0.3,0.3c-0.3,0.9-0.7,1.7-1.3,2.6c0.3,0.2,0.7,0.5,1,0.8l-0.5,0.6
			c-0.3-0.3-0.6-0.6-0.9-0.8c-0.4,0.6-1,1.1-1.5,1.5c-0.6,0.5-1.3,0.8-2.1,1l-0.5-0.7c0.7-0.2,1.3-0.4,1.9-0.8
			c0.6-0.4,1.1-0.9,1.6-1.5c-0.5-0.4-1.1-0.7-1.7-0.9l0.5-0.6c0.6,0.3,1.1,0.6,1.6,0.9c0.5-0.7,0.8-1.5,1.1-2.3h-2.8
			c-0.5,0.8-1.2,1.5-1.9,2.1l-0.7-0.5c0.8-0.5,1.5-1.2,2-2c0.4-0.6,0.7-1.2,1-1.8l0.7,0.3c0.1,0,0.2,0.1,0.2,0.2s-0.2,0.2-0.3,0.2
			c-0.1,0.3-0.3,0.6-0.5,0.9h2.4c0.2,0,0.4,0,0.6-0.1L346.6,103.1z"/>
		<path class="st4" d="M350.1,104.8c0.4,0.3,0.8,0.6,1.2,1c0.9-0.8,1.6-1.7,2.3-2.6h-6v-0.7h6.2c0.2,0,0.4-0.1,0.5-0.2l0.5,0.7
			l-0.4,0.4c-0.9,1.1-1.8,2.1-2.8,3c0.4,0.5,0.7,0.8,1,1.3l-0.7,0.5c-0.3-0.6-0.7-1.2-1.2-1.8c-0.4-0.4-0.8-0.8-1.3-1.1L350.1,104.8
			z"/>
		<path class="st4" d="M359.1,109v-4.9c-0.8,0.6-1.7,1.2-2.6,1.6l-0.7-0.6c1.2-0.4,2.2-0.9,3.1-1.7c0.9-0.7,1.8-1.5,2.5-2.4l0.6,0.6
			c0.1,0,0.1,0.1,0.1,0.2c0,0,0,0.1-0.1,0.1h-0.2c-0.6,0.6-1.3,1.2-1.9,1.8v5.4H359.1z"/>
		<path class="st4" d="M369.3,102.3c-0.2,0.1-0.4,0.3-0.5,0.4c-0.3,0.9-0.8,1.7-1.3,2.5c1,0.8,1.8,1.7,2.5,2.8l-0.6,0.6
			c-0.6-1.1-1.4-2-2.4-2.8c-0.9,1.1-2.1,2.1-3.5,2.7l-0.5-0.7c1.2-0.4,2.2-1.1,3-2c0.9-0.9,1.6-2.1,1.9-3.3h-4v-0.7h4.3
			c0.2,0,0.3-0.1,0.4-0.2L369.3,102.3z M370,101.7c0.3,0.3,0.6,0.6,0.8,0.9l-0.4,0.4c-0.2-0.4-0.5-0.7-0.9-1L370,101.7z
			 M370.6,100.5c0.3,0.3,0.6,0.6,0.9,0.9l-0.4,0.4c-0.2-0.4-0.5-0.7-0.9-1L370.6,100.5z"/>
		<path class="st4" d="M318.7,63.8c-0.5-0.6-1.1-1.1-1.8-1.5l0.8-1.1c0.7,0.4,1.3,0.8,1.8,1.4L318.7,63.8z M318.7,68.9
			c-0.1,0.1-0.1,0.3-0.2,0.4c0,0,0,0.2,0,0.3s0,0.2-0.1,0.2s-0.2-0.1-0.3-0.2l-1.2-0.9c0.8-1.2,1.5-2.5,1.9-3.9l1.2,0.9
			C319.7,66.6,318.9,68.4,318.7,68.9L318.7,68.9z M319.6,60.5c-0.5-0.6-1-1.1-1.6-1.6l0.9-1.1c0.6,0.5,1.2,1,1.7,1.6L319.6,60.5z
			 M327.5,69.5c-0.3-0.7-0.5-1.1-0.7-1.4c-2.1,0.4-3.3,0.6-5.4,0.8c-0.3,0-0.3,0-0.3,0.1s-0.1,0.2-0.2,0.2s-0.2-0.2-0.2-0.3
			l-0.4-1.6c0.5,0,1.2,0,1.6-0.1c0.5-1.3,0.9-2.3,1.3-3.2h-2.8v-1.4h3.3v-1.7h-2.6v-1.4h2.6v-1.9l1.4,0.1c0.3,0,0.5,0,0.5,0.2
			s-0.1,0.1-0.2,0.2s-0.2,0.2-0.2,0.2v1.2h3v1.4h-3v1.7h3.6v1.4h-4c-0.4,1-0.8,2.1-1.3,3.1c1.4-0.1,1.8-0.2,2.5-0.3
			c-0.3-0.4-0.6-0.9-1-1.3l1.2-0.8c1.1,1.1,2,2.4,2.7,3.8L327.5,69.5z"/>
		<path class="st4" d="M340.4,61.8v1.9h-2.9v0.7h3v1.3h-3v0.8h3.7v1.4h-3.7v1.8H336v-1.9h-3.2v-1.4h3.2v-0.8h-2.6v-1.3h2.6v-0.7
			h-2.6v-1.2h2.6v-0.7h-3v-0.7c0,0-0.1,0-0.2,0.1c-0.2,0.3-0.4,0.8-0.6,1.1c0.1,0,0.2,0.1,0.2,0.2s0,0.1-0.1,0.2
			c-0.1,0.1-0.1,0.2-0.1,0.3v6.7h-1.4v-5.1c-0.1,0.2-0.2,0.3-0.4,0.5l-1.2-0.9c1.1-1.3,1.9-2.7,2.6-4.3l1.3,0.8v-0.1h3v-0.7h-2.6
			v-1.3h2.6v-1l1.5,0.1c0.1,0,0.3,0.1,0.3,0.2s0,0.1-0.1,0.1c-0.2,0.2-0.2,0.2-0.2,0.3v0.3h2.9v2h0.9v1.2L340.4,61.8z M332.4,58.6
			c-0.2,0.3-0.3,0.4-0.3,0.5c-0.5,0.7-1.1,1.4-1.8,1.9l-1-1c0.9-0.7,1.7-1.5,2.3-2.5l1.1,0.7c0,0,0.2,0.1,0.2,0.2
			S332.6,58.6,332.4,58.6L332.4,58.6z M338.9,59.9h-1.4v0.7h1.4L338.9,59.9z M338.9,61.8h-1.4v0.7h1.4L338.9,61.8z"/>
		<path class="st4" d="M351.2,66.7v1.8c0,0.8-0.5,1-2.2,1.2l-0.6-1.6h1c0.3,0,0.4-0.1,0.4-0.4v-1h-3.8c0.5,0.4,1,0.9,1.4,1.5
			l-1.3,1.1c-0.4-0.6-0.9-1.2-1.5-1.7l0.9-0.9h-3.2v-1.3h7.5v-0.7h-6.2v-4.5h3.6v-0.7h-4.8v-1.2h4.8v-0.8l1.2,0
			c0.7,0,0.7,0.1,0.7,0.2c0,0.1-0.1,0.2-0.1,0.2c-0.1,0.1-0.1,0.2-0.1,0.4h4.9v1.2h-4.9v0.7h3.8v4.5h-1.3v0.7h2.5v1.3H351.2z
			 M347.1,61.3h-2V62h2V61.3z M347.1,63h-2v0.7h2V63z M350.9,61.3h-2.2V62h2.2V61.3z M350.9,63h-2.2v0.7h2.2V63z"/>
		<path class="st4" d="M356.3,63v6.6h-1.6V58h5.2v5H356.3z M358.5,59.3h-2.1V60h2.1V59.3z M358.5,61h-2.1v0.8h2.1V61z M364.3,69.6
			h-0.6l-0.9-1.9c0.4,0.1,0.8,0.2,1.3,0.2c0.3,0,0.4-0.2,0.4-0.4V63h-3.6v-5h5.2v10.3C365.9,69.2,365.5,69.6,364.3,69.6z
			 M364.3,59.2h-2.1v0.7h2.1V59.2z M364.3,61h-2.1v0.8h2.1V61z"/>
		<path class="st4" d="M377.4,69.7c-0.7,0-1.2-1.2-1.4-1.6c-0.6,0.7-1.3,1.3-2.1,1.8l-0.8-1c0.3-0.2,0.6-0.4,0.9-0.6h-1.8v1.1H371
			V64h3.5v3.9c0.4-0.4,0.7-0.8,1-1.2c-0.3-1-0.4-2.1-0.5-3.2h-4.6v6.2h-1.1v-2.6l-1,0.3c-0.1,0-0.8,0.2-0.8,0.3s-0.2,0.2-0.3,0.2
			s-0.1,0-0.1-0.3l-0.2-1.2l0.6-0.2v-7H367v-1.3h4v1.2h1.2v-1.5l1.3,0.1c0.1,0,0.2,0,0.2,0.1s0,0.1-0.1,0.1s-0.1,0.2-0.1,0.2v1h1.1
			v1.2h-0.9l0.8,0.4c0.1,0,0.2,0.1,0.2,0.2c0,0.1-0.1,0.1-0.2,0.1c-0.3,0.5-0.4,0.8-0.6,1.2h1c0-0.6,0-1,0-1.5c0-1.5,0-2.4,0.1-3.1
			l1.3,0.1c0.2,0,0.3,0,0.3,0.2s-0.2,0.2-0.3,0.3c0,0.3-0.1,2.2-0.1,2.9c0,0.4,0,0.8,0,1.2h2.3v1.3h-2.2c0,0.7,0.1,1.1,0.2,1.7
			c0.2-0.4,0.4-0.9,0.6-1.4l1.1,0.6c0,0,0.2,0.1,0.2,0.2s-0.1,0.1-0.2,0.2s-0.2,0.1-0.2,0.2c-0.3,0.7-0.6,1.4-1,2
			c0.1,0.2,0.3,0.6,0.5,0.6s0.3-0.7,0.4-0.9l0.9,0.7C378.4,68.5,378.1,69.7,377.4,69.7z M369.3,59.3h-0.7v1.2h0.7V59.3z M369.3,61.8
			h-0.7v1.3h0.7V61.8z M369.3,64.5h-0.7V66l0.7-0.2V64.5z M371,60.3v-1h-0.6v3h1.2c-0.1-0.5-0.3-1-0.6-1.4l1-0.5
			c0.2,0.5,0.4,1.1,0.6,1.6l-0.7,0.3h0.9c0.3-0.6,0.5-1.3,0.7-2L371,60.3z M373.3,65h-1.1v0.6h1.1V65z M373.3,66.6h-1.1v0.7h1.1
			V66.6z M377.1,61.4c-0.1-0.7-0.3-1.3-0.5-2l1.2-0.4c0.2,0.6,0.4,1.3,0.5,2L377.1,61.4z"/>
		<polygon class="st6" points="311.3,81.9 289.7,57 289.7,68.5 232.8,68.5 232.8,57 211.2,81.9 232.8,106.9 232.8,95.4 289.7,95.4 
			289.7,106.9 		"/>
		<polygon class="st7" points="372.5,137.4 347.5,115.8 322.5,137.4 334,137.4 334,159.6 193.4,159.6 193.4,137.4 205,137.4 
			180,115.8 155,137.4 166.5,137.4 166.5,159.6 74.1,159.6 74.1,137.4 85.6,137.4 60.6,115.8 35.6,137.4 47.2,137.4 47.2,209.5 
			60.6,209.5 74.1,209.5 166.5,209.5 193.4,209.5 334,209.5 349.8,209.5 360.9,209.5 360.9,137.4 		"/>
		<path class="st5" d="M239.7,87.3h-5.4c-1.1,0.1-2.2-0.3-2.8-1.2c-0.4,0.4-0.8,0.8-1.2,1.1c-0.1,0.2-0.1,0.3-0.2,0.3
			s-0.1-0.1-0.1-0.1l-0.6-1.3c0.5-0.2,1-0.5,1.5-0.8v-2.6h-1.2v-1.2h2.4V85c0,1.2,1.7,1.2,2.7,1.2c1.8,0,3.6-0.1,5.4-0.3L239.7,87.3
			z M231.5,79.8c-0.5-0.5-1-1-1.7-1.4l0.8-0.9c0.6,0.4,1.2,0.9,1.7,1.4L231.5,79.8z M238.2,85.8h-0.6l-0.4-1c0.8,0,0.8,0,0.8-0.3
			v-0.4h-1.2v1.5h-1.2v-1.5h-1.2v1.6h-1.2v-5.6h2.5c-0.5-0.3-1-0.6-1.5-0.8l0.4-0.6h-1.2v-1.2h5.5L239,78c-0.3,0.3-0.8,0.8-1.7,1.7
			c0.1,0,0.3,0.2,0.4,0.2l-0.2,0.2h1.7v4.7C239.2,85.4,238.7,85.8,238.2,85.8L238.2,85.8z M235.5,81h-1.2v0.6h1.2V81z M235.5,82.5
			h-1.2v0.7h1.2V82.5z M235.3,78.6c0.2,0.1,0.8,0.4,1,0.4c0.1-0.1,0.3-0.3,0.4-0.4H235.3z M238,81.1h-1.2v0.6h1.2V81.1z M238,82.5
			h-1.2v0.7h1.2V82.5z"/>
		<path class="st5" d="M250.3,81.7v-1.5H243v1.4h-1.3v-2.4h2.1c-0.2-0.4-0.5-0.8-0.8-1.1l1.1-0.7c0.4,0.4,0.7,0.9,1,1.4l-0.6,0.4
			h1.4v-2l1.4,0.2c0.1,0,0.2,0.1,0.2,0.2c0,0,0,0.1,0,0.1c0,0-0.2,0.2-0.2,0.2v1.3h1.4l-0.6-0.3c0.3-0.4,0.6-0.8,0.8-1.3l1.2,0.4
			c0.1,0,0.2,0.1,0.2,0.2c0,0,0,0,0,0.1c0,0-0.2,0.1-0.2,0.1s-0.4,0.6-0.6,0.8h2v2.5L250.3,81.7z M248.7,87.3l-0.6-1.2h0.9
			c0.2,0,0.3,0,0.3-0.3v-1.2h-1.9v2.9H246v-2.9h-1.8V87h-1.3v-3.3h3.1v-0.5h-2.1v-2.4h5.8v2.4h-2.3v0.5h3.2v2.7
			C250.6,87.3,249.4,87.3,248.7,87.3L248.7,87.3z M248.2,81.5h-2.9v0.7h2.9V81.5z"/>
		<path class="st5" d="M261.4,86.7c-0.9-1.1-1.8-2.1-2.9-3c-1.1,1.3-2.5,2.4-4.1,3.1l-1.1-1.1c1.5-0.6,2.8-1.5,3.8-2.6
			c0.9-0.9,1.6-2.1,2-3.3h-4.6v-1.4h5.2c0.2,0,0.4-0.1,0.6-0.3l0.9,1c-0.3,0.2-0.5,0.4-0.6,0.7c-0.4,0.9-0.8,1.8-1.4,2.7
			c1.1,0.9,2.2,1.9,3.2,3L261.4,86.7z"/>
		<path class="st5" d="M269.4,83.4l0.7,3.7l-1.4,0.3l-0.7-3.8l-3.9,0.5l-0.2-1.3l3.9-0.5l-0.3-1.6l-2.9,0.4l-0.2-1.2l2.9-0.4
			l-0.3-2.2l1.3-0.1c0.3,0,0.4,0,0.4,0.1s-0.2,0.3-0.2,0.3l0.3,1.6l2.6-0.3l0.2,1.3l-2.6,0.3l0.3,1.5l3.5-0.5l0.2,1.3L269.4,83.4z"
			/>
		<path class="st5" d="M274.2,83.1v-1.5h8.5v1.5H274.2z"/>
		<path class="st5" d="M292,86.7c-0.1-0.5-0.3-0.9-0.5-1.3c-1.1,0.2-6.9,1.1-7,1.2l-0.2,0.2c0,0-0.1,0-0.1,0c-0.1,0-0.1-0.1-0.2-0.3
			l-0.3-1.4l1.3-0.1c0.9-2.3,1.7-4.7,2.4-7.1l1.4,0.3c0.1,0,0.3,0.1,0.3,0.2s0,0.1-0.2,0.2s-0.1,0.1-0.3,0.4
			c-0.6,1.9-1.6,4.5-2.2,5.8c1.7-0.2,3-0.4,4.3-0.6c-0.4-0.7-0.9-1.3-1.4-1.9l1.3-0.6c1.1,1.3,1.9,2.7,2.6,4.2L292,86.7z"/>
		<path class="st5" d="M74.3,175.9c-0.3,2.1-0.8,2.5-2.6,2.6l-0.6-1.5c0.2,0,0.5,0.1,0.7,0.1c0.6,0,0.8-0.2,1-1.5
			c0.3-1.8,0.4-3.6,0.4-5.3H72c-0.1,1.5-0.3,5.2-2.3,7.9l-1.7-0.6c1.7-2.1,2.3-4.2,2.6-7.3h-1.8v-1.4h1.8c0-0.7,0-1.3-0.1-2.3
			l1.5,0.1c0.1,0,0.3,0,0.3,0.2s0,0.1-0.2,0.2s-0.2,0.2-0.2,0.3v1.5h2.7C74.7,171.2,74.6,173.5,74.3,175.9z M78.9,178.1v-0.7h-2v0.8
			h-1.4v-9.9h4.8v9.9H78.9z M78.9,169.7h-2v6.3h2V169.7z"/>
		<path class="st5" d="M94.5,178.5h-5.9c-2.5,0-3.1-0.6-3.6-1.3c0,0-0.9,0.7-1.4,1.1c-0.1,0.1-0.2,0.1-0.2,0.2
			c-0.1,0.3-0.2,0.3-0.2,0.3s-0.3-0.3-0.3-0.3l-0.6-1.5c0.6-0.3,1.4-0.7,2-1.1v-2.8h-1.6v-1.5h3.2v4c0,0.9,0.4,1.6,2.9,1.6
			c0.2,0,1.2,0,2.5-0.1c1.3-0.1,2.7-0.2,4-0.4L94.5,178.5z M84.8,169.8c-0.6-0.7-1.2-1.3-1.9-1.8l1.1-1.2c0.8,0.5,1.5,1.1,2.1,1.8
			L84.8,169.8z M93.7,176.4c-1.1-0.6-2-1.3-2.8-2.2v2.5h-1.4v-2.4c-0.6,0.8-1.4,1.5-2.2,2.1l-1.3-1.1c1-0.5,1.8-1.2,2.5-2.1h-1.6
			v-3.8h2.6v-0.7h-3.4v-1.3h3.4v-1.2l1.3,0.1c0.4,0,0.4,0.1,0.4,0.2s0,0.1-0.1,0.2s-0.2,0.2-0.2,0.2v0.4h3.8v1.3h-3.8v0.7h2.8v3.8
			h-1.6c0.8,0.8,1.9,1.5,2.9,1.9L93.7,176.4z M89.5,170.8h-1.1v1.3h1.1V170.8z M92.2,170.8h-1.3v1.3h1.3V170.8z"/>
		<path class="st5" d="M101.8,170.6v2.8h-1.5v-2.8h-0.8c-0.1,1.3-0.6,2.5-1.5,3.4l-1.6-0.6c0.9-0.7,1.4-1.7,1.6-2.8h-1.2v-1.3h1.3
			v-1.2h-0.9v-1.3h5.7v1.3h-1.1v1.2h1.3v1.4L101.8,170.6z M96.7,178.2v-1.4h5.2v-1h-3.6v-1.4h3.6v-1.1l1.6,0.1
			c0.2,0,0.4,0.1,0.4,0.2s0,0.1-0.1,0.1s-0.2,0.2-0.2,0.3v0.3h3.6v1.4h-3.6v1h5.2v1.4L96.7,178.2z M100.3,168.1h-0.7v1.2h0.7V168.1z
			 M108.3,166.9c-0.1,0.1-0.2,0.1-0.2,0.2v5.5c0,0.9-0.6,1.3-1.7,1.3h-0.6l-0.8-1.6h-1.2v-5.1l1.4,0.1c0.2,0,0.3,0.1,0.3,0.2
			s-0.1,0.1-0.1,0.2s-0.2,0.2-0.2,0.2v4.4c0.2,0.1,0.4,0.1,0.6,0.1c0.6,0,0.7-0.2,0.7-0.5v-5.4l1.5,0.1c0.1,0,0.3,0,0.3,0.2
			S108.3,166.8,108.3,166.9z"/>
		<path class="st5" d="M119.8,177.5c-1-1.3-2.2-2.5-3.4-3.5c-1.3,1.5-2.9,2.8-4.8,3.6l-1.2-1.3c1.7-0.7,3.2-1.7,4.5-3
			c1-1.1,1.9-2.4,2.4-3.8h-5.3v-1.6h6c0.3,0,0.5-0.1,0.7-0.3l1.1,1.2c-0.3,0.2-0.6,0.5-0.8,0.8c-0.4,1.1-1,2.2-1.6,3.1
			c1.3,1,2.6,2.2,3.7,3.5L119.8,177.5z"/>
		<path class="st5" d="M129.1,173.7l0.8,4.4l-1.6,0.3l-0.8-4.5l-4.6,0.6l-0.2-1.5l4.5-0.6l-0.3-1.8l-3.4,0.4l-0.2-1.4l3.3-0.4
			l-0.4-2.5l1.5-0.1c0.3,0,0.4,0,0.4,0.1s-0.2,0.3-0.2,0.4l0.3,1.9l3.1-0.4l0.2,1.5l-3,0.4l0.3,1.8l4.1-0.5l0.2,1.5L129.1,173.7z"/>
		<path class="st5" d="M134.7,173.4v-1.8h9.9v1.8H134.7z"/>
		<path class="st5" d="M155.5,177.5c-0.2-0.5-0.4-1.1-0.6-1.6c-1.4,0.2-8,1.3-8.1,1.4c-0.1,0.1-0.1,0.1-0.2,0.2c0,0-0.1,0-0.1,0.1
			c-0.1,0-0.1-0.1-0.2-0.4l-0.3-1.6c0.3,0,0.7,0,1.6-0.1c1.1-2.7,2-5.5,2.8-8.3l1.7,0.4c0.1,0,0.4,0.1,0.4,0.3s0,0.1-0.3,0.2
			s-0.2,0.1-0.3,0.5c-0.7,2.2-1.9,5.2-2.5,6.7c2-0.2,3.5-0.4,5-0.7c-0.5-0.8-1-1.5-1.6-2.2l1.5-0.7c1.3,1.5,2.3,3.1,3,4.9
			L155.5,177.5z"/>
		<path class="st5" d="M169,175.4c-0.8,1.1-1.9,2-3.3,2.5l-1-1.4c1-0.2,1.8-0.7,2.5-1.5c0.6-0.8,1-1.8,1-2.8c0-0.9-0.3-1.8-1-2.4
			c-0.6-0.6-1.5-0.9-2.4-0.9c-0.2,2.2-0.8,4.3-1.7,6.2c-0.4,0.9-1.1,2.1-1.8,2.1c-1.7-0.5-2.8-2-2.8-3.8c0-3.3,2.7-6,6.1-5.9
			c0,0,0.1,0,0.1,0c2.8-0.1,5.1,2,5.2,4.8c0,0.1,0,0.2,0,0.3C169.9,173.5,169.6,174.6,169,175.4z M161.5,170.1
			c-0.8,0.8-1.4,1.9-1.4,3.1c0,1.1,0.6,1.7,0.9,1.7c0.7,0,1.9-3.6,2.2-5.8C162.5,169.2,161.9,169.6,161.5,170.1L161.5,170.1z"/>
		<path class="st5" d="M178.6,172.8c-0.1,0.2-0.2,0.4-0.3,0.5h5.1c0,1.5-0.2,2.9-0.8,4.3c-0.4,0.7-1.1,0.9-2.2,0.9l-0.6-1.4
			c-0.5,0.6-1.1,1.1-1.7,1.5l-1.1-0.7c1.3-0.8,2.4-2,3.2-3.4h-0.7c-0.4,0.7-0.8,1.3-1.4,1.8c-0.7,0.7-1.4,1.2-2.2,1.7l-1.1-0.8
			c1.3-0.6,2.5-1.6,3.3-2.8h-0.6c-0.6,0.7-1.2,1.3-1.9,1.8l-1.1-0.7c0.4-0.3,0.9-0.6,1.2-0.9c-1,0.4-2.5,0.9-2.9,1s-0.6,0.1-0.7,0.2
			s-0.2,0.2-0.3,0.2c-0.1,0-0.1,0-0.1-0.1l-0.3-1.6c0.4-0.1,1.1-0.2,1.6-0.4v-3.3H172v-1.4h1.4v-2.8l1.6,0.1c0.1,0,0.2,0.1,0.2,0.1
			s-0.1,0.2-0.1,0.2s-0.2,0.1-0.2,0.2v2.1h1.4v1.4h-1.4v2.9c0.5-0.1,1-0.3,1.4-0.4v1.2c0.4-0.4,0.8-0.9,1-1.5h-1.3v-1.1h7.8v1.1
			L178.6,172.8z M176.9,171.1v-4.4h5.7v4.4H176.9z M181.3,167.9h-3v0.6h3V167.9z M181.3,169.5h-3v0.6h3V169.5z M181.7,174.5
			c-0.4,0.9-0.9,1.7-1.6,2.4c0.2,0.1,0.5,0.1,0.8,0.1c0.3,0,0.6-0.1,0.8-0.4c0.3-0.7,0.4-1.4,0.4-2.1H181.7z"/>
		<path class="st5" d="M197.2,172.2c-0.9-0.4-1.8-0.9-2.6-1.4v1.1h-5.6v-0.9c-0.8,0.6-1.6,1.1-2.5,1.4l-1.2-1.2c2.4-1,4.5-2.7,5.8-5
			l1.6,0.3c0.1,0,0.2,0.1,0.2,0.2s-0.1,0.2-0.2,0.2c0.6,0.9,1.4,1.6,2.2,2.2c1.1,0.7,2.3,1.3,3.5,1.6L197.2,172.2z M194.3,178.4V178
			h-5.1v0.5h-1.5V173h8.2v5.4L194.3,178.4z M194.3,174.4h-5.1v2.1h5.1V174.4z M191.8,168.2c-0.6,0.9-1.3,1.7-2.1,2.3h4.5
			C193.3,169.8,192.5,169,191.8,168.2L191.8,168.2z"/>
		<path class="st5" d="M69.3,183.3l3.3,3.3l3.3-3.3l0.3,0.3l-3.3,3.3l3.3,3.3l-0.3,0.3l-3.3-3.3l-3.3,3.3l-0.3-0.3l3.3-3.3l-3.3-3.3
			L69.3,183.3z M69.8,187.6c-0.4,0-0.8-0.3-0.8-0.8s0.3-0.8,0.8-0.8s0.8,0.3,0.8,0.8C70.5,187.3,70.2,187.6,69.8,187.6
			C69.8,187.6,69.8,187.6,69.8,187.6L69.8,187.6z M71.9,184c0-0.4,0.3-0.8,0.8-0.8s0.8,0.3,0.8,0.8s-0.3,0.8-0.8,0.8
			C72.2,184.7,71.9,184.4,71.9,184L71.9,184z M73.4,189.7c0,0.4-0.3,0.8-0.8,0.8s-0.8-0.3-0.8-0.8s0.3-0.8,0.8-0.8
			C73,189,73.4,189.3,73.4,189.7L73.4,189.7z M75.5,186.1c0.4,0,0.8,0.3,0.8,0.8s-0.3,0.8-0.8,0.8s-0.8-0.3-0.8-0.8
			C74.7,186.4,75.1,186.1,75.5,186.1L75.5,186.1z"/>
		<path class="st5" d="M80.4,187.7v2.6c0,0.9-0.2,0.9-1.6,0.9l-0.2-0.8c0.3,0,0.6,0.1,0.8,0.1s0.3-0.1,0.3-0.3v-2l-0.9,0.6
			c0,0.1,0,0.3-0.2,0.3s-0.1-0.1-0.1-0.2l-0.3-0.7c0.7-0.4,0.9-0.5,1.5-0.9v-2.2h-1.4v-0.7h1.4v-2.1l0.7,0.1c0.1,0,0.2,0,0.2,0.1
			s-0.1,0.1-0.2,0.2v1.8h1.2v0.7h-1.2v1.7c0.5-0.3,0.9-0.6,1.2-0.9v0.8C81.2,187.1,80.8,187.4,80.4,187.7z M81.2,190.8v-0.6h5.8v0.6
			H81.2z M85.7,189.2v-0.5h-2.6v0.5h-0.7v-6.3h4v6.3H85.7z M85.7,183.5h-2.6v1.9h2.6V183.5z M85.7,186.1h-2.6v2h2.6V186.1z"/>
		<path class="st5" d="M95.6,190.8h-6.9v-0.7h6.9v-1.4H89V188h6.5v-1.4h-6.8V186h3.6v-3.6l0.9,0.1c0.2,0,0.2,0.1,0.2,0.1
			s-0.1,0.1-0.3,0.2v3.2h3.3v5.3h-0.8L95.6,190.8z M89.6,183c0.6,0.7,1.1,1.5,1.5,2.4l-0.7,0.4c-0.4-0.8-0.9-1.6-1.4-2.4L89.6,183z
			 M94.1,185.4c0.7-0.8,1.2-1.6,1.7-2.5l0.7,0.5c0,0,0.1,0.1,0.1,0.2s-0.1,0.1-0.3,0.1c-0.4,0.8-0.9,1.5-1.5,2.2L94.1,185.4z"/>
		<path class="st5" d="M103.4,186.1v0.7h-5.2v-0.7h3.8l-0.6-0.3c0.3-0.5,0.4-1,0.6-1.5l0.7,0.3c0,0,0.1,0.1,0.1,0.1
			s-0.1,0.1-0.2,0.1c-0.1,0.4-0.3,0.9-0.5,1.3H103.4z M100.5,182.3h0.8c0,0,0.2,0,0.2,0.1s-0.1,0.2-0.2,0.2v0.8h2v0.6h-4.7v-0.6h1.9
			V182.3z M98.9,187.7h3.9v3.6h-0.7v-0.6h-2.6v0.7h-0.7V187.7z M99.6,184.2c0.3,0.5,0.5,1,0.7,1.5l-0.7,0.3c-0.2-0.5-0.4-1-0.7-1.5
			L99.6,184.2z M102.2,190.1v-1.8h-2.6v1.8H102.2z M107.1,183.4c-0.8,1.7-1.2,2.4-1.4,2.9c0.9,0.6,1.4,1.6,1.4,2.7
			c0,1.5-1.2,1.7-2,1.8l-0.3-0.9c0.2,0,0.3,0,0.5,0c0.3,0,0.6-0.1,0.8-0.3c0.2-0.2,0.3-0.5,0.3-0.8c-0.1-1-0.7-2-1.5-2.6
			c0.5-0.8,0.9-1.7,1.3-2.6h-1.6v7.7h-0.7V183h2.8L107.1,183.4z"/>
		<path class="st5" d="M108.2,187.3v-0.6h3.5V186h-2.3v-0.6h2.3v-0.6l0.7,0.1c0.1,0,0.2,0,0.2,0.1s-0.1,0.1-0.2,0.2v0.3h1.7v0.6
			h-1.7v0.8h0.9c0.7-0.6,1.4-1.3,1.9-2.1l0.6,0.4c0.1,0,0.1,0.1,0.1,0.1s-0.2,0.1-0.3,0.1c-0.5,0.5-0.9,1-1.5,1.5h2.8v0.6h-3.5
			c-0.3,0.2-0.6,0.4-0.9,0.6h3.4v3.4h-0.7V191h-3.8v0.3h-0.7V189c-0.8,0.3-1.6,0.6-2.4,0.8l-0.4-0.6c1.6-0.3,3.2-0.9,4.6-1.8
			L108.2,187.3z M108.8,182.6h7.7v2h-7.7V182.6z M111.1,183.2h-1.7v0.9h1.7V183.2z M111.7,188.5l-0.2,0.1v0.5h3.8v-0.6H111.7z
			 M115.2,189.8h-3.8v0.7h3.8V189.8z M113.4,183.2h-1.7v0.9h1.7V183.2z M115.8,183.2h-1.7v0.9h1.7V183.2z"/>
		<path class="st5" d="M120.9,187.5c-0.3-0.3-0.5-0.5-0.6-0.9v4.8h-0.7V187c-0.3,0.8-0.7,1.6-1.2,2.3l-0.6-0.4
			c0.8-1,1.4-2.3,1.7-3.6h-1.4v-0.7h1.4v-2.3l0.7,0.1c0.1,0,0.2,0,0.2,0.1s-0.1,0.1-0.2,0.1v2h1.1v0.7h-1c0.2,0.7,0.5,1.3,1,1.8
			L120.9,187.5z M122,190.8c0,0.1,0,0.3-0.1,0.3s-0.2-0.1-0.2-0.2l-0.4-0.5c0.8-0.4,1.5-1,2.2-1.6l0.2,0.6
			C122.8,190.1,122.4,190.5,122,190.8L122,190.8z M122.6,189.2c-0.3-0.3-0.6-0.6-1-0.9l0.4-0.5c0.4,0.3,0.7,0.6,1,0.9L122.6,189.2z
			 M126.9,191.1c-0.5-0.3-1-0.6-1.4-1c-0.3-0.3-0.6-0.7-0.9-1.1v1.7c0,0.7-0.3,0.7-0.8,0.7h-0.7l-0.3-0.8c0.1,0,0.7,0.1,0.8,0.1
			c0.3,0,0.3-0.1,0.3-0.3v-2.8h-2.2v-0.6h2.2V186h-1.8v-0.6h1.8v-0.8h-2.1v-0.6h3.2l-0.5-0.3c0.3-0.4,0.6-0.9,0.9-1.4l0.6,0.3
			c0.1,0,0.2,0.1,0.2,0.2s-0.1,0.1-0.3,0.1c-0.2,0.4-0.5,0.8-0.8,1.2h1.7v0.6h-2.2v0.8h2v0.6h-2v0.9h2.3v0.6h-2.3v0.2
			c0.6,1.2,1.6,2.2,2.8,2.7L126.9,191.1z M123.3,183.9c-0.3-0.4-0.6-0.8-1-1.1l0.5-0.4c0.4,0.3,0.7,0.7,1,1.2L123.3,183.9z
			 M126.8,188.5c-0.2,0.3-0.4,0.6-0.7,0.8l-0.5-0.4c0.3-0.3,0.6-0.7,0.9-1.1l0.5,0.4c0.1,0.1,0.1,0.1,0.1,0.2S127,188.5,126.8,188.5
			L126.8,188.5z"/>
		<path class="st5" d="M128.3,185.6c0.8-0.1,1.5-0.2,2.2-0.4c0.2-0.7,0.3-1.4,0.3-2.2l0.9,0.4c-0.2,0.5-0.3,1-0.4,1.5
			c0.3-0.1,0.6-0.1,0.9-0.1c0.3,0,0.7,0.1,0.9,0.3c0.4,0.4,0.5,1,0.5,1.5c0,1.1-0.3,2.1-0.8,3.1c-0.3,0.5-0.8,0.8-1.4,0.8
			c-0.2,0-0.3,0-0.5,0l-0.3-0.8c0.3,0.1,0.6,0.1,0.9,0.1c0.4,0,0.6-0.2,0.9-0.7c0.3-0.8,0.5-1.6,0.5-2.4c0-0.4,0-1.2-0.9-1.2
			c-0.3,0-0.6,0.1-0.9,0.2c-0.5,1.7-1.2,3.4-2.2,4.8l-0.8-0.4c1-1.2,1.8-2.7,2.1-4.2c-0.6,0.2-1.1,0.3-1.7,0.4L128.3,185.6z
			 M134.5,184.1c0.9,1.1,1.4,1.8,1.4,2.5s-0.4,0.8-1.1,0.9l-0.4-0.9h0.4c0.3,0,0.3-0.2,0.3-0.3c0-0.3-0.1-0.7-0.4-0.9
			c-0.3-0.4-0.5-0.8-0.9-1.1L134.5,184.1z"/>
		<path class="st5" d="M138.5,184.7c-0.4,0.8-0.6,1.6-0.6,2.5c0.8-0.6,1.8-0.9,2.8-1c1.1,0,2,0.8,2,1.9c0,0,0,0,0,0
			c0,1.8-1.8,2.4-2.5,2.5c-0.6,0.2-1.2,0.2-1.8,0.2l-0.5-0.8c0.8,0.1,1.6,0,2.4-0.2c0.4-0.1,1.7-0.7,1.7-1.8c0-0.7-0.6-1.3-1.3-1.2
			c0,0,0,0,0,0c-1.2,0.2-2.3,0.7-3.1,1.6l-0.4-0.2c0-1.3,0.2-2.6,0.6-3.8L138.5,184.7z M138.4,182.7c0.9,0.3,1.9,0.7,2.7,1.2
			l-0.4,0.7c-0.8-0.5-1.7-0.9-2.6-1.2L138.4,182.7z"/>
		<path class="st5" d="M148.9,184.1v0.8h2.4v4.5h-5.1v-4.5h2v-0.8h-3.9v-0.6h3.9v-1.1l0.8,0.1c0.1,0,0.2,0,0.2,0.1s-0.1,0.2-0.2,0.2
			v0.7h3.8v0.6L148.9,184.1z M145.1,190.7v0.6h-0.7v-6.1l0.8,0.1c0.1,0,0.1,0,0.1,0.1s-0.1,0.1-0.2,0.2v4.4h7.6v0.6L145.1,190.7z
			 M150.6,185.4h-3.7v0.7h3.7V185.4z M150.6,186.7h-3.7v0.7h3.7V186.7z M150.6,188h-3.7v0.7h3.7V188z"/>
		<path class="st5" d="M156.6,186.9l-0.9,0.6v2.8c0,0.6,0,1.1-1.5,1l-0.3-0.8c0.2,0,0.5,0.1,0.7,0.1c0.4,0,0.4-0.2,0.4-0.4v-2.3
			c-0.4,0.2-0.6,0.4-0.8,0.5c0,0.1,0,0.3-0.2,0.3s-0.1-0.1-0.1-0.1l-0.2-0.7c0.4-0.2,0.9-0.5,1.3-0.7v-2h-1.1v-0.7h1.1v-2.1l0.8,0.1
			c0.2,0,0.2,0.1,0.2,0.1s-0.1,0.1-0.2,0.2v1.6h0.9v0.7h-0.9v1.6l0.9-0.5L156.6,186.9z M159.8,186.8c0.1,0,0.2,0.1,0.2,0.1
			s-0.1,0.1-0.3,0.1c-0.1,0.2-0.2,0.4-0.4,0.7h3.5v0.6h-1.4c-0.2,0.5-0.4,0.9-0.7,1.3c0.6,0.2,1.2,0.6,1.7,0.9l-0.6,0.5
			c-0.5-0.4-1-0.8-1.6-1c-1,0.7-2.2,1-3.4,1.1l-0.3-0.6c1,0,2.1-0.2,3-0.7c-0.5-0.2-1-0.3-1.5-0.4l-0.3,0.3l-0.5-0.3
			c0.4-0.3,0.7-0.7,1-1.1h-1.4v-0.6h1.9c0.3-0.4,0.5-0.8,0.6-1.2L159.8,186.8z M156.8,185.8h6v0.6h-6V185.8z M161.2,184.2l0.5,0.3
			c0,0,0.1,0.1,0.1,0.1s-0.1,0.1-0.3,0.1l-0.6,0.8l-0.1,0.1l-0.6-0.3c0.3-0.4,0.5-0.7,0.7-1.2h-2.4c0.3,0.4,0.5,0.8,0.7,1.2
			l-0.6,0.3c-0.2-0.4-0.4-0.8-0.7-1.2l0.5-0.3h-1.3v-0.6h2.4v-1.2l0.8,0.1c0,0,0.2,0,0.2,0.1s-0.1,0.1-0.3,0.2v0.9h2.4v0.6
			L161.2,184.2z M159,188.4c-0.2,0.3-0.3,0.4-0.5,0.6c0.5,0.1,1.1,0.2,1.6,0.4c0.3-0.3,0.5-0.6,0.6-1L159,188.4z"/>
		<path class="st5" d="M164.3,183.5l0.8,0.1c0.1,0,0.2,0,0.2,0.1s0,0.1-0.3,0.2v5.5c1.1-0.3,2.2-0.8,3.1-1.5
			c0.9-0.6,1.7-1.3,2.4-2.2l0.3,0.8c-0.7,0.8-1.5,1.4-2.4,2c-1.1,0.8-2.4,1.4-3.7,1.8l-0.5-0.4V183.5z"/>
		<path class="st5" d="M173,188.6c0,1.2,0.4,1.3,1.7,1.3c1.2,0,2.4-0.1,3.6-0.4v0.9c-1.3,0.2-2.7,0.2-4,0.2c-1.8,0-2.1-0.5-2.1-1.9
			v-5.6l0.8,0.2c0.1,0,0.3,0.1,0.3,0.1s0,0.1-0.3,0.2v2.6c1.6-0.2,3.2-0.7,4.6-1.4l0.5,0.7c0,0,0.1,0.1,0.1,0.2
			c0,0.1-0.1,0.1-0.1,0.1l-0.3-0.1c-1.5,0.6-3.1,1-4.8,1.2V188.6z M177.7,184.3c-0.3-0.3-0.6-0.6-0.9-0.9l0.4-0.4
			c0.3,0.3,0.6,0.6,0.9,0.9L177.7,184.3z M179,183.6c-0.3-0.3-0.6-0.6-0.9-0.9l0.4-0.4c0.3,0.3,0.6,0.5,0.9,0.9L179,183.6z"/>
		<path class="st5" d="M186.5,190.1v0.6h-6.6v-0.6h3.9l0.5-3.1h-3v-0.6h3.8l-0.5,3.7L186.5,190.1z"/>
		<path class="st5" d="M187.7,187.4v-0.7h7.3v0.7H187.7z"/>
		<path class="st5" d="M198.8,183c-0.2,0.5-0.4,1-0.6,1.5c0.2,0.1,0.3,0.1,0.3,0.2s-0.1,0.2-0.3,0.3v6.3h-0.7v-5.5
			c-0.2,0.4-0.5,0.9-0.9,1.3l-0.6-0.4c1.1-1.3,1.9-2.8,2.3-4.4l0.8,0.4c0.1,0,0.1,0.1,0.1,0.2C199.1,182.9,198.9,182.9,198.8,183z
			 M204.6,190.9c-0.8-0.7-1.5-1.5-1.9-2.4c-0.5-0.9-0.8-2-0.9-3c-0.3,0.5-0.6,1-1,1.4v2.9c0.6-0.2,1.2-0.5,1.9-0.7v0.7
			c-0.9,0.4-2.1,0.9-3.1,1.3c-0.1,0.2-0.1,0.2-0.2,0.2c-0.1,0-0.1-0.1-0.2-0.1l-0.3-0.7c0.4-0.1,0.8-0.2,1.3-0.4v-2.4
			c-0.4,0.4-0.8,0.7-1.3,1l-0.6-0.5c0.6-0.4,1.2-0.9,1.7-1.4c0.5-0.5,0.9-1.1,1.2-1.8h-2.5v-0.6h2.7v-2.1l0.9,0.1
			c0.1,0,0.2,0.1,0.2,0.1s0,0.1-0.3,0.3v1.6h2.8v0.6h-2.6c0,0.8,0.2,1.6,0.5,2.3c0.5-0.3,1-0.8,1.3-1.2l0.6,0.5c0,0,0.1,0.1,0.1,0.1
			c0,0.1-0.1,0.1-0.1,0.1c-0.1,0-0.1,0-0.2-0.1c-0.4,0.5-0.9,0.9-1.4,1.3c0.4,0.9,1.1,1.7,2,2.3L204.6,190.9z"/>
		<path class="st5" d="M209.8,189.6c-0.4-0.4-0.8-0.8-1.1-1.3v3h-0.6v-3.1c-0.4,0.8-0.9,1.5-1.5,2.2L206,190
			c0.7-0.7,1.3-1.6,1.8-2.5h-1.2V185h1.5v-0.9h-1.9v-0.7h1.9v-1l0.7,0.1c0.1,0,0.2,0,0.2,0.1s-0.1,0.1-0.2,0.2v0.7h1.6v0.7h-1.6v0.9
			h1.6v2.5h-1.4c0.4,0.7,0.9,1.2,1.5,1.7L209.8,189.6z M208.1,185.7h-0.9v1.2h0.9V185.7z M209.6,185.7h-0.9v1.2h0.9V185.7z
			 M212.2,190.6h-0.2c-0.4,0.3-1,0.6-1.4,0.8l-0.5-0.5c0.6-0.2,1.1-0.5,1.6-0.9l0.5,0.4c0,0,0.1,0.1,0.1,0.1
			S212.3,190.6,212.2,190.6L212.2,190.6z M212.9,183.6c-0.2,0.5-0.3,0.6-0.5,1.1h2.3v4.9h-3.9v-4.9h0.9c0.2-0.3,0.3-0.7,0.5-1.1
			h-1.7v-0.6h4.6v0.6H212.9z M214,185.2h-2.5v0.8h2.5V185.2z M214,186.7h-2.5v0.8h2.5V186.7z M214,188.1h-2.5v0.8h2.5V188.1z
			 M214.7,191.3c-0.6-0.2-1.2-0.6-1.8-1l0.5-0.4c0.5,0.4,1.1,0.7,1.6,0.9L214.7,191.3z"/>
		<path class="st5" d="M216,185.7c0.7-0.1,1.4-0.3,2.1-0.5c0.1-0.7,0.2-1.4,0.1-2.1l0.9,0.3c-0.1,0.4-0.1,0.7-0.3,1.5
			c0.3-0.1,0.6-0.1,0.8-0.1c0.6,0,1.4,0.4,1.4,1.9c0,1-0.2,2.1-0.6,3c-0.2,0.5-0.8,0.8-1.3,0.8h-0.5l-0.3-0.8c0.3,0,0.6,0.1,0.8,0.1
			c0.3,0,0.6,0,0.9-0.7c0.2-0.7,0.4-1.5,0.4-2.2c0-0.6-0.1-1.4-0.8-1.4c-0.3,0-0.5,0.1-0.8,0.1c-0.4,1.8-1,3.5-2,5l-0.8-0.4
			c0.5-0.6,1-1.4,1.3-2.2c0.3-0.7,0.5-1.5,0.7-2.2l-0.9,0.4c-0.2,0.1-0.4,0.2-0.7,0.2L216,185.7z M221.5,183.8
			c0.5,0.5,1.9,1.7,1.9,2.8c0,0.7-0.6,0.8-1.1,1l-0.4-0.8c0.3,0,0.7,0,0.7-0.3c0-0.2-0.1-0.5-0.3-0.6c-0.4-0.6-0.8-1.1-1.3-1.5
			L221.5,183.8z M223.2,184.3c-0.3-0.3-0.6-0.6-0.9-0.9l0.5-0.4c0.4,0.3,0.7,0.5,1,0.9L223.2,184.3z M223.8,182.4
			c0.3,0.2,0.7,0.5,0.9,0.8l-0.5,0.4c-0.3-0.3-0.6-0.6-0.9-0.8L223.8,182.4z"/>
		<path class="st5" d="M232.9,183.4v6.8c0,0.5,0,0.7-0.3,0.9c-0.3,0.1-0.7,0.2-1,0.1h-0.7l-0.2-0.9c0.6,0.1,0.8,0.1,1.1,0.1
			s0.4-0.1,0.4-0.6v-6.5h-6.8v-0.7h8.9v0.7L232.9,183.4z M227.2,188.8v0.9h-0.8v-4.6h3.9v3.6L227.2,188.8z M229.5,185.8h-2.4v2.3
			h2.4V185.8z"/>
		<path class="st5" d="M239.3,185c-0.1-0.1-0.1-0.3-0.3-0.5c-0.9,0.2-1.8,0.3-3.3,0.5c-0.1,0.1-0.1,0.2-0.2,0.2s-0.1,0-0.1-0.2
			l-0.2-0.7h0.6c0.4-0.7,0.7-1.4,1-2.1l0.7,0.3c0.1,0,0.2,0.1,0.2,0.1s-0.1,0.1-0.3,0.2c-0.2,0.4-0.6,1-0.9,1.5
			c0.7-0.1,1.2-0.1,2.2-0.3c-0.3-0.4-0.4-0.7-0.6-0.9l0.6-0.3c0.5,0.6,0.8,1.2,1.2,1.9L239.3,185z M237.9,191.3l-0.2-0.7h0.6
			c0.3,0,0.3-0.1,0.3-0.3v-1.1h-2.2v2.1h-0.7v-5.7h3.6v4.7C239.3,191,239.3,191.3,237.9,191.3L237.9,191.3z M238.6,186.2h-2.2v0.9
			h2.2V186.2z M238.6,187.7h-2.2v0.9h2.2V187.7z M243,186.4h-1.7c-0.6,0-0.9-0.1-0.9-0.9v-3.1l0.7,0.1c0.1,0,0.2,0,0.2,0.1
			s-0.1,0.2-0.2,0.2v1c0.8-0.1,1.5-0.3,2.2-0.6l0.5,0.6c0,0,0.1,0.1,0.1,0.1c0,0,0,0.1-0.1,0.1c0,0,0,0,0,0c-0.1,0-0.2,0-0.2-0.1
			c-0.8,0.2-1.7,0.4-2.5,0.6v1.1c0,0.3,0,0.4,0.5,0.4h1.3c0.4,0,0.6,0,0.7-0.9l0.6,0.3C243.9,186.5,243.6,186.5,243,186.4L243,186.4
			z M243,191.1h-1.7c-0.6,0-1-0.1-1-0.7v-3.5h0.7c0.1,0,0.2,0,0.2,0.1s-0.1,0.1-0.2,0.2v1.2c0.8-0.2,1.6-0.5,2.4-0.9l0.4,0.5
			c0,0,0.1,0.1,0.1,0.1c0,0.1-0.1,0.1-0.1,0.1h-0.2c-0.8,0.4-1.7,0.6-2.6,0.9v1.1c0,0.4,0.2,0.4,0.6,0.4h1.3c0.3,0,0.6,0,0.8-1
			l0.6,0.3C244,191,243.8,191.1,243,191.1L243,191.1z"/>
		<path class="st5" d="M245.4,184c1.3,0,2.5-0.1,3.8-0.3c1.2-0.1,2.3-0.3,3.4-0.6l0.1,0.8c-1,0.2-1.8,0.6-2.6,1.3
			c-0.9,0.7-1.5,1.7-1.6,2.8c0,1.3,0.7,1.9,2.6,2.3l-0.3,0.8c-0.9-0.2-3.1-0.8-3.1-2.8c0.1-1.1,0.6-2.2,1.4-3
			c0.4-0.4,0.9-0.8,1.4-1.1c-1.6,0.1-4,0.5-5,0.7L245.4,184z M251.3,185.5c0.3,0.4,0.6,0.8,0.8,1.3l-0.5,0.4
			c-0.2-0.5-0.5-0.9-0.9-1.3L251.3,185.5z M252.3,184.6c0.3,0.4,0.6,0.8,0.9,1.3l-0.5,0.4c-0.2-0.5-0.5-0.9-0.9-1.3L252.3,184.6z"/>
		<path class="st5" d="M258.6,182.7c-0.1,0.5-0.1,1-0.1,1.5c1.1-0.1,2.1-0.1,3-0.3l0.1,0.8c-1.4,0-2.4,0.1-3,0.1c0,0.3,0,1.4,0,1.7
			c0.2,0.4,0.3,0.9,0.3,1.4c0,0.9-0.3,1.7-0.8,2.5c-0.2,0.3-0.5,0.6-0.8,0.9l-0.8-0.3c0.6-0.5,1.1-1.1,1.4-1.9
			c-0.2,0.1-0.5,0.2-0.7,0.2c-0.6,0-1.2-0.6-1.2-1.7c0-1.3,0.8-1.9,1.4-1.9c0.2,0,0.3,0,0.5,0.1v-0.9c-1.1,0.1-2.7,0.2-3.9,0.3
			l-0.1-0.7c1.1-0.1,2.8-0.2,4-0.3c0-0.6,0-1.1,0-1.7L258.6,182.7z M256.6,187.5c0,0.7,0.4,1,0.7,1s0.7-0.5,0.7-1.1
			c0-0.3-0.1-1-0.6-1C257,186.4,256.6,186.8,256.6,187.5L256.6,187.5z"/>
		<path class="st5" d="M265.8,189.8c0,0.9-0.7,1.5-1.5,1.5c-0.9,0-1.5-0.7-1.5-1.5c0-0.9,0.7-1.5,1.5-1.5S265.8,189,265.8,189.8
			L265.8,189.8z M263.1,189.8c0,0.6,0.5,1.1,1.1,1.1c0.6,0,1.1-0.5,1.1-1.1s-0.5-1.1-1.1-1.1l0,0
			C263.6,188.7,263.1,189.2,263.1,189.8z"/>
		<path class="st5" d="M84,196.2c0.1,0,0.3,0,0.4,0l0.4,0.6c-0.2,0.1-0.4,0.4-0.5,0.6c-0.5,1.6-1.3,3.1-2.5,4.2
			c-0.6,0.6-1.3,1.1-2,1.5l-0.7-0.6c1.2-0.5,2.2-1.3,3-2.3c0.8-0.9,1.3-2.1,1.5-3.2h-3c-0.6,0.8-1.2,1.5-2,2.1l-0.7-0.5
			c0.7-0.5,1.3-1.1,1.8-1.8c0.4-0.5,0.7-1.1,0.9-1.8l0.8,0.3c0.2,0.1,0.2,0.1,0.2,0.2s-0.1,0.1-0.3,0.1c-0.2,0.4-0.2,0.5-0.3,0.7
			L84,196.2z M83.7,194.4c0.3,0.3,0.6,0.6,0.8,1l-0.5,0.4c-0.2-0.4-0.5-0.7-0.8-1L83.7,194.4z M85,194.2c0.3,0.3,0.6,0.6,0.8,1
			l-0.5,0.4c-0.2-0.4-0.5-0.7-0.8-1L85,194.2z"/>
		<path class="st5" d="M86.2,201.6c1-0.6,2.2-1.3,2.2-4.4c0-0.6,0-1.2-0.1-1.6l0.8,0.1c0,0,0.2,0,0.2,0.1s0,0.1-0.2,0.2
			c0.1,1.1,0,2.1-0.2,3.1c-0.2,1.3-1,2.4-2.1,3L86.2,201.6z M90.7,195.4l0.8,0.1c0.1,0,0.2,0,0.2,0.1s0,0.1-0.2,0.2v5.1
			c0.6-0.3,1.2-0.8,1.7-1.3c0.5-0.4,0.8-0.9,1.2-1.5l0.5,0.6c-0.4,0.7-1,1.3-1.6,1.9c-0.6,0.5-1.3,1-2,1.4l-0.5-0.4L90.7,195.4z"/>
		<path class="st5" d="M95.7,199.4v-0.7h7.2v0.7H95.7z"/>
		<path class="st5" d="M104.2,196.6v-0.7h5.5c0.2,0,0.3-0.1,0.4-0.2l0.8,0.6c-0.3,0.3-0.3,0.3-0.3,0.4c-0.8,2.7-1.4,3.7-2.7,4.8
			c-0.7,0.5-1.4,1-2.2,1.3l-0.7-0.7c1.1-0.3,2.1-0.9,2.9-1.7c1-1,1.6-2.4,1.8-3.8H104.2z M110.6,195.1c0-0.6,0.4-1,1-1s1,0.4,1,1
			s-0.4,1-1,1S110.6,195.6,110.6,195.1z M112.1,195.1c0-0.3-0.2-0.5-0.5-0.5c0,0,0,0,0,0c-0.3,0-0.6,0.2-0.6,0.5s0.2,0.6,0.5,0.6
			c0,0,0.1,0,0.1,0C111.8,195.6,112.1,195.4,112.1,195.1C112.1,195.1,112.1,195.1,112.1,195.1z"/>
		<path class="st5" d="M120.8,198.1v0.7h-3.2c-0.1,0.9-0.4,1.7-0.9,2.5c-0.5,0.7-1.2,1.2-2,1.5l-0.9-0.6c0.8-0.2,1.6-0.6,2.2-1.2
			c0.5-0.6,0.8-1.4,0.9-2.2h-3.7v-0.7h3.8c0-0.2,0-0.4,0-0.8s0-0.6,0-0.9c-0.9,0.2-1.8,0.4-2.7,0.5l-0.4-0.8c1,0,1.9-0.1,2.8-0.4
			c0.7-0.2,1.5-0.5,2.2-0.8l0.6,0.5c0,0,0.1,0.1,0.1,0.2s-0.1,0.1-0.1,0.1h-0.3c-0.7,0.3-0.8,0.3-1.5,0.5c0,0.3,0,0.6,0,1
			s0,0.7,0,0.9L120.8,198.1z"/>
		<path class="st5" d="M127.3,198.1c0.1,0,0.3-0.1,0.3-0.3l0.5,0.3c-0.4,0.9-0.8,1.8-1.3,2.7l-0.6-0.2c0.4-0.6,0.7-1.2,1-1.9
			l-2.4,0.5l0.8,4l-0.6,0.1l-0.8-3.9l-2.2,0.5l-0.1-0.6l2.2-0.5l-0.4-1.9l0.5-0.1c0.3,0,0.3,0,0.3,0.1s-0.1,0.2-0.2,0.2l0.3,1.5
			L127.3,198.1z"/>
		<path class="st5" d="M129.7,198.1c0.3,0.5,0.5,0.9,0.7,1.4l-0.6,0.3c-0.2-0.5-0.4-1-0.7-1.4L129.7,198.1z M130.4,202.8
			c1.1-0.3,2-1,2.7-1.9c0.6-1,1-2.1,1.1-3.2l0.5,0.2c0.2,0.1,0.3,0.1,0.3,0.2s0,0.1-0.2,0.1c-0.2,1.1-0.7,2.1-1.2,3.1
			c-0.6,0.9-1.5,1.6-2.5,2.1L130.4,202.8z M131.6,197.6c0.3,0.4,0.5,0.9,0.7,1.4l-0.6,0.2c-0.2-0.5-0.4-1-0.7-1.4L131.6,197.6z"/>
		<path class="st5" d="M137.4,197.6c1.2,0.5,2.3,1.2,3.3,2l-0.5,0.7c-0.4-0.4-0.9-0.7-1.4-1.1c-0.5-0.4-1.1-0.7-1.7-0.9v4.4h-0.8
			V195h0.8c0,0,0.3,0,0.3,0.1s-0.1,0.1-0.2,0.2v2.8L137.4,197.6z"/>
		<path class="st5" d="M143.5,195.4c-0.3,0.6-0.4,1.3-0.5,2c-0.1,0.7-0.2,1.3-0.2,2c0,0.5,0,1,0.1,1.4c0,0.3,0.1,0.3,0.1,0.5
			c0.1-0.3,0.2-0.5,0.5-1.5l0.6,0.4c-0.3,0.7-0.5,1.5-0.6,2.3l-0.6,0.1c-0.4-1-0.7-2.1-0.6-3.2c0-0.9,0.1-1.7,0.2-2.6
			c0.2-0.9,0.2-1,0.3-1.3l0.1-0.6L143.5,195.4z M145.6,199.9c0,0.1,0,0.6,0,0.7c0.2,0.7,0.8,0.8,1.5,0.8c0.8,0,1.7-0.1,2.5-0.4v0.8
			c-0.8,0.2-1.7,0.3-2.5,0.3c-1.3,0-2.1-0.1-2.1-2L145.6,199.9z M145.4,195.8c0.5,0.1,1,0.1,1.4,0.1c0.8,0,1.6-0.2,2.4-0.4v0.8
			c-1.1,0.2-2.2,0.3-3.3,0.3c-0.2,0-0.3,0-0.5,0L145.4,195.8z"/>
		<path class="st5" d="M157.3,202.4c-0.7-0.6-1.5-1.1-2.3-1.3c0,0.2,0,0.5,0,0.7c-0.2,0.9-1.1,1.1-1.9,1.1c-0.5,0-1-0.1-1.5-0.3
			c-0.4-0.2-0.6-0.6-0.6-1c0-1.2,1.5-1.4,2.3-1.4c0.3,0,0.6,0,0.9,0.1c-0.1-0.9-0.1-1.8-0.1-2.4c0-0.4,0-1.1,0-1.6s0-0.4,0-0.7
			s0-0.5,0-0.7l1,0.2c-0.1,0.6-0.2,1.2-0.3,1.8c0.2,0,0.4,0,0.6,0c0.8,0,1.6-0.1,2.4-0.4l-0.1,0.9c-0.8,0.1-1.6,0.2-2.4,0.2h-0.5
			c0,1,0,1.9,0.1,2.9c1,0.3,1.9,0.7,2.8,1.3L157.3,202.4z M153.1,200.7c-0.3,0-0.5,0-0.8,0.1c-0.3,0.1-0.5,0.3-0.5,0.6
			c0,0.7,1,0.7,1.3,0.7c1,0,1.2-0.3,1.2-0.9c0-0.1,0-0.3,0-0.4C153.8,200.8,153.4,200.7,153.1,200.7z"/>
		<path class="st5" d="M160.4,195.4c-0.3,1-0.4,2.1-0.4,3.1c0,0.2,0,0.3,0.1,0.4c0.3-0.5,0.5-1,0.7-1.5l0.4,0.4
			c-0.2,0.6-0.3,0.9-1.1,3l-0.4,0.1c-0.3-0.8-0.4-1.6-0.4-2.5c0-1.1,0.1-2.2,0.4-3.3L160.4,195.4z M164.5,195.1c0,0.2,0,0.5,0,0.7
			c0.1,1.4,0.1,1.6,0.1,2.1c0,1.3-0.3,2.6-0.9,3.8c-0.3,0.5-0.7,1-1.1,1.3l-0.7-0.5c0.6-0.4,1.1-1,1.4-1.7c0.4-0.9,0.6-1.8,0.5-2.7
			c0-1-0.1-1.9-0.3-2.9L164.5,195.1z"/>
		<path class="st5" d="M167.5,198.6c-0.4-0.3-0.9-0.7-1.4-0.9l0.3-0.6c0.5,0.2,1,0.5,1.5,0.9L167.5,198.6z M167.2,203.1
			c0,0.1,0.1,0.2,0.1,0.3c0,0.1-0.1,0.1-0.1,0.1c-0.1,0-0.1,0-0.2-0.1l-0.7-0.4c0.6-1.2,1.1-2.4,1.5-3.6l0.6,0.4
			C168.1,200.7,167.3,202.9,167.2,203.1L167.2,203.1z M168.1,195.8c-0.4-0.4-0.9-0.7-1.4-1l0.3-0.6c0.5,0.2,1,0.5,1.5,0.9
			L168.1,195.8z M171.5,199.3c-0.4,1-0.9,1.9-1.5,2.8c1.1-0.1,2.8-0.4,3.3-0.5c-0.3-0.5-0.6-0.9-0.9-1.3l0.6-0.4
			c0.7,0.9,1.4,1.8,1.9,2.9l-0.7,0.4c-0.1-0.3-0.3-0.7-0.5-1c-1.3,0.2-4,0.6-4.9,0.8c-0.1,0.1-0.2,0.3-0.3,0.3s-0.1-0.2-0.1-0.2
			l-0.3-0.8c0.3,0,0.8,0,1.1-0.1c0.6-0.9,1.1-1.9,1.4-2.9h-2.5v-0.7h3v-1.8h-2.5v-0.7h2.5v-1.8l0.8,0.1c0.1,0,0.2,0,0.2,0.1
			s-0.1,0.1-0.2,0.2v1.4h2.5v0.7h-2.5v1.8h3v0.7L171.5,199.3z"/>
		<path class="st5" d="M179.4,199.4l-0.6-0.3c0.2-0.3,0.5-0.6,0.6-0.9h-0.9v4.4c0,0.4,0,0.7-1.2,0.8l-0.3-0.8c0.2,0,0.3,0,0.5,0.1
			c0.3,0,0.3-0.2,0.3-0.3v-2.8c-0.4,0.8-0.9,1.5-1.4,2.2l-0.6-0.4c0.8-0.9,1.4-2,1.9-3.1h-1.6v-0.6h4.1l0.2,0.3
			C180.1,198.5,179.8,198.9,179.4,199.4z M178.5,196.6c0.1,0.1,0.2,0.2,0.3,0.3l-0.4,0.6c-0.4-0.5-1-0.9-1.5-1.2l0.4-0.6
			c0.1,0.1,0.4,0.3,0.7,0.5c0.2-0.2,0.6-0.5,1-0.9h-2.7v-0.6h3.6l0.2,0.3C179.6,195.6,179,196.1,178.5,196.6z M182.8,203.3l-0.3-0.8
			c0.2,0,0.4,0.1,0.7,0.1c0.3,0,0.6-0.1,0.8-0.5c0.1-0.4,0.2-0.9,0.2-1.4h-1.8c-0.3,1.2-1.1,2.1-2.2,2.7l-0.6-0.6
			c1-0.4,1.7-1.1,2.1-2.1h-2v-0.6h2.2c0.1-0.4,0.1-0.8,0.1-1.2l0.8,0.1c0.1,0,0.2,0,0.2,0.1s-0.1,0.2-0.2,0.2c0,0.2-0.1,0.5-0.1,0.7
			h2.4C184.6,203.2,184.4,203.3,182.8,203.3z M184.4,199.1c-0.6-0.2-1.2-0.5-1.7-0.9c-0.6,0.5-1.3,0.9-2,1.2l-0.5-0.6
			c0.7-0.2,1.4-0.5,2-1c-0.4-0.5-0.8-1.1-1.1-1.7c-0.2,0.3-0.4,0.7-0.7,1l-0.6-0.3c0.6-0.8,1.1-1.7,1.5-2.6l0.6,0.3
			c0,0,0.1,0.1,0.1,0.1s-0.2,0.1-0.3,0.1l-0.4,0.6h3.2v0.6H184c-0.2,0.6-0.5,1.2-0.9,1.7c0.6,0.4,1.2,0.7,1.8,0.9L184.4,199.1z
			 M181.9,196c0.2,0.4,0.4,0.8,0.8,1.2c0.3-0.4,0.5-0.8,0.6-1.2H181.9z"/>
		<path class="st5" d="M191.3,198.1v0.7h-5.2v-0.7h3.8l-0.6-0.3c0.3-0.5,0.4-1,0.6-1.5l0.6,0.3c0,0,0.1,0.1,0.1,0.1
			s-0.1,0.1-0.2,0.1c-0.1,0.4-0.3,0.9-0.5,1.3H191.3z M188.4,194.3h0.8c0,0,0.1,0,0.1,0.1s-0.1,0.2-0.2,0.2v0.8h2v0.6h-4.6v-0.6h1.9
			L188.4,194.3z M186.8,199.7h3.9v3.6H190v-0.6h-2.5v0.7h-0.7L186.8,199.7z M187.5,196.2c0.3,0.5,0.5,1,0.7,1.5l-0.6,0.3
			c-0.2-0.5-0.4-1-0.7-1.5L187.5,196.2z M190,202.1v-1.8h-2.5v1.8H190z M194.9,195.4c-0.8,1.7-1.2,2.4-1.4,2.9
			c0.9,0.6,1.4,1.6,1.4,2.7c0,1.5-1.2,1.7-2,1.8l-0.3-0.9c0.2,0,0.3,0,0.5,0c0.3,0,0.6-0.1,0.9-0.3c0.2-0.2,0.3-0.5,0.3-0.8
			c-0.1-1-0.7-2-1.5-2.6c0.5-0.8,0.9-1.7,1.3-2.6h-1.7v7.7h-0.7V195h2.8L194.9,195.4z"/>
		<path class="st5" d="M198.8,199.5c-0.3-0.3-0.5-0.6-0.6-0.9v4.8h-0.7V199c-0.3,0.8-0.7,1.6-1.2,2.3l-0.6-0.4
			c0.8-1,1.4-2.3,1.7-3.6H196v-0.7h1.4v-2.3l0.7,0.1c0.1,0,0.2,0,0.2,0.1s-0.1,0.1-0.2,0.1v2h1.1v0.7h-1c0.2,0.7,0.5,1.3,1,1.8
			L198.8,199.5z M199.9,202.8c0,0.1,0,0.3-0.1,0.3s-0.2-0.1-0.2-0.2l-0.4-0.5c0.8-0.4,1.5-1,2.2-1.6l0.2,0.6
			C200.7,202.1,200.2,202.5,199.9,202.8L199.9,202.8z M200.4,201.2c-0.3-0.3-0.6-0.6-1-0.9l0.4-0.5c0.4,0.3,0.7,0.6,1,0.9
			L200.4,201.2z M204.7,203.1c-0.5-0.3-1-0.6-1.4-1c-0.3-0.3-0.6-0.7-0.9-1.1v1.7c0,0.7-0.3,0.7-0.8,0.7H201l-0.3-0.8
			c0.1,0,0.7,0.1,0.8,0.1c0.3,0,0.3-0.1,0.3-0.3v-2.8h-2.2v-0.6h2.2V198H200v-0.6h1.8v-0.8h-2.1v-0.6h3.2l-0.5-0.3
			c0.3-0.4,0.6-0.9,0.9-1.4l0.6,0.3c0.1,0,0.2,0.1,0.2,0.2s-0.1,0.1-0.3,0.1c-0.2,0.4-0.5,0.8-0.8,1.2h1.7v0.6h-2.2v0.8h2v0.6h-2
			v0.9h2.3v0.6h-2.3v0.2c0.6,1.2,1.6,2.2,2.8,2.7L204.7,203.1z M201.1,195.9c-0.3-0.4-0.6-0.8-1-1.1l0.5-0.4c0.4,0.3,0.7,0.7,1,1.2
			L201.1,195.9z M204.6,200.5c-0.2,0.3-0.4,0.6-0.7,0.8l-0.5-0.4c0.3-0.3,0.6-0.7,0.9-1.1l0.5,0.4c0.1,0.1,0.1,0.1,0.1,0.2
			S204.8,200.5,204.6,200.5L204.6,200.5z"/>
		<path class="st5" d="M208.4,194.7c0,0.3,0.1,1.3,0.1,1.6c0,0.5,0.2,0.9,0.4,1.3c0.1,0.1,0.2,0.2,0.4,0.3l2.8-1.2l0.1,0.8
			c-1.3,0.4-2.5,0.9-3.6,1.5c-0.5,0.3-1.5,0.8-1.5,1.8c0,1.4,1.1,1.4,1.7,1.4c0.8,0,1.5-0.1,2.3-0.2c0.4,0,0.8-0.1,1.2-0.2v0.9
			c-1.1,0.1-2.2,0.2-3.3,0.2c-1.3,0-1.7-0.2-2.1-0.6c-0.4-0.4-0.6-0.9-0.6-1.4c0-0.8,0.4-1.5,1.1-2c0.4-0.3,0.7-0.5,1.1-0.7
			c-0.6-0.7-0.9-1.7-0.9-2.6c0-0.2,0-0.4-0.1-0.5c0-0.1,0-0.2-0.1-0.3L208.4,194.7z"/>
		<path class="st5" d="M216.4,194.8c-0.2,0.6-0.4,1.3-0.5,1.9c0.6,0,1.2-0.1,1.7-0.3l-0.1,0.8c-0.6,0.1-1.2,0.2-1.8,0.2
			c-0.2,0.9-0.2,1.2-0.3,1.7c0.7,0,1.5-0.1,2.2-0.3l-0.1,0.9c-0.7,0.1-1.4,0.2-2.1,0.2c0,0.3-0.1,0.6-0.1,0.9c0,0.9,0.6,1.6,1.5,1.7
			c0.1,0,0.1,0,0.2,0c1.1,0.1,2-0.8,2.1-1.9c0,0,0,0,0,0c-0.1-0.7-0.4-1.4-0.9-1.9l0.6-0.4c0.7,0.6,1,1.4,1.1,2.3
			c-0.1,1.5-1.4,2.7-2.9,2.6c-0.8,0.1-1.5-0.3-2-0.9c-0.3-0.4-0.4-1-0.4-1.5c0-0.4,0-0.7,0-0.9c-0.4,0-0.9-0.1-1.3-0.2v-0.8
			c0.5,0.2,0.9,0.2,1.4,0.3c0.1-0.5,0.2-1.4,0.3-1.7c-0.6,0-1.1-0.1-1.6-0.3v-0.7c0.6,0.2,1.1,0.3,1.7,0.4c0.2-0.7,0.2-1.5,0.3-2.2
			L216.4,194.8z"/>
		<path class="st5" d="M228.6,203.1h-0.9l-0.2-0.8c0.2,0,0.5,0.1,0.7,0.1c0.3,0,0.4-0.1,0.4-0.3v-6.5h-6.4v7.6h-0.7v-8.3h7.9v7.4
			C229.4,202.8,229.3,203.1,228.6,203.1z M223,197.4v-0.7h5v0.7H223z M224.2,201.4v0.9h-0.7v-3.8h3.9v2.8L224.2,201.4z M226.7,199.2
			h-2.5v1.5h2.5V199.2z"/>
		<path class="st5" d="M231.3,195.3h2.6v6.5h-0.7v-0.6H232v1.3h-0.7L231.3,195.3z M233.2,196H232v2h1.3L233.2,196z M233.2,198.6H232
			v2h1.3L233.2,198.6z M236.9,194.5h0.7c0.1,0,0.2,0,0.2,0.1s0,0.1-0.2,0.2v1h1.7v0.7h-1.7v1.2h2.3v0.6h-5.5v-0.6h2.4v-1.2h-1.8
			v-0.7h1.8L236.9,194.5z M234.5,199.6h3.4v-1.1l0.6,0.1c0.2,0,0.2,0,0.2,0.1s0,0.1-0.2,0.2v0.7h1.3v0.6h-1.3v2.3
			c0,0.4-0.1,0.7-0.5,0.7c-0.4,0-0.7,0-1.1,0l-0.3-0.8c0.2,0,0.4,0,0.7,0.1c0.5,0,0.5-0.2,0.5-0.4v-1.9h-3.4V199.6z M235.6,200.7
			c0.4,0.4,0.7,0.8,0.9,1.3l-0.6,0.4c-0.2-0.5-0.5-0.9-0.8-1.3L235.6,200.7z"/>
		<path class="st5" d="M242.8,195.4c-0.3,0.6-0.4,1.3-0.5,2c-0.1,0.7-0.2,1.3-0.2,2c0,0.5,0,1,0.1,1.4c0,0.3,0.1,0.3,0.1,0.5
			c0.1-0.3,0.2-0.5,0.5-1.5l0.6,0.4c-0.3,0.7-0.5,1.5-0.6,2.3l-0.6,0.1c-0.4-1-0.7-2.1-0.6-3.2c0-0.9,0.1-1.7,0.2-2.6
			c0.2-0.9,0.2-1,0.3-1.3l0.1-0.6L242.8,195.4z M244.9,199.9c0,0.1,0,0.6,0,0.7c0.2,0.7,0.8,0.8,1.5,0.8c0.8,0,1.7-0.1,2.5-0.4v0.8
			c-0.8,0.2-1.7,0.3-2.5,0.3c-1.3,0-2.1-0.1-2.1-2L244.9,199.9z M244.6,195.8c0.5,0.1,1,0.1,1.4,0.1c0.8,0,1.6-0.2,2.4-0.4v0.8
			c-1.1,0.2-2.2,0.3-3.3,0.3c-0.2,0-0.3,0-0.5,0L244.6,195.8z"/>
		<path class="st5" d="M251,197.1c0,0.8-0.2,1.6-0.4,2.4l-0.7-0.2c0.3-0.8,0.4-1.7,0.5-2.6l0.6,0.1c0.1,0,0.2,0,0.2,0.1
			S251.1,197.1,251,197.1z M252.1,194.7v8.7h-0.7v-9.1l0.8,0.1c0.1,0,0.1,0.1,0.1,0.1S252.1,194.6,252.1,194.7z M252.7,197.6
			c-0.1-0.5-0.2-1-0.4-1.4l0.6-0.2c0.2,0.5,0.3,0.9,0.4,1.4L252.7,197.6z M253.1,198.1v-0.6h2.6v-0.6h-1.9v-0.6h1.9v-0.6h-2.3v-0.6
			h2.3v-0.9l0.8,0.1c0.2,0,0.2,0.1,0.2,0.1s-0.1,0.1-0.2,0.2v0.5h2.4v0.6h-2.4v0.6h2.1v0.6h-2.1v0.6h2.7v0.6L253.1,198.1z
			 M256.9,203.4l-0.4-0.8h0.7c0.2,0,0.4-0.1,0.4-0.4v-0.5h-2.9v1.7H254v-4.7h4.3v3.8C258.3,203.2,258.2,203.3,256.9,203.4z
			 M257.6,199.3h-2.9v0.6h2.9V199.3z M257.6,200.4h-2.9v0.6h2.9V200.4z"/>
		<path class="st5" d="M260.1,197.7v-0.6h2.1v-0.9h-1.7v-0.6h1.7v-1.2l0.7,0.1c0,0,0.2,0,0.2,0.1s-0.1,0.1-0.2,0.2v0.9h1.6v0.6h-1.6
			v0.9h2v0.6H260.1z M262.9,200v1.1h1.7v0.6h-1.7v1.6h-0.7v-1.6h-1.6v-0.6h1.6V200h-1.9v-0.6h3.3l-0.5-0.3c0.3-0.4,0.5-0.9,0.7-1.4
			l0.6,0.3c0,0,0.1,0.1,0.1,0.1s-0.1,0.1-0.2,0.1c-0.2,0.4-0.3,0.8-0.6,1.2h1v0.6L262.9,200z M261.5,199.3c-0.2-0.4-0.4-0.8-0.6-1.2
			l0.5-0.3c0.3,0.4,0.6,0.8,0.7,1.3L261.5,199.3z M268.8,203.2c-0.4-0.3-0.8-0.6-1.1-1c-0.3,0.4-0.6,0.7-1,1l-0.6-0.5
			c0.4-0.3,0.8-0.6,1.1-1.1c-0.4-0.7-0.7-1.4-0.9-2.1l0.5-0.3c0.1,0.6,0.4,1.2,0.8,1.8c0.3-0.7,0.5-1.4,0.6-2.2H266v4.6h-0.7v-8.6
			h3.5c0,2.7,0,2.8-1.5,2.8l-0.3-0.7c1.2,0,1.2,0,1.2-1.5H266v2.8h2.6l0.3,0.2c-0.1,1.1-0.3,2.1-0.8,3.1c0.4,0.4,0.8,0.7,1.2,1
			L268.8,203.2z"/>
		<path class="st5" d="M270.2,200.2v-0.7h2.5v-2.2h-2v-0.7h2v-2.1l0.7,0.1c0.1,0,0.2,0.1,0.2,0.1s0,0.1-0.2,0.2v1.6h2.1v-2.1
			l0.7,0.1c0.1,0,0.2,0.1,0.2,0.1s0,0.1-0.2,0.2v1.7h2v0.7h-2v2.2h2.6v0.7L270.2,200.2z M273.5,201.3c-0.6,0.9-1.5,1.5-2.4,2
			l-0.6-0.6c1.1-0.4,2-1.2,2.6-2.1l0.6,0.4c0.1,0.1,0.1,0.1,0.1,0.1S273.7,201.2,273.5,201.3z M275.6,197.3h-2.1v2.2h2.1V197.3z
			 M277.9,203.3c-1-0.6-1.8-1.5-2.5-2.4l0.7-0.4c0.7,0.9,1.5,1.7,2.5,2.2L277.9,203.3z"/>
		<path class="st5" d="M283.8,196.5c-0.2,0.4-0.4,0.7-0.6,1.1h4.3v4.7c0,1-0.3,1-1.6,1l-0.4-0.8l1,0.1c0.4,0,0.4-0.1,0.4-0.3v-0.8
			h-3.5v1.8h-0.7v-5c-0.6,0.8-1.4,1.4-2.2,2l-0.5-0.6c1.3-0.8,2.4-2,3.1-3.4h-2.9v-0.7h3.3c0.2-0.5,0.4-1,0.5-1.6l0.8,0.2
			c0,0,0.2,0.1,0.2,0.2s-0.1,0.1-0.3,0.1c-0.1,0.3-0.3,0.7-0.4,1h4.9v0.7L283.8,196.5z M286.8,198.2h-3.5v1h3.5L286.8,198.2z
			 M286.8,199.9h-3.5v1h3.5L286.8,199.9z"/>
		<path class="st5" d="M290,197.7c0.7-0.1,1.4-0.3,2.1-0.5c0.1-0.7,0.2-1.4,0.1-2.1l0.9,0.3c-0.1,0.4-0.1,0.7-0.3,1.5
			c0.3-0.1,0.5-0.1,0.8-0.1c0.6,0,1.4,0.4,1.4,1.9c0,1-0.2,2.1-0.6,3c-0.2,0.5-0.8,0.8-1.3,0.8h-0.5l-0.3-0.8c0.3,0,0.6,0.1,0.8,0.1
			c0.2,0,0.6,0,0.9-0.7c0.2-0.7,0.4-1.5,0.4-2.2c0-0.6-0.1-1.4-0.8-1.4c-0.3,0-0.5,0.1-0.8,0.1c-0.4,1.8-1,3.5-2,5l-0.8-0.4
			c0.5-0.6,1-1.4,1.3-2.2c0.3-0.7,0.6-1.5,0.7-2.2l-1,0.4c-0.2,0.1-0.4,0.2-0.7,0.2L290,197.7z M295.5,195.8
			c0.5,0.5,1.9,1.7,1.9,2.8c0,0.7-0.6,0.8-1.1,1l-0.4-0.8c0.3,0,0.7,0,0.7-0.3c0-0.2-0.1-0.5-0.3-0.6c-0.4-0.6-0.8-1.1-1.3-1.5
			L295.5,195.8z M297.2,196.3c-0.3-0.3-0.6-0.6-0.9-0.9l0.5-0.4c0.4,0.3,0.7,0.5,1,0.9L297.2,196.3z M297.8,194.4
			c0.3,0.2,0.7,0.5,0.9,0.8l-0.5,0.4c-0.3-0.3-0.6-0.6-0.9-0.8L297.8,194.4z"/>
		<path class="st5" d="M302.5,195.1h-0.3c-0.7,0.7-1.5,1.4-2.4,2l-0.5-0.5c1-0.6,1.9-1.4,2.6-2.2l0.6,0.6
			C302.5,194.9,302.5,195,302.5,195.1C302.5,195.1,302.5,195.1,302.5,195.1z M302.3,197c-0.2,0.4-0.5,0.8-0.8,1.1
			c0,0,0.2,0.1,0.2,0.2s0,0.1-0.2,0.2v4.9h-0.7v-4.5c-0.3,0.4-0.6,0.7-1,1l-0.5-0.6c1.1-0.9,2-2,2.6-3.2l0.6,0.5
			c0,0,0.1,0.1,0.1,0.1S302.4,197,302.3,197L302.3,197z M306.3,198.4v4.2c0,0.5-0.2,0.7-0.3,0.8s-0.3,0.1-1.4,0.1l-0.2-0.8
			c0.3,0,0.6,0.1,0.9,0.1c0.2,0,0.3,0,0.3-0.3v-4h-3.1v-0.7h5.6v0.7L306.3,198.4z M303,195.5v-0.7h4.6v0.7H303z"/>
		<path class="st5" d="M311.9,194.9c0,0.5-0.1,1.1-0.1,1.7c0.2-0.1,0.4-0.2,0.6-0.3l0.3,0.3c-0.3,0.4-0.5,0.8-0.7,1.1
			c0.6-0.5,1.4-0.7,2.2-0.7c1.3-0.1,2.4,0.9,2.5,2.1c0,0.1,0,0.2,0,0.3c0,1.1-0.6,2.1-1.5,2.7c-0.3,0.2-0.7,0.4-1.1,0.5l-0.6-0.6
			c0.7-0.1,1.3-0.5,1.9-0.9c0.5-0.4,0.7-1,0.7-1.7c0.1-0.9-0.6-1.7-1.5-1.8c-0.1,0-0.2,0-0.3,0c-1,0.1-1.9,0.6-2.5,1.3
			c0,0.5,0,0.7,0,1.1c0,0.9,0,1.6,0.1,2.9h-0.8c0-0.2,0-0.3,0-0.6c0.1-1.5,0.1-1.7,0.1-2.7c-0.4,0.5-0.7,1-1.3,1.8l-0.6-0.5
			c0.7-0.8,1.3-1.7,1.9-2.6c0-0.1,0-0.7,0-0.9c-0.5,0.1-1.3,0.3-1.6,0.3V197c0.6,0,1.1-0.1,1.6-0.3c0-1.1,0-1.3,0-2L311.9,194.9z"/>
		<path class="st5" d="M325.8,201.3c-0.4,0.5-1,1-1.6,1s-1-0.6-1-1.8c0-0.5,0-1.6,0.1-2.1c0-0.1,0-0.4,0-0.6s-0.1-0.7-0.5-0.7
			c-0.6,0-1.2,0.6-2.3,2.1c0,0.2,0,0.4,0,1c0,1.1,0,1.4,0.1,2.7h-0.8c0-0.5,0.1-1.1,0.1-2.6c-0.6,0.9-0.7,1.1-1,1.5l-0.6-0.4
			c0.6-0.8,1.2-1.6,1.6-2.5v-1c-0.3,0.1-0.9,0.4-1.5,0.5l-0.3-0.7c0.6-0.1,1.2-0.3,1.8-0.5c0-0.6,0-1.3,0-1.9c0-0.1,0-0.3,0-0.4
			l0.9,0.1c0,0.3-0.1,1.1-0.1,1.9c0.1,0,0.2-0.1,0.3-0.2l0.4,0.4c-0.1,0.2-0.4,0.8-0.5,1c0.7-0.9,1.4-1.6,2.3-1.6s1,0.8,1,1.4
			c0,0.1,0,0.3,0,0.7c-0.1,1.1-0.1,1.2-0.1,1.6c0,1,0,1.4,0.4,1.4s0.7-0.3,1.2-1L325.8,201.3z"/>
		<path class="st5" d="M332.9,198.5c-0.8,0.2-1.6,0.3-2.3,0.3c0,0.3,0.1,0.9,0.1,1.7c0.9,0.2,1.7,0.5,2.5,0.9l-0.3,0.7
			c-0.6-0.5-1.3-0.8-2.1-1c0,0.7,0,1.6-1.5,1.6s-2.1-0.7-2.1-1.3c0-0.8,0.9-1.1,2-1.1c0.2,0,0.4,0,0.9,0.1c0-0.3-0.2-1.4-0.2-1.6
			c-0.2,0-0.4,0-0.8,0c-0.7,0-1.7,0-1.7-0.6s0.5-0.7,0.9-1l0.4,0.3c-0.1,0.1-0.2,0.2-0.3,0.3c-0.1,0.1-0.1,0.1-0.1,0.2
			s0.3,0.2,1.1,0.2c0.1,0,0.4,0,0.5,0c0-0.5,0-0.6-0.1-1.5l-2.9,0.2l-0.1-0.7c0.5,0,1.3,0,2.9,0c0-0.2,0-0.4,0-0.7
			c0-0.3,0-0.6,0-0.9l0.9,0.2c-0.1,0.4-0.2,0.9-0.2,1.3c0.5,0,1.6-0.1,2.8-0.1v0.7c-0.3,0-0.7-0.1-1-0.1c-0.7,0-1.4,0-1.7,0.1
			c0,0.2,0,1,0.1,1.4c0.8-0.1,1.6-0.3,2.4-0.5L332.9,198.5z M329.1,201c-0.7,0-1.2,0.2-1.2,0.6s0.9,0.6,1.4,0.6
			c0.8,0,0.9-0.4,0.9-1.1C329.8,201,329.4,201,329.1,201z"/>
		<path class="st5" d="M339.2,194.7c-0.1,0.5-0.1,1-0.1,1.5c1.1-0.1,2.1-0.1,3-0.3l0.1,0.8c-1.4,0-2.4,0.1-3,0.1c0,0.3,0,1.4,0,1.7
			c0.2,0.4,0.3,0.9,0.3,1.4c0,0.9-0.3,1.7-0.8,2.5c-0.2,0.3-0.5,0.6-0.8,0.9l-0.8-0.3c0.6-0.5,1.1-1.1,1.4-1.9
			c-0.2,0.1-0.5,0.2-0.7,0.2c-0.6,0-1.2-0.6-1.2-1.7c0-1.3,0.8-1.9,1.4-1.9c0.2,0,0.3,0,0.5,0.1v-0.9c-1.1,0.1-2.7,0.2-3.9,0.3
			l0-0.7c1.1-0.1,2.9-0.2,4-0.3c0-0.6,0-1.1,0-1.7L339.2,194.7z M337.2,199.5c0,0.7,0.4,1,0.7,1s0.7-0.5,0.7-1.1c0-0.3-0.1-1-0.6-1
			C337.6,198.4,337.2,198.8,337.2,199.5L337.2,199.5z"/>
		<path class="st5" d="M346.4,201.8c0,0.9-0.7,1.5-1.5,1.5c-0.9,0-1.5-0.7-1.5-1.5c0-0.9,0.7-1.5,1.5-1.5S346.4,201,346.4,201.8
			L346.4,201.8z M343.7,201.8c0,0.6,0.5,1.1,1.1,1.1c0.6,0,1.1-0.5,1.1-1.1s-0.5-1.1-1.1-1.1l0,0
			C344.2,200.7,343.7,201.2,343.7,201.8z"/>
	</g>
</g>
<rect x="461" y="103" class="st4" width="2.2" height="0.9"/>
</svg>
