<?xml version="1.0" encoding="utf-8"?>
<!-- Generator: Adobe Illustrator 26.1.0, SVG Export Plug-In . SVG Version: 6.00 Build 0)  -->
<svg version="1.1" id="レイヤー_1" xmlns="http://www.w3.org/2000/svg" xmlns:xlink="http://www.w3.org/1999/xlink" x="0px"
	 y="0px" viewBox="0 0 300 56" style="enable-background:new 0 0 300 56;" xml:space="preserve">
<style type="text/css">
	.st0{fill:#FFFFFF;}
	.st1{font-family:'FolkPro-Medium-83pv-RKSJ-H';}
	.st2{font-size:8px;}
</style>
<g>
	<g>
		<path class="st0" d="M13.1,38.8h-1l0.8-2c0.2-0.5,0.3-0.7,0.3-0.7c0-0.1,0-0.2,0-0.3c-0.1-0.1-0.2-0.1-0.3-0.1
			c-0.2,0-0.4,0-0.7,0.2c-0.2,0.2-0.5,0.4-0.6,0.6c-0.1,0.2-0.2,0.5-0.4,0.9l-0.6,1.4h-1l1.6-3.9h1l-0.1,0.2c0.1,0,0.1-0.1,0.2-0.1
			c0.3-0.1,0.6-0.2,0.9-0.2c0.3,0,0.6,0.1,0.8,0.3c0.2,0.2,0.3,0.4,0.3,0.7c0,0.3-0.1,0.6-0.3,1.1L13.1,38.8z"/>
		<path class="st0" d="M15.8,38.9c-0.6,0-1-0.2-1.2-0.6c-0.2-0.4-0.2-0.9,0-1.5c0.2-0.5,0.6-1,1.1-1.4c0.5-0.4,1.1-0.6,1.6-0.6
			c0.3,0,0.6,0.1,0.8,0.2c0.1,0.1,0.1,0.1,0.2,0.2l2.6-6.2h1l-4.1,9.7h-1l0.1-0.2c-0.1,0-0.1,0.1-0.2,0.1
			C16.4,38.8,16.1,38.9,15.8,38.9 M17.2,35.7c-0.2,0-0.4,0.1-0.6,0.2c-0.2,0.1-0.4,0.3-0.6,0.5c-0.2,0.2-0.3,0.4-0.4,0.6
			c-0.1,0.2-0.1,0.4-0.1,0.6c0,0.2,0.1,0.3,0.2,0.4c0.1,0.1,0.3,0.1,0.4,0.1c0.2,0,0.4-0.1,0.7-0.2c0.2-0.1,0.4-0.3,0.6-0.4
			c0.2-0.2,0.3-0.4,0.4-0.6c0.1-0.3,0.1-0.6,0-0.8C17.7,35.9,17.6,35.7,17.2,35.7"/>
		<path class="st0" d="M20.7,38.9c-0.7,0-1.1-0.2-1.3-0.7c-0.2-0.4-0.2-0.9,0-1.4c0.2-0.5,0.5-0.9,0.9-1.2c0.6-0.5,1.1-0.7,1.8-0.7
			c0.9,0,1.2,0.4,1.3,0.8c0.1,0.4,0.1,0.8-0.1,1.3l-0.1,0.1h-3c-0.1,0.3-0.1,0.5,0,0.6c0.1,0.1,0.2,0.3,0.5,0.3c0.1,0,0.3,0,0.5-0.1
			c0.2-0.1,0.3-0.1,0.5-0.2c0,0,0.1,0,0.1-0.1c0.1,0,0.1,0,0.2-0.2l0.1-0.1h1.1l-0.4,0.4c-0.2,0.3-0.5,0.5-0.7,0.6
			c-0.2,0.2-0.5,0.3-0.7,0.4C21.2,38.8,20.9,38.9,20.7,38.9 M20.8,36.3h1.8c0-0.1,0-0.2,0-0.2c0-0.1-0.1-0.2-0.2-0.2
			c-0.1-0.1-0.2-0.1-0.4-0.1c-0.3,0-0.6,0.1-0.9,0.3C21,36.1,20.9,36.2,20.8,36.3"/>
		<path class="st0" d="M29,38.8h-1l0.9-2.2c0.2-0.5,0.2-0.6,0.2-0.7c0-0.1-0.1-0.2-0.3-0.3c-0.2,0-0.4,0-0.6,0.1
			c-0.2,0.1-0.3,0.3-0.5,0.5c-0.1,0.2-0.3,0.6-0.5,1l-0.6,1.5h-1l0.9-2.1c0.2-0.5,0.3-0.7,0.3-0.8c0-0.1,0-0.1,0-0.2
			c-0.1-0.1-0.2-0.1-0.3-0.1c-0.2,0-0.3,0-0.5,0.1c-0.2,0.1-0.3,0.2-0.5,0.5c-0.1,0.2-0.3,0.5-0.5,0.9l-0.7,1.6h-1l1.6-3.9h1
			L25.9,35c0,0,0,0,0,0c0.3-0.2,0.6-0.2,0.9-0.2c0.2,0,0.4,0,0.5,0.1c0.2,0.1,0.3,0.2,0.4,0.4c0,0,0,0,0,0.1
			c0.2-0.1,0.3-0.2,0.5-0.3c0.3-0.2,0.6-0.2,0.9-0.2c0.3,0,0.5,0.1,0.7,0.2c0.2,0.2,0.3,0.4,0.3,0.7c0,0.2-0.1,0.6-0.3,1L29,38.8z"
			/>
		<path class="st0" d="M43.1,38.8h-1l1.8-4.3h1L44.7,35c0.2-0.1,0.4-0.2,0.6-0.2c0.6,0,0.8,0.3,0.8,0.4l0.1,0.2l-0.7,0.7
			c0,0,0-0.1-0.1-0.2c-0.1-0.1-0.2-0.1-0.4-0.1c-0.1,0-0.3,0-0.4,0.1c-0.2,0.1-0.3,0.2-0.4,0.5c-0.1,0.2-0.3,0.6-0.5,1.1L43.1,38.8z
			"/>
		<polygon class="st0" points="46.4,38.8 45.5,38.8 47.1,34.9 48.1,34.9 		"/>
		<path class="st0" d="M47.8,34.6c-0.2,0-0.3-0.1-0.4-0.2c0-0.1-0.1-0.2,0-0.4c0-0.1,0.1-0.2,0.2-0.3c0.1-0.1,0.2-0.1,0.4-0.1
			c0.2,0,0.3,0.1,0.4,0.2c0,0.1,0.1,0.2,0,0.4c-0.1,0.1-0.1,0.2-0.3,0.3C48,34.6,47.9,34.6,47.8,34.6"/>
		<path class="st0" d="M50.8,38.8h-1l0.8-2c0.2-0.5,0.3-0.7,0.3-0.7c0-0.1,0-0.4-0.3-0.4c-0.2,0-0.5,0-0.8,0.1
			c-0.2,0.2-0.4,0.4-0.6,0.7c-0.1,0.1-0.2,0.3-0.4,0.9l-0.6,1.4h-1l1.6-3.9h1l-0.1,0.2c0.1,0,0.1-0.1,0.2-0.1
			c0.3-0.1,0.6-0.2,0.9-0.2c0.3,0,0.6,0.1,0.8,0.3c0.2,0.2,0.3,0.4,0.3,0.7c0,0.3-0.1,0.6-0.3,1.1L50.8,38.8z"/>
		<polygon class="st0" points="52.8,38.8 51.8,38.8 53.1,35.8 52.5,35.8 52.9,34.9 53.5,34.9 54,33.7 54.9,33.7 54.4,34.9 
			55.1,34.9 54.8,35.8 54.1,35.8 		"/>
		<path class="st0" d="M8.5,38.8c-0.1-0.1-0.1-0.3-0.1-0.4c0-0.3,0.2-0.7,0.2-0.7c0,0,1.6-3.7,1.6-3.7H9.1L9,34.1
			c-0.1-0.5-0.3-0.7-0.7-1c-0.2-0.1-0.4-0.2-0.7-0.3l-0.4,1c0.4,0.1,0.7,0.4,0.9,0.7c0.3,0.6,0.3,1.3-0.1,2.1
			c-0.2,0.6-0.6,1.1-1,1.5c-0.4,0.4-0.9,0.8-1.5,1.1c-0.6,0.3-1.1,0.4-1.6,0.4c-0.5,0-0.9-0.1-1.3-0.4c-0.3-0.3-0.5-0.6-0.6-1.1
			c-0.1-0.5,0-1,0.2-1.5c0.2-0.5,0.6-1,1-1.5c0.5-0.5,1-0.8,1.5-1.1c0.1-0.1,0.3-0.1,0.4-0.2l0.4-1c-0.7,0.2-1.3,0.5-2,1
			c-1.1,0.8-1.8,1.7-2.3,2.7c-0.5,1.1-0.5,2,0,2.8c0.4,0.8,1.2,1.1,2.2,1.1c0.6,0,1.2-0.1,1.8-0.4c0.5-0.2,1.2-0.6,1.7-1
			c0,0.3,0.1,0.5,0.3,0.6c0.2,0.2,0.5,0.3,0.8,0.4l1-1C9.1,39.2,8.7,39.1,8.5,38.8"/>
		<polygon class="st0" points="5.1,37.8 4,37.8 7.5,29.2 8.7,29.2 		"/>
		<polygon class="st0" points="10.6,30.1 4.7,30.1 5.1,29.1 11,29.1 		"/>
		<path class="st0" d="M39.1,35c0-0.2-0.1-0.3-0.2-0.4c-0.1-0.1-0.4-0.3-0.6-0.4L37.9,35c0,0,0.2,0.1,0.4,0.2c0,0.1,0.1,0.1,0.1,0.2
			c0,0.2-0.1,0.4-0.1,0.4c0,0-0.9,2.1-0.9,2.1l0.6,0l0-0.1L39.1,35z"/>
		<path class="st0" d="M37.1,38.1l0.1-0.2c0,0,0.9-2.1,0.9-2.1c0-0.1,0.1-0.2,0.1-0.4c0-0.1,0-0.1,0-0.1c-0.1-0.1-0.2-0.1-0.3-0.2
			l-0.2-0.1l0.5-1l0.1,0c0.3,0.1,0.6,0.3,0.7,0.4c0.1,0.1,0.2,0.2,0.2,0.5v0l-1.3,3.1L37.1,38.1z"/>
		<path class="st0" d="M40.1,38.9c-0.8,0.2-1.3-0.1-1.6-0.4c-0.4-0.4-0.5-0.9-0.5-1.6c0-0.4,0.2-0.8,0.4-1.1
			c0.2-0.4,0.5-0.7,0.8-0.9c0.3-0.3,0.7-0.5,1-0.6c0.4-0.1,0.8-0.1,1.1,0c0.4,0.1,0.6,0.4,0.8,0.8c0.1,0.3,0.2,0.7,0.1,1.1
			c0,0.4-0.2,0.8-0.4,1.1c-0.2,0.4-0.5,0.7-0.8,1C40.8,38.6,40.5,38.8,40.1,38.9 M40.4,35c-0.2,0.1-0.5,0.2-0.7,0.4
			c-0.2,0.2-0.4,0.4-0.6,0.7c-0.1,0.3-0.2,0.5-0.3,0.8c0,0.4,0,0.7,0.2,1c0.2,0.2,0.5,0.3,0.8,0.2l0,0c0.2-0.1,0.5-0.2,0.7-0.4
			c0.2-0.2,0.4-0.4,0.6-0.7c0.1-0.3,0.2-0.6,0.3-0.8c0-0.3,0-0.5-0.1-0.7c-0.1-0.2-0.2-0.3-0.4-0.4C40.8,35,40.6,35,40.4,35L40.4,35
			L40.4,35z"/>
		<path class="st0" d="M16.8,29.8V27h0c0.1-1.7-0.8-3.1-2.4-3.5c-1.2-0.3-2.6,0-3.4,0.7c-1,0.9-1.2,1.9-1.2,2.9H7.4L7,28h3.7l0-0.5
			c0-1.2,0.2-1.9,0.9-2.6c0.5-0.5,1.5-0.8,2.5-0.5c1,0.3,1.6,1,1.6,2.1l-3.5,0.2l2.1,4.6l0.9-0.4l-1.5-3.3l2-0.1v2.6l2.4,4.1
			l0.5-1.2L16.8,29.8z"/>
		<path class="st0" d="M8.8,25.9c0.1-0.7,0.4-1.5,1.2-2.1c0.4-0.4,1.1-0.7,1.8-0.8c-0.7-0.1-3.3-0.5-4.2,0.8
			C6.9,24.7,7.2,26,8.8,25.9 M8.2,24.3c0.1-0.2,0.3-0.3,0.6-0.4c-0.3,0.3-0.4,0.7-0.6,1.1c-0.1,0-0.1-0.1-0.2-0.1
			C8,24.8,8,24.5,8.2,24.3"/>
		<path class="st0" d="M31,29.8V27h0c0.1-1.7-0.8-3.1-2.4-3.5c-1.2-0.3-2.6,0-3.4,0.7c-1,0.9-1.2,1.9-1.2,2.9h-2.4l-0.4,1h3.7l0-0.5
			c0-1.2,0.2-1.9,0.9-2.6c0.5-0.5,1.5-0.8,2.5-0.5c1,0.3,1.6,1,1.6,2.1l-3.5,0.2l2.1,4.6l0.9-0.4L28,27.6l2-0.1v2.6l2,4.9l0.5-1.2
			L31,29.8z"/>
		<path class="st0" d="M23,25.9c0.1-0.7,0.4-1.5,1.2-2.1c0.4-0.4,1.1-0.7,1.8-0.8c-0.7-0.1-3.3-0.5-4.2,0.8C21,24.7,21.3,26,23,25.9
			 M22.3,24.3c0.1-0.2,0.3-0.3,0.6-0.4c-0.3,0.3-0.5,0.7-0.6,1.1c-0.1,0-0.1-0.1-0.2-0.1C22.1,24.8,22.2,24.5,22.3,24.3"/>
		<path class="st0" d="M33.6,39.5c-0.3,0-0.5,0-0.8-0.1c-1-0.3-1.6-0.8-2-1.8l0,0l1-0.5l0,0c0.3,0.6,0.8,1.1,1.3,1.2
			c0.2,0,0.3,0.1,0.5,0.1c0.8,0,1.3-0.4,1.5-1.2c0.2-0.8-0.1-1.3-0.5-1.9c0,0-0.1-0.1-0.1-0.2c-0.2-0.2-0.5-0.6-0.8-1.1
			c-0.5-0.8-0.5-1.6-0.1-2.3c0.6-1.1,1.6-1.2,2.1-1.2c0.2,0,0.5,0,0.7,0.1c1.1,0.2,1.6,1.3,1.7,1.6l0,0l-0.7,0.3l0,0
			c-0.2-0.5-0.6-0.9-1.2-1c-0.1,0-0.2,0-0.4,0c-0.8,0-1.4,0.5-1.5,1.2c-0.1,0.6,0.3,1.2,0.8,1.7c1,1.2,1.3,2.2,1,3.2
			C35.8,38.8,34.8,39.5,33.6,39.5"/>
		<path class="st0" d="M33.6,39.4c-0.3,0-0.5,0-0.8-0.1c-0.9-0.3-1.5-0.8-2-1.7l1-0.4c0.3,0.6,0.8,1.1,1.3,1.2
			c0.2,0,0.3,0.1,0.5,0.1c0.8,0,1.4-0.5,1.6-1.2c0.2-0.8-0.1-1.4-0.5-1.9c0,0-0.1-0.1-0.1-0.2c-0.2-0.2-0.5-0.6-0.8-1.1
			c-0.5-0.8-0.5-1.6-0.1-2.3c0.6-1,1.6-1.2,2.1-1.2c0.2,0,0.4,0,0.7,0.1c1.1,0.2,1.6,1.2,1.7,1.6l-0.7,0.3c-0.2-0.5-0.6-0.9-1.2-1.1
			c-0.1,0-0.2,0-0.4,0c-0.8,0-1.5,0.5-1.6,1.2c-0.1,0.6,0.3,1.2,0.8,1.8c1,1.2,1.3,2.2,1,3.2C35.8,38.7,34.8,39.4,33.6,39.4"/>
		<polygon class="st0" points="36.9,40.5 39.3,35.1 38.5,34.8 36,40.5 		"/>
	</g>
	<g>
		<g>
			<path class="st0" d="M54.7,2.2C54.7,2.1,54.6,2.1,54.7,2.2c-10.8,3.8-16.6,9.1-19.6,12.9c-3.3,4.1-4,7.4-4,7.5
				c0,0.2-0.1,0.5,0.1,0.5c0,0,0,0,0,0c0.1,0,0.3-0.3,0.3-0.4c2.1-4.7,4.1-5.5,6.8-6.6c0.2-0.1,0.3-0.1,0.5-0.2
				c2.9-1.2,5.2-2.8,5.2-2.8c0.8-0.6,1.6-1.2,2.4-1.8c0,0,0-0.1,0-0.1c0,0,0-0.1-0.1-0.1c-1.6,0.1-4.5,0.4-7.6,2.1
				c1.5-1.2,5.1-3.6,10.7-4.7c0,0,0,0,0,0C53.4,4.9,54.7,2.3,54.7,2.2C54.7,2.2,54.7,2.2,54.7,2.2z"/>
			<path class="st0" d="M49.4,17.1c-0.4-0.8-1.4-1.2-2.9-1.2c-2.1,0-5,0.8-7.9,2.1c-0.1,0-0.1,0.1-0.1,0.2c0,0.1,0.1,0.1,0.2,0.1
				c1.5-0.5,2.9-0.7,4.1-0.7c1.4,0,2.4,0.4,2.7,1.1c0.4,0.8-0.1,2-1.3,3.3c-1.3,1.3-3.2,2.7-5.3,3.7c-1.8,0.8-4.9,1.8-6.5,2
				c-0.1,0-0.1,0.1-0.1,0.1c0,0.1,0.1,0.1,0.1,0.1c0,0,0,0,0,0c3.1-0.4,5.7-1.2,8.8-2.6c2.6-1.2,4.9-2.7,6.4-4.3
				C49.3,19.4,49.9,18,49.4,17.1z"/>
			<path class="st0" d="M56.2,15.3c-0.6-1.3-2.3-2-4.8-2c-2.3,0-5.1,0.5-8,1.5c-0.2,0.1-0.2,0.1-0.2,0.2c0,0.1,0.1,0.1,0.2,0.1
				c0,0,0.1,0,0.1,0c1.7-0.5,3.4-0.7,4.8-0.7c2.1,0,3.5,0.6,4,1.6c0.6,1.2-0.1,2.9-1.9,4.8c-1.8,1.9-4.6,3.8-7.8,5.4
				c-5.1,2.5-9.6,2.7-10,2.7c-0.6,0.1-0.6,0.1-0.6,0.2c0,0.1,0,0.1,0.7,0.1l0.1,0c0,0,0,0,0,0c4.2,0,7.8-0.9,12.1-2.8
				C52.3,23.3,57.5,18.2,56.2,15.3z"/>
		</g>
	</g>
</g>
<g>
	<g>
		<path class="st0" d="M63.3,19.1l1.1,0.1c0,0,0.1,0,0.1,0.1c0,0-0.1,0.1-0.1,0.2v1.2h1.9v-0.9c0-0.2,0-0.3-0.1-0.6l1,0
			c0,0,0.1,0,0.1,0.1c0,0.1,0,0.1-0.1,0.2v1.2h2.4V21h-2.4v3.6h-1V21h-1.9c-0.1,0.9-0.2,2.7-3,3.6L61,24.3c1.7-0.7,2.2-1.5,2.3-3.2
			h-2.6v-0.4h2.6v-0.8C63.4,19.6,63.4,19.3,63.3,19.1z M67.1,16.2c1,0.8,1.9,1.6,2.7,2.6l-0.9,0.7c-0.1-0.3-0.2-0.6-0.6-1.1
			c-1.4,0.2-5,0.4-6.9,0.5c0,0-0.1,0.1-0.2,0.1c0,0-0.1,0-0.1-0.1l-0.3-0.8c0.3,0,0.8,0.1,1.9,0.1c0.6-0.8,1.4-1.8,1.7-2.6l1.2,0.4
			c0,0,0.1,0,0.1,0.1c0,0.1-0.1,0.1-0.3,0.2c-0.6,0.8-1.4,1.6-1.7,1.9c2.1-0.1,2.4-0.1,4.3-0.2c-0.5-0.7-1-1.2-1.2-1.4L67.1,16.2z"
			/>
		<path class="st0" d="M74.4,17.3v0.4h-3.2v-0.4H74.4z M74.2,16v0.4h-2.6V16H74.2z M74.2,18.7v0.4h-2.6v-0.4H74.2z M74.2,20.1v0.4
			h-2.6v-0.4H74.2z M74.3,21.4v2.8h-1.9v0.4h-0.8v-3.2H74.3z M72.4,21.9v1.9h1.1v-1.9H72.4z M79.6,19.1v0.4H78v0.6h1.6v0.4H78v0.6
			h2.3v0.4h-5v-2.5c-0.3,0.3-0.5,0.5-0.8,0.7l-0.3-0.3c1.1-1.1,1.2-1.8,1.3-2.1l0.9,0.3c0,0,0.1,0,0.1,0.1c0,0,0,0.1-0.1,0.2
			C76.1,18,76.1,18,76,18.1h0.9c0.3-0.5,0.3-0.7,0.4-0.8l0.9,0.3c0.1,0,0.1,0,0.1,0.1c0,0-0.1,0.1-0.2,0.1c-0.2,0.2-0.3,0.2-0.4,0.4
			H80v0.4h-2v0.5H79.6z M80.1,24.6c-1-0.1-2-0.4-2.6-0.7c-0.9,0.4-1.8,0.6-2.7,0.7l-0.3-0.4c0.9-0.1,1.7-0.3,2.4-0.6
			c-0.2-0.1-0.7-0.4-1.1-0.9l0.7-0.3h-1.8V22h5.1v0.3c-0.4,0.5-0.9,0.9-1.5,1.3c1,0.4,1.8,0.5,2.2,0.6L80.1,24.6z M75.9,16.1
			c0-0.2,0-0.4,0-0.5l1,0c0,0,0.1,0,0.1,0.1c0,0.1-0.1,0.2-0.1,0.2v0.5h1v-0.3c0-0.2,0-0.2,0-0.5l0.9,0c0,0,0.1,0,0.1,0.1
			c0,0,0,0.1-0.1,0.2v0.6h1.5v0.4h-1.5v0.5h-0.9v-0.5h-1v0.5h-0.9v-0.5h-1.4v-0.4h1.4V16.1z M77.1,19.1v-0.5h-1.1v0.5H77.1z
			 M76.1,19.5v0.6h1.1v-0.6H76.1z M76.1,20.5v0.6h1.1v-0.6H76.1z M76.5,22.4c0.3,0.4,0.8,0.7,1,0.8c0.5-0.4,0.7-0.6,0.8-0.8H76.5z"
			/>
		<path class="st0" d="M85.8,16.3c0-0.2,0-0.5-0.1-0.8l1.1,0c0,0,0.1,0,0.1,0.1c0,0,0,0.1-0.1,0.3v3.1h4v0.4h-4v4.2h3.3v0.4h-7.7
			v-0.4h3.3v-4.2h-4v-0.4h4V16.3z"/>
		<path class="st0" d="M93.8,20c-0.6-0.8-1-1.1-1.5-1.6l0.3-0.4c0.8,0.3,1.9,1,1.9,1L93.8,20z M94.8,20.8c-0.2,0.5-1.3,3.3-1.3,3.3
			c-0.1,0.2-0.1,0.2-0.1,0.4c0,0,0,0.1-0.1,0.1c0,0-0.1,0-0.1-0.1L92.3,24c0.6-0.6,1.6-2.3,2.1-3.5L94.8,20.8z M94.2,17.4
			c-0.3-0.4-1.1-1.1-1.5-1.4l0.3-0.4c0.8,0.3,1.1,0.5,1.9,1L94.2,17.4z M100.9,17.3v0.4h-2.5v2.1h2.9v0.4h-3
			c-0.6,1.1-1.3,2.2-2.1,3.2c1.7-0.2,2.4-0.3,3.6-0.4c-0.1-0.2-0.5-0.9-1.1-1.7l0.4-0.3c0.8,0.8,1.9,2.2,2.3,3l-0.9,0.6
			c-0.1-0.3-0.3-0.6-0.5-1.2c-1.5,0.3-2.9,0.6-5.1,0.9c-0.1,0.1-0.1,0.2-0.2,0.2c0,0-0.1,0-0.1-0.1l-0.3-0.8c0.4,0,0.6,0,1.2,0
			c0.5-0.6,1.4-2.3,1.7-3.3h-2.5v-0.4h2.9v-2.1h-2.5v-0.4h2.5v-1c0-0.5,0-0.6-0.1-0.7l1.1,0c0,0,0.1,0,0.1,0.1
			c0,0.1-0.1,0.2-0.1,0.2v1.4H100.9z"/>
		<path class="st0" d="M107.8,15.7c0,0,0.1,0,0.1,0.1c0,0,0,0.1-0.1,0.3v2.5c0,0.3,0,2.2,1.3,3.7c0.9,1.2,2,1.6,2.7,1.9l-0.3,0.4
			c-2.7-0.9-3.6-2.2-4.3-3.7c-0.8,1.6-2,2.9-4.3,3.7l-0.3-0.4c0.6-0.2,1.6-0.7,2.5-1.7c0.9-1,1.5-2,1.5-4.4v-1.4
			c0-0.5-0.1-0.9-0.1-1.1L107.8,15.7z"/>
	</g>
	<g>
		<path class="st0" d="M60.9,38.7c4.2-0.9,7.1-3.4,8.1-8.8L63,30c-0.8,0-1.5,0-2.3,0.1v-0.9c0.6,0,1.6,0.1,2.2,0.1l5.5,0
			c0.9,0,1.3,0,1.6-0.1l0.7,0.6c-0.1,0.3-0.2,0.6-0.3,0.9c-1.6,5.8-4.4,7.7-9.2,8.9L60.9,38.7z"/>
		<path class="st0" d="M73.8,32.2c-0.1,0-1.4,0.1-1.8,0.1v-0.8c0.4,0,1.6,0.1,1.8,0.1l5.1,0c0.1,0,1.1,0,1.5-0.1l0.6,0.7
			c-0.1,0.2-0.2,0.2-0.3,0.4c-1.2,1.9-2.3,2.8-2.9,3.2l-0.4-0.4c1.4-1.3,2-3,2-3.1c0,0,0,0-0.1,0L73.8,32.2z M75.5,33.4l1.2,0.1
			c0,0,0.2,0,0.2,0.1c0,0.1-0.1,0.3-0.1,0.4v0.5c0,3.9-2.2,4.9-4.4,5.3l-0.2-0.6c2.2-0.4,3.3-1.9,3.3-4.2V33.4z"/>
		<path class="st0" d="M82.1,33.6c0.6,0,1.9,0,2.6,0h3.9c0.8,0,1.8,0,2.6,0v1c-0.3,0-1.9,0-2.6,0h-3.9c-0.1,0-1.2,0-2.6,0V33.6z"/>
		<path class="st0" d="M102.1,39.1c-1.1-1.9-2.7-3.2-3.5-3.8c-1.3,1.4-2.6,2.6-6.5,3.8l-0.3-0.7c1.7-0.3,4.2-1.6,5.9-4.1
			c1.1-1.6,1.7-3.4,2-4.4l-4.6,0.1c-0.4,0-1.9,0.1-2.3,0.1l0-0.9c1.1,0.1,1.4,0.1,2.3,0l3.8-0.1c0.4,0,1.7-0.1,2.1-0.2l0.7,0.7
			c-0.2,0.3-0.3,0.5-0.4,0.7c-0.3,0.8-1.2,3-2.2,4.3c2,1.2,3.3,2.2,4.3,3.5L102.1,39.1z"/>
		<path class="st0" d="M105.9,29.9c0-0.4,0-1.2-0.1-1.6l1.4,0.1c0.1,0,0.3,0,0.3,0.1c0,0.1-0.1,0.5-0.1,0.7v3.2
			c1.1,0.3,3.4,0.8,5.6,2.5l-1.2,1.2c-1.8-1.9-3.5-2.6-4.4-2.9v3.8c0,1,0,1.9,0,2.9h-1.6c0-0.8,0-2.4,0-2.9V29.9z"/>
		<path class="st0" d="M121.3,35.9c0.3-0.8,0.3-1,0.3-1.4h1.8c-0.3,1.4-0.9,2.2-1.2,2.6l2,2.3H122l-1-1.1c-0.7,0.6-1.4,1.3-3.3,1.3
			c-1.1,0-2.4-0.3-3.1-1.1c-0.5-0.5-0.6-1.2-0.6-1.9c0-1.9,1.5-2.7,2.7-3.4c-0.8-1.1-1.1-1.4-1.1-2.3c0-1.3,0.9-2.7,2.8-2.7
			c1.4,0,2.7,0.7,2.7,2.3c0,1.5-1.8,2.3-2.4,2.5L121.3,35.9z M117.1,33.8c-0.5,0.4-1.5,1.1-1.5,2.8c0,1.4,0.7,2.2,2.1,2.2
			c1.3,0,1.9-0.7,2.6-1.5L117.1,33.8z M119.7,30.3c0-1.2-0.8-1.4-1.4-1.4c-1.1,0-1.3,0.7-1.3,1.3c0,0.7,0.3,1.3,1.2,2.2
			C118.8,32,119.7,31.4,119.7,30.3z"/>
		<path class="st0" d="M125.4,39.1c3.9-0.4,5.5-1.9,6.3-2.7c-1.2-1.7-2.8-2.5-3.4-2.8l0.4-0.6c1.2,0.4,2.5,1,3.8,2.3
			c0.6-0.9,1.2-2.1,1.6-4.4h-4.7c-0.9,1.4-1.8,2.5-4,3.8L125,34c2.3-1.3,3.1-3.5,3.4-4.4c0.1-0.4,0.3-1,0.4-1.6l1.5,0.5
			c0.1,0,0.3,0.1,0.3,0.2c0,0-0.2,0.2-0.2,0.2c0,0.1-0.4,1-0.5,1.1h3.1c0.6,0,1.8,0,2.3-0.1l0.7,0.7c-0.1,0.2-0.2,0.5-0.3,0.8
			c-0.5,1.8-0.6,2.2-1.3,3.4c-2.1,4.1-6.8,4.7-8.8,5L125.4,39.1z"/>
		<path class="st0" d="M148.3,32c-0.8,1.5-2.5,5.3-7.9,7.2c-0.3,0.1-2.1,0.6-2.4,0.8l-0.7-1.6c7.1-0.9,9.6-5.1,10.5-6.8L148.3,32z
			 M141.6,31.7c-1-1.3-2-2.2-3.8-2.9l0.4-0.7c2.5,0.7,3.9,1.8,4.6,2.3L141.6,31.7z"/>
		<path class="st0" d="M150.7,39.2c2.1-0.3,4.1-1.2,3.8-6.1h-2.9c-0.7,0-1.5,0-2.2,0.1v-0.9c0.6,0,1.6,0.1,2.2,0.1h7.5
			c0.7,0,1.4,0,2.1-0.1v0.9c-0.7-0.1-1.9-0.1-2.1-0.1h-2.9c-0.1,2-0.1,3-0.6,4c-1.1,2.2-3.1,2.6-4.6,2.9L150.7,39.2z M159,29.7
			c-0.7-0.1-1.9-0.1-2.2-0.1h-3.2c-0.7,0-1.7,0-2.3,0.1v-0.9c0.7,0,2,0.1,2.3,0.1h3.2c0.6,0,1.6,0,2.2-0.1V29.7z M160.1,30.2
			c-0.2-0.5-0.6-1.3-1-1.9l0.6-0.3c0.5,0.6,0.9,1.2,1.2,1.8L160.1,30.2z M161.5,29.6c-0.2-0.7-0.7-1.4-0.9-1.8l0.6-0.3
			c0.3,0.3,0.8,0.8,1.2,1.6L161.5,29.6z"/>
		<path class="st0" d="M172.7,39.4c-0.2-0.9-0.4-1.4-0.7-2c-3.1,0.7-4.4,1-7.5,1.6c-0.3,0.1-1.4,0.3-1.5,0.3c-0.1,0-0.3,0.1-0.3,0.1
			c0,0-0.1,0-0.1-0.1c0-0.1-0.4-1.3-0.5-1.6c0.4,0,0.8,0,2.1-0.1c0.8-2.3,2.5-7.5,3-9.6l1.7,0.5c0,0,0.2,0.1,0.2,0.1
			c0,0-0.2,0.3-0.3,0.3c0,0.1-3,7.3-3.5,8.5c3.3-0.4,5.5-0.8,6.4-0.9c-0.8-1.7-1.4-2.4-1.9-2.9l0.7-0.5c1.8,1.8,3.1,4,3.8,5.5
			L172.7,39.4z"/>
		<path class="st0" d="M185.7,39.1c-1.1-1.9-2.7-3.2-3.5-3.8c-1.3,1.4-2.6,2.6-6.5,3.8l-0.3-0.7c1.7-0.3,4.2-1.6,5.9-4.1
			c1.1-1.6,1.7-3.4,2-4.4l-4.6,0.1c-0.4,0-1.9,0.1-2.3,0.1l0-0.9c1.1,0.1,1.4,0.1,2.3,0l3.8-0.1c0.4,0,1.7-0.1,2.1-0.2l0.7,0.7
			c-0.2,0.3-0.3,0.5-0.4,0.7c-0.3,0.8-1.2,3-2.2,4.3c2,1.2,3.3,2.2,4.3,3.5L185.7,39.1z"/>
		<path class="st0" d="M188.5,38.9c1.2-0.3,3.7-0.8,5.7-3.3c1.8-2.1,2.2-4.4,2.4-5.6l-5.9,0c-0.5,0-1.3,0-2.3,0.1v-0.9
			c0.6,0,1.7,0.1,2.2,0.1l5.2,0c0.5,0,1.1,0,1.6-0.1l0.9,0.9c-0.1,0.3-0.1,0.4-0.3,0.9c-1.8,6.3-5.6,7.7-9.1,8.5L188.5,38.9z
			 M199.2,27.1c0.7,0,1.3,0.6,1.3,1.3c0,0.7-0.6,1.3-1.3,1.3c-0.7,0-1.3-0.6-1.3-1.3C197.9,27.7,198.5,27.1,199.2,27.1z M199.2,27.7
			c-0.4,0-0.7,0.3-0.7,0.7c0,0.4,0.3,0.7,0.7,0.7c0.4,0,0.7-0.3,0.7-0.7C199.9,28,199.6,27.7,199.2,27.7z"/>
		<path class="st0" d="M201.4,29.3c0-0.1,0-0.8-0.1-1l1.5,0.1c0.1,0,0.3,0,0.3,0.1c0,0.1-0.2,0.3-0.2,0.4v4.6c0,0.3,0,1.9,0.1,2.2
			h-1.6c0-0.2,0-2,0-2.3V29.3z M203.1,39.4c4.4-0.7,4.5-3.2,4.5-8.1c0-0.9,0-2.1-0.2-3l1.6,0.1c0.1,0,0.2,0,0.2,0.1
			c0,0.1-0.1,0.3-0.1,0.3c0,0.1,0,3.1,0,3.7c0,5.3-1.3,6.8-5.7,7.6L203.1,39.4z"/>
		<path class="st0" d="M222,32c-0.8,1.5-2.5,5.3-7.9,7.2c-0.3,0.1-2.1,0.6-2.4,0.8l-0.8-1.6c7.1-0.9,9.6-5.1,10.5-6.8L222,32z
			 M215.3,31.7c-1-1.3-2-2.2-3.8-2.9l0.4-0.7c2.5,0.7,3.9,1.8,4.6,2.3L215.3,31.7z"/>
		<path class="st0" d="M223.7,29.9c0-0.4,0-1.2-0.1-1.6l1.4,0.1c0.1,0,0.3,0,0.3,0.1c0,0.1-0.1,0.5-0.1,0.7v3.2
			c1.1,0.3,3.4,0.8,5.6,2.5l-1.2,1.2c-1.8-1.9-3.5-2.6-4.4-2.9v3.8c0,1,0,1.9,0,2.9h-1.6c0-0.8,0-2.4,0-2.9V29.9z"/>
		<path class="st0" d="M233.7,33.9c-0.9-1.1-1.4-1.6-2.2-2.2l0.4-0.6c1.2,0.5,2.6,1.4,2.7,1.5L233.7,33.9z M235.1,35
			c-0.3,0.8-1.8,4.6-1.9,4.8c-0.1,0.2-0.1,0.3-0.1,0.5c0,0,0,0.2-0.2,0.2c-0.1,0-0.1,0-0.2-0.1l-1.2-0.9c0.8-0.8,2.2-3.3,3-5
			L235.1,35z M234.4,30.1c-0.5-0.6-1.5-1.6-2.1-2l0.4-0.5c1.1,0.5,1.6,0.8,2.7,1.4L234.4,30.1z M243.9,30v0.6h-3.6v3h4.1v0.6H240
			c-0.9,1.6-1.9,3.1-3,4.6c2.4-0.2,3.5-0.4,5.2-0.6c-0.2-0.3-0.7-1.3-1.6-2.4l0.6-0.4c1.2,1.1,2.7,3.2,3.3,4.3l-1.3,0.8
			c-0.2-0.4-0.4-0.9-0.8-1.7c-2.1,0.4-4.1,0.8-7.2,1.3c-0.2,0.2-0.2,0.3-0.3,0.3c-0.1,0-0.2-0.1-0.2-0.2l-0.5-1.2
			c0.6,0,0.9,0,1.7-0.1c0.7-0.9,1.9-3.3,2.4-4.7h-3.6v-0.6h4.1v-3h-3.5V30h3.5v-1.4c0-0.7-0.1-0.8-0.1-1l1.6,0c0,0,0.2,0,0.2,0.1
			c0,0.1-0.1,0.2-0.1,0.3v2H243.9z"/>
		<path class="st0" d="M249.2,31.1h3.5v-1.5h-3v-0.6h3v-0.4c0-0.3,0-0.5-0.1-0.8l1.4,0c0.1,0,0.1,0.1,0.1,0.1c0,0.1-0.1,0.3-0.1,0.3
			v0.7h2.8v2.2h1.1v0.6H257v2.2h-2.8v1.5h3.4V36h-3.4v1.5h3.9v0.6h-3.9v2.4h-1.4v-2.4h-3.9v-0.6h3.9V36h-3.2v-0.6h3.2v-1.5h-3v-0.6
			h3v-1.6h-3.2c-0.1,0.1-0.2,0.1-0.3,0.2c-0.2,0.3-0.5,0.7-1,1.3v7.3h-1.4v-5.9c-0.6,0.6-1,0.9-1.4,1.2l-0.6-0.5
			c2.1-1.7,3-3.6,3.3-4.4l1.1,0.5V31.1z M249.4,28.1c0,0,0.1,0.1,0.1,0.1c0,0.1-0.1,0.2-0.2,0.2c-1.4,1.6-2.4,2.5-3.6,3.2l-0.5-0.4
			c1.4-1.1,2.5-2.8,2.9-3.8L249.4,28.1z M255.6,31.1v-1.5h-1.5v1.5H255.6z M254.1,31.7v1.6h1.5v-1.6H254.1z"/>
		<path class="st0" d="M271.7,35.9v0.6h-1.2v2.3h-1.4v-0.6H266V39c0,0.9-0.2,1.4-1.4,1.4h-1.8l-0.3-0.8c0.7,0.2,1.2,0.2,1.4,0.2
			c0.7,0,0.7-0.3,0.7-0.9v-0.7h-4.5v-0.6h4.5v-1.1h-5.7v-0.6h5.7v-1.1h-4.5v-0.6h4.5v-1h-4.1v-2.6h4.1v-1h-5.3V29h5.3v-0.7
			c0-0.2,0-0.5-0.1-0.7l1.6,0c0.1,0,0.2,0.1,0.2,0.1c0,0.1,0,0.2-0.2,0.5V29h5.4v0.6H266v1h4.1v2.6H266v1h4.5v1.7H271.7z
			 M264.5,32.6v-1.3h-2.8v1.3H264.5z M266,31.2v1.3h2.7v-1.3H266z M269.1,35.9v-1.1H266v1.1H269.1z M269.1,37.6v-1.1H266v1.1H269.1z
			"/>
		<path class="st0" d="M276.3,39.1c0,1-0.3,1.2-1.4,1.2h-1.3l-0.3-0.7c0.3,0,0.8,0.1,1.1,0.1c0.6,0,0.6-0.1,0.6-0.6v-3.7
			c-0.2,0.3-0.9,1.6-2.2,2.8l-0.5-0.5c1.2-1.4,2.1-3.4,2.4-5h-2.3v-0.6h3.2c-0.5-0.7-1.3-1.6-2.3-2.2l0.4-0.5
			c0.3,0.1,0.7,0.3,1.7,0.9c0.8-1.1,0.9-1.3,1.1-1.6h-3.7v-0.6h5.6v0.5c-0.9,0.9-1.5,1.4-2.3,2.2c0.4,0.3,0.5,0.4,0.7,0.5l-1,0.9
			h3.2c-0.7,1.7-1.4,2.5-1.8,3l-0.6-0.4c0.5-0.8,0.7-1.7,0.7-2h-1.2V39.1z M284.3,29.7c-0.2,0.9-0.5,2-1.6,3.1
			c0.5,0.4,1.2,0.8,2.8,1.3l-0.4,0.6c-1.6-0.3-2.7-0.9-3.2-1.3c-0.3,0.2-0.8,0.5-1.6,0.8l1.4,0.1c0.1,0,0.2,0,0.2,0.1
			c0,0.1-0.1,0.3-0.1,0.3c0,0.2,0,0.4-0.1,0.9h3.3c-0.3,4.3-0.5,4.7-2.1,4.7h-1.6l-0.3-0.7c0.4,0.1,0.7,0.1,1.1,0.1
			c0.6,0,0.8-0.1,1-0.5c0.2-0.5,0.3-1.7,0.4-3h-2c-0.3,1.3-1.1,3-4.2,4.2l-0.4-0.5c0.9-0.4,2.6-1.3,3.3-3.7h-2.6v-0.6h2.7
			c0-0.1,0.1-0.3,0.1-0.6c0-0.1,0-0.4-0.1-0.7c-0.5,0.2-0.8,0.3-1.4,0.4l-0.4-0.5c1.5-0.4,2.3-0.9,2.8-1.4c-0.2-0.2-1.1-0.9-1.6-2.3
			c-0.6,0.7-0.8,0.9-1.1,1.2l-0.6-0.3c0.9-1.2,1.7-2.5,1.9-3.9l1.6,0.4c0.1,0,0.1,0,0.1,0.1c0,0.1-0.1,0.2-0.2,0.2
			c-0.2,0.3-0.3,0.5-0.5,0.8h4.6v0.6H284.3z M280.2,29.7c-0.2,0.2-0.2,0.3-0.4,0.6l1-0.3c0.2,0.5,0.3,1.2,1.1,2
			c0.6-0.8,0.8-1.5,0.9-2.3H280.2z"/>
		<path class="st0" d="M291.9,31.1v4.8h-3.5c-0.1,1.1-0.3,2.7-1.8,4.4l-0.7-0.4c1.1-1.6,1.1-3,1.1-4.2v-4.5H291.9z M292.2,28.3v0.6
			h-5.7v-0.6H292.2z M288.4,31.8v3.5h2.2v-3.5H288.4z M294.4,33.4c0,1.7-0.1,4.9-2.9,7L291,40c1.3-1.3,2-2.5,2-6.2v-5.3l1.3,0.2
			c0.9,0,2.9-0.4,3.8-0.9l0.7,0.8c0.1,0.1,0.1,0.1,0.1,0.2c0,0.1-0.1,0.1-0.2,0.1c-0.2,0-0.2,0-0.4,0c-0.5,0.1-2.2,0.4-3.8,0.4v3.1
			h4.6v0.6h-1.4v7.4h-1.4v-7.4h-1.8V33.4z"/>
	</g>
</g>
<text transform="matrix(1 0 0 1 61.1293 52.3417)" class="st0 st1 st2">第一東京弁護士会所属</text>
</svg>
