<svg xmlns="http://www.w3.org/2000/svg" width="473.26158" height="327.81031" viewBox="0 0 473.26158 327.81031">
  <defs>
    <style>
      .cls-1 {
        fill: #fff;
      }
    </style>
  </defs>
  <title>logo</title>
  <g id="レイヤー_2" data-name="レイヤー 2">
    <g id="レイヤー_1-2" data-name="レイヤー 1">
      <g>
        <path class="cls-1" d="M103.02916,313.03169H94.82833l6.97642-16.65352a36.40384,36.40384,0,0,0,2.26811-6.24082,3.15435,3.15435,0,0,0-.28688-2.41868,3.35741,3.35741,0,0,0-2.78806-1.18473,9.95957,9.95957,0,0,0-5.62187,1.653,16.35309,16.35309,0,0,0-5.263,5.44132,62.74027,62.74027,0,0,0-3.64577,7.53953l-4.97256,11.86388H73.31819l13.852-33.05748h8.18l-.65239,1.60065c.44519-.248.91167-.47136,1.38114-.67936a17.98921,17.98921,0,0,1,7.34155-1.65145,9.2795,9.2795,0,0,1,6.455,2.18757,7.77624,7.77624,0,0,1,2.52879,5.93731c.02619,2.17069-.83649,5.27032-2.60388,9.51453Z"/>
        <path class="cls-1" d="M126.74691,313.77732c-4.89125,0-8.38179-1.87025-10.40995-5.52754-1.98115-3.52943-1.95347-7.75518.07659-12.61416a27.01891,27.01891,0,0,1,9.582-11.58505c4.5015-3.19207,9.08969-4.80652,13.619-4.80652a12.32091,12.32091,0,0,1,6.94874,1.85945,8.94345,8.94345,0,0,1,1.77236,1.539l22.02859-52.6087h8.15075l-34.78717,83.01182h-8.12109l.67369-1.67306c-.6001.30036-1.19515.573-1.79516.8226a20.21134,20.21134,0,0,1-7.73829,1.5822m11.66747-26.84127a13.05674,13.05674,0,0,0-5.51753,1.328,18.65735,18.65735,0,0,0-5.38847,3.88374,16.70108,16.70108,0,0,0-3.56721,5.181,9.0956,9.0956,0,0,0-.7614,4.77883,4.49953,4.49953,0,0,0,1.62218,3.01484,5.97528,5.97528,0,0,0,3.77592,1.10924,13.18522,13.18522,0,0,0,5.568-1.36954,16.90266,16.90266,0,0,0,5.36079-3.73285,16.47849,16.47849,0,0,0,3.51365-5.27331c1.17393-2.7607,1.28175-4.91285.31622-6.60287-.54772-.989-1.66769-2.317-4.92215-2.317"/>
        <path class="cls-1" d="M167.94471,313.77732c-5.60073,0-9.29651-1.98423-11.01848-5.8757-1.58644-3.60649-1.4593-7.68435.39471-12.11195a27.92662,27.92662,0,0,1,8.06871-10.60832c4.73806-3.94542,9.81687-5.9373,15.0733-5.9373,7.3223,0,10.244,3.78515,11.41136,6.94022,1.17235,3.12274.835,6.96492-.98635,11.38786l-.52185,1.2879H164.40337a6.8087,6.8087,0,0,0,.09931,5.22252c.52035.92278,1.54252,2.14908,4.55743,2.14908a12.94312,12.94312,0,0,0,3.9877-.67936,15.98694,15.98694,0,0,0,3.95386-1.821c.287-.18023.52185-.32505.72867-.4391a9.2703,9.2703,0,0,0,2.0594-1.75l.59852-.57927h9.771l-3.22985,3.44779a32.4797,32.4797,0,0,1-5.992,5.20406,25.33474,25.33474,0,0,1-6.22315,3.078,21.51346,21.51346,0,0,1-6.76962,1.08456m1.09379-22.24117h15.36057a4.94767,4.94767,0,0,0-.25612-1.97807,3.38142,3.38142,0,0,0-1.66611-1.82553,6.62066,6.62066,0,0,0-3.44046-.83192,13.51031,13.51031,0,0,0-7.34352,2.40638,14.75011,14.75011,0,0,0-2.65436,2.22914"/>
        <path class="cls-1" d="M238.84726,313.03169H230.596l7.81064-18.647c1.613-3.90535,1.76628-4.82663,1.69308-5.82182a2.38835,2.38835,0,0,0-2.2939-2.13213,6.66919,6.66919,0,0,0-4.73719,1.20627,15.85728,15.85728,0,0,0-4.29895,4.11635,47.24471,47.24471,0,0,0-4.44992,8.68727l-5.28727,12.591H210.856l7.3955-17.65794c1.80013-4.29508,2.13251-5.90962,2.18646-6.49662a1.88434,1.88434,0,0,0-.31156-1.54362,2.95313,2.95313,0,0,0-2.29051-.969,7.81091,7.81091,0,0,0-4.40062,1.21092,12.88947,12.88947,0,0,0-4.34667,3.94534,37.61559,37.61559,0,0,0-4.11674,7.97706L199.296,313.03169h-8.17465l13.85048-33.05748h8.17654l-.52184,1.234a.48811.48811,0,0,1,.10781-.05087,17.33877,17.33877,0,0,1,7.55026-1.91332,9.85272,9.85272,0,0,1,4.6337,1.05064,6.81318,6.81318,0,0,1,3.0703,3.16281c.08013.1617.13409.3312.21027.51144a23.05745,23.05745,0,0,1,4.24429-2.74531,17.13545,17.13545,0,0,1,7.65658-1.97958,8.58636,8.58636,0,0,1,6.03748,2.04583,7.328,7.328,0,0,1,2.31859,5.76638c-.02468,2.0982-.8335,5.00987-2.47492,8.90441Z"/>
        <path class="cls-1" d="M360.05971,313.34136H351.803l15.07827-36.55914h8.22205l-1.55829,4.01468a11.58459,11.58459,0,0,1,5.23561-1.40038c4.81575,0,6.71527,2.65752,7.18364,3.48171l.77875,1.37877-5.93431,5.71092a3.28556,3.28556,0,0,0-1.12-1.71313,4.46412,4.46412,0,0,0-3.40921-.97673,7.12853,7.12853,0,0,0-3.46168,1.12,9.94487,9.94487,0,0,0-3.51326,4.1087,89.47442,89.47442,0,0,0-4.58551,9.74406Z"/>
        <polygon class="cls-1" points="388.15 313.341 379.948 313.341 393.88 280.168 402.056 280.168 388.15 313.341"/>
        <path class="cls-1" d="M399.7169,277.68339a3.34219,3.34219,0,0,1-3.02335-1.6561,3.70294,3.70294,0,0,1-.07777-3.35842,6.00178,6.00178,0,0,1,2.10823-2.58811,5.46369,5.46369,0,0,1,3.17589-1.09229,3.30877,3.30877,0,0,1,3.018,1.62376,3.72731,3.72731,0,0,1,.10554,3.38619,6.03841,6.03841,0,0,1-2.1322,2.59276,5.44538,5.44538,0,0,1-3.17433,1.09221"/>
        <path class="cls-1" d="M425.54066,313.34136H417.368l7.00411-16.71978a38.66865,38.66865,0,0,0,2.26085-6.24855c.24334-1.28482.05388-3.058-2.75383-3.63259a8.62743,8.62743,0,0,0-6.46262,1.18465c-2.1083,1.42349-3.35535,3.1012-4.94211,5.96357a76.32117,76.32117,0,0,0-3.541,7.52872l-5.0038,11.924H395.753l13.90592-33.173h8.20431l-.68016,1.576c.49448-.24957.93974-.47145,1.38114-.67944a18.57326,18.57326,0,0,1,7.40086-1.66841,9.38344,9.38344,0,0,1,6.48187,2.18765,7.84469,7.84469,0,0,1,2.5258,5.99126c.02926,2.13362-.83271,5.261-2.60357,9.52991Z"/>
        <polygon class="cls-1" points="442.499 313.341 434.298 313.341 445.127 287.512 440.024 287.512 443.125 280.168 448.227 280.168 452.729 269.347 460.931 269.347 456.431 280.168 462.366 280.168 459.264 287.512 453.329 287.512 442.499 313.341"/>
        <path class="cls-1" d="M63.7378,313.39524a5.57325,5.57325,0,0,1-.8088-3.65114,22.6655,22.6655,0,0,1,1.9011-6.11753c.02925-.06476,13.25384-31.61861,13.25384-31.61861H68.83941l-.46641,1.10459c-1.27827-4.272-2.29082-5.98818-5.75706-8.57013a15.49328,15.49328,0,0,0-6.01287-2.49109l-3.49093,8.339a13.05208,13.05208,0,0,1,7.42326,6.31639c2.6266,4.87743,2.449,10.98724-.62747,18.2634a41.256,41.256,0,0,1-8.537,12.91294,42.20408,42.20408,0,0,1-12.78745,9.08015,32.67639,32.67639,0,0,1-13.74612,3.37231,16.58215,16.58215,0,0,1-10.67915-3.38311,13.85454,13.85454,0,0,1-4.99914-9.48369,24.05244,24.05244,0,0,1,1.98115-12.722,41.47118,41.47118,0,0,1,8.64294-12.73129,44.0148,44.0148,0,0,1,12.83951-9.33272c1.06642-.52224,2.13749-.95054,3.17622-1.35416l3.61761-8.58094A54.838,54.838,0,0,0,22.33625,271.21c-9.06193,6.43037-15.52156,14.21946-19.32366,23.27793q-5.8158,13.90667-.41592,23.6107c3.62108,6.48274,9.87074,9.71172,18.80063,9.71172a42.41983,42.41983,0,0,0,15.70258-2.99638A70.86655,70.86655,0,0,0,51.83733,316.441a8.06326,8.06326,0,0,0,2.3428,5.51366,12.3,12.3,0,0,0,6.50853,3.172l8.38722-8.34368a10.64167,10.64167,0,0,1-5.33808-3.38776"/>
        <polygon class="cls-1" points="35.303 304.566 25.304 304.566 55.978 231.54 65.975 231.54 35.303 304.566"/>
        <polygon class="cls-1" points="81.858 239.211 31.265 239.211 35.044 230.034 85.608 230.034 81.858 239.211"/>
        <path class="cls-1" d="M135.24005,236.22994V212.0107h-.08164c.7599-14.76174-6.94874-26.2713-20.09973-30.06875-9.9717-2.867-22.2358-.23726-29.16371,6.247-8.14878,7.63813-10.0221,15.8586-10.57133,24.344H55.0671L51.55345,221.023H83.55066l.10435-4.14419c.26077-10.37413,1.53747-16.37462,8.046-22.46912,4.14144-3.89455,13.12521-6.54742,20.98868-4.29509,8.35757,2.42176,13.30583,8.80125,13.9579,17.80891L96.86,209.21459,114.82221,248.519l7.73782-3.52942L109.8558,217.16846l16.86531-.73174v22.08712l20.18145,35.04628,4.0366-10.01524Z"/>
        <path class="cls-1" d="M66.93642,203.01376a31.41217,31.41217,0,0,1,9.87231-18.2757,29.06687,29.06687,0,0,1,15.09949-6.92485c-6.37838-1.13385-28.14265-3.97161-36.11238,7.16976-5.57107,7.77679-3.17589,18.60541,11.14058,18.03079m-5.387-13.90048a10.79656,10.79656,0,0,1,5.13126-3.59418,37.02025,37.02025,0,0,0-5.05112,9.7241,2.54144,2.54144,0,0,1-1.27678-1.0784c-.49377-.97674-.25919-3.02107,1.19664-5.05152"/>
        <path class="cls-1" d="M255.89982,236.22994V212.0107h-.04851C256.58,197.249,248.8987,185.7394,235.723,181.942c-9.97012-2.867-22.23383-.23726-29.16324,6.247-8.12267,7.63813-10.02566,15.8586-10.5718,24.344H175.72844l-3.51523,8.49008h32.00526l.10593-4.14419c.28034-10.37413,1.56209-16.37462,8.04285-22.46912,4.1692-3.89455,13.146-6.54742,21.01029-4.29509,8.36213,2.42176,13.28271,8.80125,13.932,17.80891l-29.75908,1.29106L235.49191,248.519l7.73136-3.52942-12.70739-27.82108,16.87154-.73174v22.08712l17.10793,42.22842,4.0355-9.99828Z"/>
        <path class="cls-1" d="M187.632,203.01376a31.21457,31.21457,0,0,1,9.87073-18.2757,28.94617,28.94617,0,0,1,15.0991-6.92485c-6.37641-1.13385-28.15228-3.97161-36.1463,7.16976-5.5695,7.77679-3.17779,18.60541,11.17647,18.03079m-5.38856-13.90048a10.65658,10.65658,0,0,1,5.12779-3.59418,35.66785,35.66785,0,0,0-5.0542,9.7241,2.8078,2.8078,0,0,1-1.30753-1.0784c-.4926-.97674-.2319-3.02107,1.23394-5.05152"/>
        <path class="cls-1" d="M278.47526,318.835a26.15843,26.15843,0,0,1-6.74382-.855c-8.17654-2.17219-13.27814-6.65674-17.05256-15.02669l-.10782-.27725,8.67109-3.95615.161.27725c2.31394,5.07463,6.535,9.02928,10.72537,10.09538a17.23037,17.23037,0,0,0,4.29438.56531,13.22244,13.22244,0,0,0,13.23034-9.855c2.03045-7.12353-.57383-11.4325-4.16573-16.30071-.29113-.39288-.65854-.83341-1.12305-1.39423a54.51333,54.51333,0,0,1-6.50734-9.22954c-3.93076-7.05728-4.08867-13.48914-.46758-19.70843a20.3102,20.3102,0,0,1,18.12094-10.39416,28.09985,28.09985,0,0,1,5.83793.64237c9.55309,2.08133,13.614,11.12906,14.63308,13.84819l.10325.27575-6.40646,2.79769-.13173-.31275a13.59856,13.59856,0,0,0-9.92122-8.83982,14.74582,14.74582,0,0,0-3.02106-.31117c-6.589,0-12.29368,4.4784-12.967,10.24785-.65082,5.31031,2.70989,9.855,6.82167,14.8403,8.53858,10.31868,11.14751,18.99356,8.2551,27.23715-3.46317,9.79186-11.76836,15.63364-22.2388,15.63364"/>
        <path class="cls-1" d="M351.93705,281.43162a12.71766,12.71766,0,0,0-6.92942-6.88477,14.37085,14.37085,0,0,0-9.634-.42215,23.92007,23.92007,0,0,0-8.77348,4.805c-.067.05545-.12557.12021-.191.17715a6.2431,6.2431,0,0,0-1.37112-2.3,14.07475,14.07475,0,0,0-5.85953-3.58953l-1.09378-.32962-4.557,8.74114,1.69538.42522a4.60084,4.60084,0,0,1,2.23695,1.368,1.834,1.834,0,0,1,.21029,1.12156,5.887,5.887,0,0,1-.16336.81188l-18.87808,42.45487h8.23665l10.28325-23.06992a13.62162,13.62162,0,0,0,3.46089,5.99433c2.44952,2.46948,6.84935,5.0161,13.82507,3.08574a22.60091,22.60091,0,0,0,8.752-4.79272,30.05918,30.05918,0,0,0,6.616-8.15571,27.39453,27.39453,0,0,0,3.29989-9.71788A18.41028,18.41028,0,0,0,351.93705,281.43162Zm-6.1468,8.9676a19.41776,19.41776,0,0,1-2.29082,7.01886,21.03367,21.03367,0,0,1-4.76882,6.05286,15.46455,15.46455,0,0,1-5.85338,3.3615l-.21028.05395c-2.99338.82884-5.315.38516-7.08276-1.34651-1.77016-1.77315-2.50111-4.52919-2.08519-8.15729a20.11892,20.11892,0,0,1,2.24-7.08346,20.70637,20.70637,0,0,1,4.76725-5.91428,16.0846,16.0846,0,0,1,5.93659-3.38153l.15483-.05387a7.60225,7.60225,0,0,1,5.02683.11548,6.20881,6.20881,0,0,1,3.38311,3.38776A11.12719,11.12719,0,0,1,345.79025,290.39922Z"/>
        <g>
          <path class="cls-1" d="M458.69357.22031a.63914.63914,0,0,0-.7009-.18062C366.70723,32.41661,316.9123,78.13518,291.21033,110.79094c-27.88039,35.42757-34.22753,63.5976-34.28141,63.841-.406,1.50048-.89044,4.08251.4791,4.5385a1.10839,1.10839,0,0,0,.349.054c1.21936,0,2.36245-2.13985,2.93935-3.417,17.96454-40.2942,34.77747-46.92175,58.05161-56.09309q1.93422-.76254,3.9246-1.55363A237.42712,237.42712,0,0,0,367.305,94.17709c7.04732-5.04765,14.043-10.35993,20.80149-15.78927a.63843.63843,0,0,0,.20028-.73332.62663.62663,0,0,0-.63395-.424A144.8679,144.8679,0,0,0,323.0931,95.4504C335.58247,85.57,366.966,64.2343,414.333,55.32405a.65475.65475,0,0,0,.33122-.1714c32.65456-31.29923,44.017-53.98636,44.131-54.21321A.65686.65686,0,0,0,458.69357.22031Z"/>
          <path class="cls-1" d="M413.85543,127.84231c-3.09576-6.51547-11.67362-9.96057-24.81-9.96057-18.02764,0-42.72677,6.455-67.76017,17.708a1.11573,1.11573,0,0,0-.58234,1.4089,1.1,1.1,0,0,0,1.37111.66012c12.98306-4.1576,25.179-6.36024,35.26816-6.36024,12.28287,0,20.62119,3.31149,23.48434,9.3227,3.31149,6.96034-.6486,16.95665-11.13056,28.15812-10.72545,11.45719-26.92984,22.66166-45.6277,31.55535-15.00665,7.13749-41.67383,14.96973-55.49038,17.19737a1.11163,1.11163,0,0,0,.17179,2.20919.67129.67129,0,0,0,.1363-.01238c26.37218-3.14735,48.90992-9.85654,75.3583-22.43678,22.20647-10.55437,41.66074-23.48742,54.79714-36.40936C412.45505,147.68594,417.71614,135.95339,413.85543,127.84231Z"/>
          <path class="cls-1" d="M471.59737,112.77367c-4.758-10.77049-19.428-16.702-41.30257-16.702-19.54048,0-43.23054,4.52928-68.49735,13.10714-1.37261.4679-1.75241,1.28286-1.65451,1.891.0847.50071.5638,1.08921,1.63527,1.08921a3.7584,3.7584,0,0,0,.9813-.14174c14.8911-4.01239,28.96654-6.13379,40.6987-6.13379,17.74573,0,29.82374,4.83279,33.99791,13.614,4.87822,10.27017-.996,24.96368-16.55414,41.37537-15.70059,16.563-39.40991,32.66033-66.5539,45.75824a245.35726,245.35726,0,0,1-85.42434,23.49357c-4.93367.4899-5.281.95054-5.25179,1.62683.02461.587.0508,1.13386,5.72316,1.16l1.22252.00773h.00685c35.936,0,66.98765-7.47178,103.27569-23.5013C438.66933,180.80959,482.50147,137.45505,471.59737,112.77367Z"/>
        </g>
      </g>
    </g>
  </g>
</svg>
