<svg xmlns="http://www.w3.org/2000/svg" width="183.4687" height="90.66982" viewBox="0 0 183.4687 90.66982">
  <defs>
    <style>
      .cls-1 {
        fill: #fff;
      }
    </style>
  </defs>
  <title>logo_name</title>
  <g id="レイヤー_2" data-name="レイヤー 2">
    <g id="レイヤー_1-2" data-name="レイヤー 1">
      <g id="レイヤー_2-2" data-name="レイヤー 2">
        <g id="H01-04">
          <g>
            <g>
              <g>
                <path class="cls-1" d="M68.8525,53.402H67.45211l1.18949-2.84281a5.99737,5.99737,0,0,0,.38861-1.0615.53432.53432,0,0,0-.0488-.4131.57055.57055,0,0,0-.4746-.2021,1.70408,1.70408,0,0,0-.9609.2812,2.81937,2.81937,0,0,0-.8965.9258,10.96953,10.96953,0,0,0-.625,1.2881L65.1787,53.402H63.7822l2.3652-5.63871h1.3965l-.1133.27151a2.59607,2.59607,0,0,1,.2344-.1142,3.08349,3.08349,0,0,1,1.2559-.28031,1.60071,1.60071,0,0,1,1.1015.37011,1.34,1.34,0,0,1,.42971,1.01369,4.59443,4.59443,0,0,1-.44341,1.624Z"/>
                <path class="cls-1" d="M72.8974,53.528a1.86871,1.86871,0,0,1-1.7754-.9424,2.37663,2.37663,0,0,1,.0137-2.1514,4.60441,4.60441,0,0,1,1.63481-1.9756,4.01111,4.01111,0,0,1,2.3242-.81831,2.08383,2.08383,0,0,1,1.1836.31351,1.60416,1.60416,0,0,1,.30471.2646l3.75579-8.9766h1.39061l-5.9355,14.1631H74.40911l.11719-.2871c-.1054.0508-.207.09769-.3066.1416a3.4589,3.4589,0,0,1-1.3223.2686m1.9902-4.5772a2.19507,2.19507,0,0,0-.9394.22849,3.10555,3.10555,0,0,0-.91989.6612,2.86509,2.86509,0,0,0-.6094.88379,1.55862,1.55862,0,0,0-.1289.81441.77545.77545,0,0,0,.2773.51471,1.02034,1.02034,0,0,0,.6426.1884,2.21706,2.21706,0,0,0,.95121-.2353,2.92563,2.92563,0,0,0,.914-.6367,2.78693,2.78693,0,0,0,.60159-.89651,1.23157,1.23157,0,0,0,.0508-1.127c-.0918-.167-.2832-.39549-.8399-.39549"/>
                <path class="cls-1" d="M79.9267,53.528a1.84222,1.84222,0,0,1-1.8808-1.001,2.54836,2.54836,0,0,1,.0683-2.0674,4.693,4.693,0,0,1,1.377-1.8086,3.96379,3.96379,0,0,1,2.57219-1.01071A1.84824,1.84824,0,0,1,84.00869,48.82a2.67141,2.67141,0,0,1-.1679,1.9472l-.0899.2159H79.3212a1.17489,1.17489,0,0,0,.0176.8916c.0879.1591.2637.3671.77931.3671a2.14664,2.14664,0,0,0,.67969-.1171,2.68729,2.68729,0,0,0,.6738-.3106c.04889-.0283.08789-.0527.1231-.0752a1.38606,1.38606,0,0,0,.3515-.2978l.1036-.0967h1.666l-.5508.5859a5.75086,5.75086,0,0,1-1.0195.89061,4.453,4.453,0,0,1-1.0645.5245,3.70913,3.70913,0,0,1-1.1543.1826m.18561-3.793h2.6191a.84087.84087,0,0,0-.041-.3379.57415.57415,0,0,0-.28321-.3125,1.16663,1.16663,0,0,0-.586-.1406,2.32242,2.32242,0,0,0-1.2558.4111,2.48552,2.48552,0,0,0-.4531.3799"/>
                <path class="cls-1" d="M92.0224,53.402H90.6142l1.332-3.1826c.2774-.66511.30079-.8223.2911-.9932a.4185.4185,0,0,0-.3965-.3652,1.15423,1.15423,0,0,0-.80469.2099,2.65528,2.65528,0,0,0-.73441.7012,8.18555,8.18555,0,0,0-.7578,1.4805L88.6416,53.402H87.247l1.26171-3.01171a4.52377,4.52377,0,0,0,.3731-1.10939.32358.32358,0,0,0-.05469-.26561.49057.49057,0,0,0-.38871-.16209,1.30524,1.30524,0,0,0-.75.206,2.17992,2.17992,0,0,0-.7422.67391,6.37975,6.37975,0,0,0-.70109,1.36029l-.97071,2.3086H83.8798l2.36531-5.63871H87.6376l-.08779.208.0175-.00779a2.93169,2.93169,0,0,1,1.2871-.32322,1.66438,1.66438,0,0,1,.7911.17772,1.16551,1.16551,0,0,1,.5254.5381c.0117.0293.0214.0596.03321.0869a4.30657,4.30657,0,0,1,.72648-.46972,2.90728,2.90728,0,0,1,1.30671-.333,1.4389,1.4389,0,0,1,1.02729.34671,1.24766,1.24766,0,0,1,.3984.9843,4.49,4.49,0,0,1-.4238,1.52151Z"/>
                <path class="cls-1" d="M112.70011,53.45377H111.2919l2.5723-6.2344h1.4063l-.2696.6816a1.969,1.969,0,0,1,.8965-.2383,1.32367,1.32367,0,0,1,1.2246.59669l.1309.2324-1.0117.9737a.5864.5864,0,0,0-.1895-.294.80747.80747,0,0,0-.584-.164,1.20091,1.20091,0,0,0-.5898.1933,1.65053,1.65053,0,0,0-.5977.6992,14.99185,14.99185,0,0,0-.78509,1.6612Z"/>
                <polygon class="cls-1" points="117.493 53.454 116.097 53.454 118.472 47.796 119.868 47.796 117.493 53.454"/>
                <path class="cls-1" d="M119.4658,47.37267a.56517.56517,0,0,1-.51369-.2852.63043.63043,0,0,1-.01561-.57321,1.024,1.024,0,0,1,.3613-.43939.9228.9228,0,0,1,.541-.18661.57473.57473,0,0,1,.5176.27441.64936.64936,0,0,1,.0156.5791,1.0177,1.0177,0,0,1-.36519.4424.921.921,0,0,1-.541.1885"/>
                <path class="cls-1" d="M123.872,53.45377h-1.3945l1.1953-2.8516a6.93628,6.93628,0,0,0,.3867-1.0684c.0391-.2158.0078-.5214-.46869-.6181a1.47657,1.47657,0,0,0-1.1055.2041,2.59194,2.59194,0,0,0-.8418,1.0156,12.99674,12.99674,0,0,0-.6055,1.2861l-.8535,2.03229h-1.3926l2.3711-5.65729h1.4004l-.1152.2715c.082-.0449.15821-.083.2344-.1181a3.148,3.148,0,0,1,1.2597-.2872,1.60772,1.60772,0,0,1,1.10939.37409,1.34218,1.34218,0,0,1,.42971,1.0224,4.58236,4.58236,0,0,1-.44529,1.628Z"/>
                <polygon class="cls-1" points="126.767 53.454 125.368 53.454 127.214 49.051 126.343 49.051 126.872 47.796 127.739 47.796 128.511 45.949 129.909 45.949 129.142 47.796 130.155 47.796 129.624 49.051 128.614 49.051 126.767 53.454"/>
                <path class="cls-1" d="M62.1494,53.46547a.96463.96463,0,0,1-.1387-.6231,3.77644,3.77644,0,0,1,.3242-1.0439c.0059-.0127,2.2617-5.3936,2.2617-5.3936H63.0185l-.0781.1856a2.283,2.283,0,0,0-.9844-1.46,2.65612,2.65612,0,0,0-1.0254-.4277l-.5937,1.4228a2.21024,2.21024,0,0,1,1.2636,1.0801,3.50787,3.50787,0,0,1-.10539,3.1162A7.04829,7.04829,0,0,1,60.04,52.52307a7.22556,7.22556,0,0,1-2.1816,1.5508,5.597,5.597,0,0,1-2.3458.5732,2.82717,2.82717,0,0,1-1.8222-.5771,2.36738,2.36738,0,0,1-.8535-1.6182,4.11766,4.11766,0,0,1,.3398-2.168,7.06722,7.06722,0,0,1,1.4727-2.1748,7.52338,7.52338,0,0,1,2.1914-1.59271c.1816-.086.3652-.16119.541-.22948l.6172-1.461a10.136,10.136,0,0,0-6.209,5.4141,4.48669,4.48669,0,0,0-.0723,4.02439,3.35821,3.35821,0,0,0,3.2071,1.66111,7.19187,7.19187,0,0,0,2.6796-.5146,11.80519,11.80519,0,0,0,2.51371-1.4277,1.396,1.396,0,0,0,.40039.9423,2.14283,2.14283,0,0,0,1.1113.543l1.4278-1.4258a1.821,1.821,0,0,1-.9082-.5771"/>
                <polygon class="cls-1" points="57.298 51.958 55.593 51.958 60.823 39.497 62.532 39.497 57.298 51.958"/>
                <polygon class="cls-1" points="65.241 40.809 56.61 40.809 57.253 39.242 65.882 39.242 65.241 40.809"/>
                <path class="cls-1" d="M106.7744,47.91467a.76613.76613,0,0,0-.2266-.5322,2.15386,2.15386,0,0,0-.8906-.544l-.543,1.0479a1.02335,1.02335,0,0,1,.5156.3261.54343.54343,0,0,1,.07431.3506,2.033,2.033,0,0,1-.18171.5899c-.0058.0049-1.27929,3.0771-1.27929,3.0771l.89059-.0215.045-.11231Z"/>
                <path class="cls-1" d="M103.8857,52.47326l.1348-.33989s1.26361-3.0292,1.2812-3.0722a1.90329,1.90329,0,0,0,.166-.5205.29766.29766,0,0,0-.03321-.1905.79257.79257,0,0,0-.38279-.2334l-.2891-.0732.77739-1.4912.1855.0566a2.41052,2.41052,0,0,1,1.002.61229,1.01161,1.01161,0,0,1,.28711.67971v.0528l-1.89261,4.4453Z"/>
                <path class="cls-1" d="M108.32911,53.53767a2.26574,2.26574,0,0,1-2.35751-.5283,2.70644,2.70644,0,0,1-.66011-2.3799,4.46731,4.46731,0,0,1,.5508-1.6748,4.8751,4.8751,0,0,1,1.13081-1.3701,4.098,4.098,0,0,1,1.4961-.82131,2.47852,2.47852,0,0,1,1.6465.07331,2.16114,2.16114,0,0,1,1.1777,1.1738,3.14966,3.14966,0,0,1,.2012,1.6572,4.62651,4.62651,0,0,1-.56249,1.6573,5.12777,5.12777,0,0,1-1.13091,1.39251,3.84346,3.84346,0,0,1-1.49209.8203m.34369-5.6015a2.74471,2.74471,0,0,0-1.01169.57709,3.51149,3.51149,0,0,0-.81641,1.00881,3.449,3.449,0,0,0-.38089,1.21,1.62782,1.62782,0,0,0,.3555,1.3926,1.16267,1.16267,0,0,0,1.209.2295l.0371-.00791a2.67627,2.67627,0,0,0,.998-.57519,3.62916,3.62916,0,0,0,.8125-1.0332,3.31155,3.31155,0,0,0,.3907-1.19721,1.91228,1.91228,0,0,0-.1309-1.01369,1.04336,1.04336,0,0,0-.5781-.5771,1.28456,1.28456,0,0,0-.85749-.0215h0Z"/>
                <path class="cls-1" d="M74.3466,40.30037v-4.1318H74.333a4.77743,4.77743,0,0,0-3.4278-5.1318,5.49359,5.49359,0,0,0-4.9765,1.0654,5.6951,5.6951,0,0,0-1.80281,4.1553h-3.455l-.5997,1.4492h5.459l.0176-.709c.043-1.7695.2598-2.792,1.3711-3.833a4.05366,4.05366,0,0,1,3.584-.73241,3.20084,3.20084,0,0,1,2.3789,3.03711l-5.084.2226,3.0664,6.7051,1.3203-.6025-2.1679-4.74611,2.8769-.124v3.7646l3.44339,5.9805.6894-1.708Z"/>
                <path class="cls-1" d="M62.6962,34.63337a5.34316,5.34316,0,0,1,1.6836-3.12011,4.95415,4.95415,0,0,1,2.5762-1.17769c-1.0898-.1924-4.8008-.6797-6.1621,1.22069-.9492,1.32811-.543,3.17581,1.9023,3.07711m-.9199-2.372a1.8411,1.8411,0,0,1,.875-.6123,6.24648,6.24648,0,0,0-.8613,1.65919.46024.46024,0,0,1-.2188-.18459.94145.94145,0,0,1,.2051-.8623"/>
                <path class="cls-1" d="M94.9326,40.30037v-4.1318h-.00779a4.78511,4.78511,0,0,0-3.43561-5.1318,5.48972,5.48972,0,0,0-4.9746,1.0654,5.71307,5.71307,0,0,0-1.8047,4.1553H81.2548l-.5976,1.4492h5.457l.0195-.709c.0469-1.7695.2657-2.792,1.3711-3.833a4.06244,4.06244,0,0,1,3.584-.73241,3.186,3.186,0,0,1,2.375,3.03711l-5.0742.2226,3.0605,6.7051,1.31839-.6025-2.166-4.74611,2.8769-.124v3.7646l2.9219,7.2061.6836-1.7071Z"/>
                <path class="cls-1" d="M83.28411,34.63337a5.3463,5.3463,0,0,1,1.68559-3.12011,4.93993,4.93993,0,0,1,2.57621-1.17769c-1.0879-.1924-4.80279-.6797-6.168,1.22069-.94921,1.32811-.543,3.17581,1.90621,3.07711m-.91991-2.372a1.83775,1.83775,0,0,1,.877-.6123,6.19483,6.19483,0,0,0-.8633,1.65919.49664.49664,0,0,1-.2207-.18459.94342.94342,0,0,1,.207-.8623"/>
                <path class="cls-1" d="M98.7822,54.39216a4.4097,4.4097,0,0,1-1.14849-.1455,4.13659,4.13659,0,0,1-2.91211-2.5625l-.0156-.0508,1.4805-.6738.0234.0479a2.68379,2.68379,0,0,0,2.5645,1.8193,2.25687,2.25687,0,0,0,2.2558-1.6826,2.87579,2.87579,0,0,0-.709-2.7822c-.0507-.0645-.1132-.13871-.1933-.2373a9.209,9.209,0,0,1-1.1074-1.5752,3.17364,3.17364,0,0,1-.084-3.3614,3.47064,3.47064,0,0,1,3.0937-1.7705,4.872,4.872,0,0,1,.9961.10739,3.702,3.702,0,0,1,2.4961,2.3624l.0176.05071-1.0918.4737-.02539-.0537a2.31536,2.31536,0,0,0-1.6914-1.50981,2.46662,2.46662,0,0,0-.5156-.05079,2.15264,2.15264,0,0,0-2.211,1.7461,3.53642,3.53642,0,0,0,1.1641,2.5361c1.4551,1.7598,1.9004,3.2373,1.40621,4.6455a3.87077,3.87077,0,0,1-3.79291,2.667"/>
                <path class="cls-1" d="M98.7822,54.34437a4.66171,4.66171,0,0,1-1.1367-.1475,4.07928,4.07928,0,0,1-2.875-2.5342l1.39061-.6279a3.127,3.127,0,0,0,1.86519,1.7471,3.02152,3.02152,0,0,0,.7481.09961,2.30454,2.30454,0,0,0,2.30471-1.7236,2.89721,2.89721,0,0,0-.72071-2.8272,2.48091,2.48091,0,0,0-.1934-.2412,9.74279,9.74279,0,0,1-1.1035-1.5615,3.15073,3.15073,0,0,1-.0801-3.3155,3.4216,3.4216,0,0,1,3.0488-1.7441,4.63146,4.63146,0,0,1,.98639.1084,3.61967,3.61967,0,0,1,2.457,2.3281l-1.002.4366a2.39318,2.39318,0,0,0-2.2558-1.5967,2.2168,2.2168,0,0,0-2.2657,1.7939A3.56809,3.56809,0,0,0,101.124,47.111c1.4472,1.75,1.8926,3.2109,1.4043,4.5976a3.831,3.831,0,0,1-3.7461,2.6358"/>
                <polygon class="cls-1" points="103.626 55.925 107.165 47.981 105.944 47.547 102.22 55.925 103.626 55.925"/>
              </g>
              <g>
                <path class="cls-1" d="M129.52831.03477a.11164.11164,0,0,0-.1211-.0273c-15.5703,5.5234-24.0664,13.3183-28.45309,18.8935-4.75592,6.0449-5.83792,10.8477-5.84571,10.8887-.07229.2568-.15429.6992.08.7793a.3206.3206,0,0,0,.0606.0068c.207,0,.4023-.3672.5-.584,3.0644-6.8759,5.9336-8.0048,9.9043-9.5722.2207-.0821.44329-.1729.66989-.2627a40.27335,40.27335,0,0,0,7.6133-4.0918c1.2031-.8643,2.3945-1.7676,3.5508-2.6934a.11314.11314,0,0,0-.07619-.1992,24.76422,24.76422,0,0,0-11.01761,3.1104,36.32866,36.32866,0,0,1,15.5664-6.84871.093.093,0,0,0,.0547-.0234c5.5723-5.3428,7.51171-9.2149,7.53321-9.25A.11953.11953,0,0,0,129.52831.03477Z"/>
                <path class="cls-1" d="M121.8798,21.80826c-.5293-1.11139-1.9941-1.70019-4.2343-1.70019-3.0762,0-7.2891,1.1015-11.5606,3.0234a.18854.18854,0,0,0,.1348.3516,20.35946,20.35946,0,0,1,6.01761-1.084c2.0957,0,3.5175.5615,4.00781,1.5888.56439,1.1895-.11141,2.8946-1.90042,4.8067a26.447,26.447,0,0,1-7.7852,5.3818A44.396,44.396,0,0,1,97.09271,37.11a.19154.19154,0,0,0-.1562.2139.18888.18888,0,0,0,.1855.16211l.0254-.001a39.31615,39.31615,0,0,0,12.8555-3.8291,35.212,35.212,0,0,0,9.3476-6.209C121.6416,25.195,122.538,23.192,121.8798,21.80826Z"/>
                <path class="cls-1" d="M131.7294,19.23987c-.8105-1.8399-3.31441-2.84861-7.0468-2.84861a37.56557,37.56557,0,0,0-11.6856,2.23631c-.2324.0762-.29689.2158-.2832.3203.0137.084.0977.1836.28131.1836a.61254.61254,0,0,0,.16789-.0225,27.5385,27.5385,0,0,1,6.9414-1.0468c3.0293,0,5.0899.8242,5.8028,2.3222.82811,1.752-.17189,4.2608-2.82808,7.0606a39.94272,39.94272,0,0,1-11.35161,7.8076,41.95358,41.95358,0,0,1-14.5742,4.0068c-.8418.0811-.9004.1592-.8965.2754.00579.0996.0098.1924.9766.1953l.207.003h.0019a41.481,41.481,0,0,0,17.6192-4.00981C126.1123,30.84626,133.59081,23.44787,131.7294,19.23987Z"/>
              </g>
            </g>
            <g>
              <g>
                <path class="cls-1" d="M73.5937,72.43616l.81841.0596c.03709,0,.07519.0146.07519.05269a.27938.27938,0,0,1-.07519.1279v.88581H75.8759v-.68361a2.78374,2.78374,0,0,0-.0449-.4805l.7959.0303c.0293,0,.1123.0078.1123.0674a.28375.28375,0,0,1-.07521.1503v.9161h1.8545v.33H76.664v2.8077h-.7881V73.89216H74.3974a2.828,2.828,0,0,1-2.32029,2.77739l-.25491-.2852a2.41013,2.41013,0,0,0,1.7862-2.4922h-2.004v-.33H73.624v-.6084A3.9941,3.9941,0,0,0,73.5937,72.43616ZM76.47649,70.154a11.78,11.78,0,0,1,2.07911,2.02629l-.70511.52542a5.20929,5.20929,0,0,0-.46579-.8633c-1.043.1426-3.8515.3457-5.2773.4131-.03029.0303-.0899.0977-.1504.0977-.0303,0-.0596-.0371-.082-.0977l-.2403-.6377a9.36827,9.36827,0,0,0,1.4785.0528,7.0512,7.0512,0,0,0,1.2764-2.0274l.88569.30761c.0372.0147.0752.0381.0752.0752,0,.0596-.06729.0899-.2031.1504a15.284,15.284,0,0,1-1.3135,1.4785c1.6446-.0595,1.8164-.0674,3.30281-.1728a10.90254,10.90254,0,0,0-.93071-1.1035Z"/>
                <path class="cls-1" d="M82.1513,71.03967v.3379H79.7187v-.3379Zm-.2099-1.05079v.33689H79.9443v-.33689Zm0,2.1016v.3457H79.9443v-.3457Zm0,1.0586v.3379H79.9443v-.3379Zm.1045,1.05079v2.14739H80.5976v.31541h-.65329v-2.4628Zm-1.4483.3378v1.47171h.8477V74.53767Zm5.52539-2.1171v.33H84.8769v.4356H86.123v.331H84.8769v.4649h1.7334v.331H82.7519V72.39126a5.87083,5.87083,0,0,1-.6152.53221l-.2403-.24021a3.01325,3.01325,0,0,0,.9834-1.6436l.6602.22459c.0303.00781.0674.02251.0674.06841,0,.0293-.0225.0673-.11229.1347-.05961.0977-.07521.1123-.13481.2032h.7051a1.91337,1.91337,0,0,0,.2851-.6387l.6914.2178c.045.01458.0674.0371.0674.06729,0,.03811-.0449.0606-.1201.083-.1728.1651-.1953.17971-.3008.2706h1.7569v.33H84.8769v.42Zm.36721,4.2421a7.73509,7.73509,0,0,1-2.0195-.5253,6.22957,6.22957,0,0,1-2.11721.5546l-.25489-.34471a4.90637,4.90637,0,0,0,1.8691-.47359,3.92429,3.92429,0,0,1-.8633-.6973l.5411-.2256H82.2636v-.33h3.92681v.2548a4.35336,4.35336,0,0,1-1.1865.9756,5.1115,5.1115,0,0,0,1.667.4434ZM83.247,70.11587a2.05693,2.05693,0,0,0-.0371-.3828l.74321.0156c.03709,0,.07519.01459.07519.0517a.35865.35865,0,0,1-.07519.1504v.42089h.80269v-.2636a1.42334,1.42334,0,0,0-.0371-.375l.7207.0156c.0303,0,.0898.01459.0898.0596a.30994.30994,0,0,1-.0595.1279v.4355h1.1338v.33011H85.4697v.41989h-.71389v-.41989h-.80269v.41989H83.247v-.41989H82.1738v-.33011H83.247Zm.97661,2.3047v-.42h-.82621v.42Zm-.82621.33v.4356h.82621v-.4356Zm0,.7666v.4649h.82621v-.46491Zm.3301,1.4336a2.993,2.993,0,0,0,.751.6231,2.7163,2.7163,0,0,0,.6533-.6231Z"/>
                <path class="cls-1" d="M90.86711,70.28867a2.72721,2.72721,0,0,0-.05271-.5859l.8486.0303c.0303,0,.0977.0156.0977.07519,0,.03711-.00779.05951-.0977.21771v2.417h3.0479v.3311H91.663v3.2656h2.53811v.3301H88.3076v-.3301h2.55951v-3.2656H87.8193V72.443h3.04781Z"/>
                <path class="cls-1" d="M97.0449,73.13437a7.39446,7.39446,0,0,0-1.1856-1.1943l.2022-.29981a11.89894,11.89894,0,0,1,1.4795.80271Zm.7588.59279c-.1651.4131-.99121,2.5078-1.0215,2.57521a1.29341,1.29341,0,0,0-.07521.292c0,.0234-.0225.0976-.082.0976a.147.147,0,0,1-.11329-.0449l-.6231-.4726a11.07614,11.07614,0,0,0,1.6074-2.7256Zm-.3985-2.6582a8.20351,8.20351,0,0,0-1.1406-1.0732l.2021-.293a11.07223,11.07223,0,0,1,1.4795.7666Zm5.1358-.0449v.331h-1.9375v1.63581h2.2002v.33789h-2.34279a19.22236,19.22236,0,0,1-1.63671,2.4629c1.30661-.128,1.8847-.21,2.8008-.3458a9.189,9.189,0,0,0-.8487-1.3212l.3076-.2022a10.92309,10.92309,0,0,1,1.8018,2.2969l-.69819.458c-.0899-.2324-.19539-.49511-.4053-.9229-1.1563.24031-2.1992.4424-3.9033.7051-.083.09769-.10549.13481-.15039.13481a.15355.15355,0,0,1-.1055-.082l-.25489-.6309c.32228,0,.46579-.0078.90039-.0371a11.57628,11.57628,0,0,0,1.27639-2.51561h-1.959v-.33789h2.207V71.35506H97.9013v-.331h1.8916v-.78029a1.32838,1.32838,0,0,0-.0605-.5254l.8564.0225c.0147,0,.0821.00779.0821.05269a.51385.51385,0,0,1-.0674.165v1.0655Z"/>
                <path class="cls-1" d="M107.8037,69.75547c.03711,0,.1123,0,.1123.0977a1.023,1.023,0,0,1-.0674.2549v1.8994a4.94537,4.94537,0,0,0,.998,2.88279,4.67631,4.67631,0,0,0,2.1026,1.47171l-.2032.3379a4.80477,4.80477,0,0,1-3.2734-2.8223,5.26842,5.26842,0,0,1-3.2881,2.8144l-.2695-.2998a5.05315,5.05315,0,0,0,1.959-1.3291,4.39855,4.39855,0,0,0,1.1484-3.4004V70.60416a5.90411,5.90411,0,0,0-.0674-.879Z"/>
              </g>
              <g>
                <path class="cls-1" d="M.1064,89.279c3.209-.6739,5.4873-2.5889,6.2256-6.7706l-4.5781.0323c-.5879,0-1.1875.0322-1.7539.0742v-.7061c.4707.03231,1.2617.043,1.7324.043l4.2041-.0215c.6631,0,.9629-.0215,1.251-.0429l.55661.45011c-.08591.23539-.13971.42779-.21391.6846-1.2197,4.4278-3.36909,5.9463-7.0918,6.82419Z"/>
                <path class="cls-1" d="M10.081,84.23007c-.0957,0-1.0586.043-1.42189.07519v-.5781c.32029.0322,1.26179.0537,1.41119.0537l3.9365-.0322a7.257,7.257,0,0,0,1.166-.1065l.46.5342a3.68711,3.68711,0,0,0-.2354.3213,8.07137,8.07137,0,0,1-2.2139,2.4385l-.3427-.3311a5.51171,5.51171,0,0,0,1.54-2.3642c0-.0108-.0205-.0323-.09569-.0323Zm1.2842.9307.91991.05371c.03129,0,.14939.01069.14939.0537s-.0752.2354-.0752.2774v.36419c0,3.01661-1.6894,3.74321-3.3691,4.07521l-.1387-.44921a2.89276,2.89276,0,0,0,2.5141-3.22729l-.0004-.00321Z"/>
                <path class="cls-1" d="M16.4316,85.31116c.4971.00969,1.4287.0205,1.9658.0205H21.415c.6025,0,1.3887-.01081,1.9746-.0205V86.07c-.2402-.0108-1.4922-.0215-1.9658-.0215H18.4052c-.0879,0-.9385,0-1.9736.0215Z"/>
                <path class="cls-1" d="M31.8613,89.58947a10.6726,10.6726,0,0,0-2.7061-2.90921A9.42786,9.42786,0,0,1,24.11711,89.611l-.23531-.5674a7.71008,7.71008,0,0,0,4.5781-3.1338,12.78538,12.78538,0,0,0,1.5615-3.3691l-3.5088.0742c-.3203.0107-1.4433.0644-1.7861.1074l-.0107-.706c.8349.04291,1.07031.04291,1.77631.03222l2.90919-.0645c.3311-.01071,1.3369-.0644,1.626-.11721l.5029.502a2.0232,2.0232,0,0,0-.2783.5029,14.40515,14.40515,0,0,1-1.6904,3.3057A12.07171,12.07171,0,0,1,32.90911,88.862Z"/>
                <path class="cls-1" d="M34.7753,82.46547c0-.3428-.0107-.9414-.0429-1.26171l1.1015.09571c.0537,0,.2246.0214.2246.0752,0,.0742-.0957.417-.0957.5029v2.4385a11.69368,11.69368,0,0,1,4.2891,1.8935l-.8984.9619a8.01815,8.01815,0,0,0-3.3907-2.2353v2.9414c0,.7598,0,1.4551.0108,2.2041H34.74311c.02149-.6533.03219-1.8828.03219-2.2149Z"/>
                <path class="cls-1" d="M46.5986,87.06507a3.37163,3.37163,0,0,0,.2676-1.0703h1.4121a5.98307,5.98307,0,0,1-.8877,1.99021l1.56151,1.77539H47.166l-.7598-.877a3.20016,3.20016,0,0,1-2.57709,1.0372,3.28637,3.28637,0,0,1-2.38581-.834,2.14864,2.14864,0,0,1-.4814-1.4658c0-1.4971,1.1445-2.1172,2.1074-2.6416-.6416-.8555-.834-1.1124-.834-1.7647a1.99278,1.99278,0,0,1,2.1924-2.043c1.1015,0,2.06441.5342,2.06441,1.7862,0,1.1552-1.39061,1.7431-1.82911,1.9248Zm-3.166-1.6045a2.48284,2.48284,0,0,0-1.1758,2.1816,1.486,1.486,0,0,0,1.6142,1.70121,2.41066,2.41066,0,0,0,1.9795-1.123Zm1.9472-2.6631a.9483.9483,0,0,0-1.0595-1.0596.89466.89466,0,0,0-.99419.98439c0,.5244.22459.98441.94139,1.669A2.00786,2.00786,0,0,0,45.3798,82.79747Z"/>
                <path class="cls-1" d="M49.8232,89.58947a7.46916,7.46916,0,0,0,4.8564-2.07521,7.32672,7.32672,0,0,0-2.6093-2.17189l.331-.4599a8.35484,8.35484,0,0,1,2.9522,1.7441,8.865,8.865,0,0,0,1.2304-3.3799H52.9257a7.6198,7.6198,0,0,1-3.0703,2.88771l-.36329-.49221a6.00816,6.00816,0,0,0,2.60939-3.3584,5.02943,5.02943,0,0,0,.2783-1.19819l1.1768.3848c.0644.0214.1924.0752.1924.1181,0,.03231-.128.16021-.16019.1924-.0322.05371-.289.7383-.3535.877h2.3643c.4707,0,1.3476-.0323,1.80759-.085l.5674.53421a6.14574,6.14574,0,0,0-.2032.5996,11.02857,11.02857,0,0,1-.9629,2.64158c-1.6152,3.166-5.2089,3.626-6.7607,3.81842Z"/>
                <path class="cls-1" d="M67.4462,84.10216a10.10066,10.10066,0,0,1-6.0976,5.5195c-.2666.0957-1.583.4707-1.8604.5879l-.57809-1.2724c5.47659-.66311,7.38089-3.958,8.06538-5.19931Zm-5.2099-.20311a6.21468,6.21468,0,0,0-2.90919-2.2676l.32129-.5137a9.57617,9.57617,0,0,1,3.5293,1.7432Z"/>
                <path class="cls-1" d="M69.248,89.62167c1.6475-.2461,3.1445-.9521,2.9629-4.7285H69.95411c-.56651,0-1.14461.03221-1.711.0645v-.7061c.46.0322,1.24029.0645,1.70019.0645h5.7442c.5459,0,1.08-.0323,1.6259-.0645v.7061c-.5566-.043-1.4658-.0645-1.6259-.0645H73.4736a7.19964,7.19964,0,0,1-.48149,3.0918,4.37128,4.37128,0,0,1-3.50871,2.2139Zm6.3857-7.2744c-.5449-.042-1.4755-.0635-1.6894-.0635H71.45211c-.50291,0-1.28421.03231-1.76561.0635v-.70511c.51361.0313,1.5195.0528,1.76561.0528H73.9443c.4492,0,1.24019-.0323,1.6894-.0635Zm.877.3535a7.57864,7.57864,0,0,0-.7588-1.497l.46-.2256a6.26852,6.26852,0,0,1,.9521,1.4228Zm1.0596-.42769a5.67113,5.67113,0,0,0-.7276-1.3584l.4707-.2246a6.82876,6.82876,0,0,1,.93071,1.251Z"/>
                <path class="cls-1" d="M86.2412,89.76037a10.33657,10.33657,0,0,0-.54589-1.5508c-2.3536.55569-3.39071.7588-5.7442,1.2295-.20311.043-1.06931.2139-1.166.2568a1.65015,1.65015,0,0,1-.26761.0967c-.0322,0-.042-.0107-.06339-.0429-.03231-.043-.32131-1.0166-.38581-1.2198.3106,0,.6524-.0107,1.6045-.09571.65231-1.7646,1.8936-5.7656,2.2998-7.40229l1.2734.40619c.0323.01081.1817.05371.1817.1075a1.09584,1.09584,0,0,1-.2139.2461c-.0322.0429-2.289,5.6259-2.6738,6.5673,2.5664-.2783,4.24611-.5879,4.8984-.7168a9.90066,9.90066,0,0,0-1.455-2.23529l.5244-.38481a16.73634,16.73634,0,0,1,2.9629,4.2139Z"/>
                <path class="cls-1" d="M96.2148,89.58947a10.673,10.673,0,0,0-2.7061-2.90921,9.428,9.428,0,0,1-5.038,2.93071l-.2354-.5674a7.70978,7.70978,0,0,0,4.5781-3.1338,12.78662,12.78662,0,0,0,1.5616-3.3691l-3.5088.0742c-.32029.0107-1.44339.0644-1.7862.1074l-.01069-.706c.8349.04291,1.07029.04291,1.77639.03222l2.90911-.0645c.3311-.01071,1.3369-.0644,1.626-.11721l.5029.502a2.026,2.026,0,0,0-.2783.5029,14.40515,14.40515,0,0,1-1.6904,3.3057,12.06985,12.06985,0,0,1,3.3476,2.68461Z"/>
                <path class="cls-1" d="M98.3584,89.42837a7.3441,7.3441,0,0,0,4.4062-2.503,8.70592,8.70592,0,0,0,1.81839-4.2783l-4.5782.03219c-.3525,0-1.0156.02151-1.7539.07521v-.706c.46.0322,1.2725.043,1.7325.043l4.0332-.0215c.35251,0,.86621-.01081,1.2509-.043l.66311.7061a4.57522,4.57522,0,0,0-.2139.6845c-1.34759,4.8662-4.3427,5.9366-7.0273,6.5674Zm8.2675-9.1026a1.03226,1.03226,0,1,1-1.02629,1.03819v-.0108A1.03434,1.03434,0,0,1,106.6259,80.32577Zm0,.4707a.56173.56173,0,0,0-.5664.5567.5707.5707,0,0,0,.5664.5664.56159.56159,0,0,0,.5567-.5664.55271.55271,0,0,0-.5487-.5567Z"/>
                <path class="cls-1" d="M108.29,82.04847c0-.07521-.0322-.6201-.043-.8027l1.1446.07511c.05371,0,.1923.0108.1923.0752,0,.042-.1386.2461-.1279.2989v3.541c0,.25679.0215,1.4336.042,1.7217h-1.2402c.01069-.1709.0322-1.5508.0322-1.7325Zm1.3154,7.7119c3.3906-.55661,3.4981-2.47071,3.4981-6.2686a16.22561,16.22561,0,0,0-.1289-2.2988l1.21971.0742c.0537,0,.1601.0215.1601.07521a2.57935,2.57935,0,0,1-.0849.2676c-.0215.0957,0,2.417,0,2.877,0,4.1181-.9951,5.27339-4.3965,5.86129Z"/>
                <path class="cls-1" d="M124.2109,84.10216a10.10094,10.10094,0,0,1-6.0977,5.5195c-.2666.0957-1.583.4707-1.8603.5879l-.5781-1.2724c5.4765-.66311,7.3808-3.958,8.0654-5.19931Zm-5.21-.20311a6.21369,6.21369,0,0,0-2.9092-2.2676l.32129-.5137a9.585,9.585,0,0,1,3.5293,1.7432Z"/>
                <path class="cls-1" d="M125.4775,82.46547c0-.3428-.0108-.9414-.043-1.26171l1.10161.09571c.05369,0,.22459.0214.22459.0752,0,.0742-.09571.417-.09571.5029v2.4385a11.695,11.695,0,0,1,4.28911,1.8935l-.89851.9619a8.01887,8.01887,0,0,0-3.3906-2.2353v2.9414c0,.7598,0,1.4551.01069,2.2041h-1.2304c.0214-.6533.03221-1.8828.03221-2.2149Z"/>
                <path class="cls-1" d="M133.1835,85.59926a10.54479,10.54479,0,0,0-1.69038-1.70019l.28909-.42781a16.7297,16.7297,0,0,1,2.10741,1.14461Zm1.0801.84571c-.23531.5879-1.41111,3.57219-1.45411,3.6679a1.84,1.84,0,0,0-.10739.418c0,.0313-.03221.1387-.1172.1387a.20813.20813,0,0,1-.1611-.0645l-.8877-.67381a15.7295,15.7295,0,0,0,2.289-3.88279Zm-.56641-3.7871a11.52718,11.52718,0,0,0-1.626-1.5293l.2891-.417a15.76911,15.76911,0,0,1,2.1064,1.0908Zm7.31641-.0645v.4707h-2.75971v2.332h3.1337v.4815h-3.3369a27.33742,27.33742,0,0,1-2.332,3.5088c1.8613-.18261,2.6846-.2998,3.9893-.49221a12.8225,12.8225,0,0,0-1.208-1.88279l.4384-.28911a15.623,15.623,0,0,1,2.5674,3.2735l-.9951.6523c-.12891-.3311-.27831-.7061-.5781-1.3154-1.64648.3418-3.1338.6308-5.5616,1.0048-.1181.1397-.1494.1934-.2138.1934a.22041.22041,0,0,1-.15041-.1182l-.3633-.89841c.46,0,.66311-.01069,1.28321-.05369a16.47934,16.47934,0,0,0,1.8184-3.583h-2.791v-.4815h3.14449v-2.332h-2.6953v-.4707h2.6953v-1.1123a1.894,1.894,0,0,0-.086-.748l1.2198.03119c.0215,0,.1172.01071.1172.07521a.72575.72575,0,0,1-.0957.2354v1.5185Z"/>
                <path class="cls-1" d="M145.1582,83.38537h2.663v-1.1875h-2.3105v-.4814h2.3105v-.3096a2.89,2.89,0,0,0-.0752-.6211l1.1016.02149c.0859,0,.1074.04291.1074.0859a1.64758,1.64758,0,0,1-.05369.2461v.57721h2.1934v1.6689h.85541v.4814h-.85541V85.567h-2.1934v1.1338h2.57809v.48149h-2.57809v1.123h3.0381v.4815h-3.0381v1.82911h-1.0801V88.78676h-3.0166v-.4815h3.0166v-1.123H145.372v-.48149h2.44921V85.567h-2.3105v-.4814h2.3105v-1.2188H145.372a.45114.45114,0,0,1-.19239.14949,12.30161,12.30161,0,0,1-.7705.99511v5.6045h-1.0693V86.10216c-.47069.42769-.792.6846-1.0703.8984l-.4707-.3632a8.23507,8.23507,0,0,0,2.5029-3.4014l.8565.4062Zm.1064-2.3105a.09732.09732,0,0,1,.06452.0966c0,.0635-.10752.128-.16022.1494a12.09818,12.09818,0,0,1-2.77049,2.4922l-.417-.331a7.84211,7.84211,0,0,0,2.22459-2.8887Zm4.77051,2.3105v-1.1875h-1.1338v1.1875Zm-1.1338.4814v1.2188h1.1338v-1.2188Z"/>
                <path class="cls-1" d="M162.4492,87.07577v.4707H161.497v1.76469H160.4062v-.44921h-2.375v.6308c0,.7061-.1172,1.0801-1.08009,1.0801h-1.4013l-.2139-.5879a5.06843,5.06843,0,0,0,1.0478.1279c.5459,0,.5567-.26661.5567-.6845v-.5664H153.496v-.4815h3.4444v-.834h-4.375v-.4707h4.375v-.8457H153.496v-.4804h3.4444v-.7383h-3.1875v-1.9688h3.1875v-.7802H152.833v-.4707h4.10741v-.52449a1.41984,1.41984,0,0,0-.10651-.57711l1.1973.03219c.043,0,.11819.042.11819.10651a1.24774,1.24774,0,0,1-.11819.3642v.5987h4.1934v.4707h-4.1934v.7802h3.1768v1.9688h-3.1768v.7383h3.4658v1.3261Zm-5.5088-2.5459V83.51326h-2.11819v1.01661Zm1.0908-1.01661v1.01661h2.1182V83.51326Zm2.375,3.56251v-.84571h-2.375v.84571Zm0,1.3047v-.834h-2.375v.834Z"/>
                <path class="cls-1" d="M165.95311,89.58947c0,.75879-.25691.9307-1.10262.9307H163.8349l-.20309-.5567a7.05833,7.05833,0,0,0,.834.0752c.4277,0,.4707-.1074.4707-.4492V86.776a8.46788,8.46788,0,0,1-1.669,2.1826l-.35249-.3535a9.22473,9.22473,0,0,0,1.87212-3.8183H163.0537v-.48151h2.4609a7.227,7.227,0,0,0-1.75489-1.70109l.3213-.3956a8.5476,8.5476,0,0,1,1.2832.6739,8.555,8.555,0,0,0,.81351-1.2198h-2.835V81.193h4.3106v.374c-.7168.7276-1.1231,1.11229-1.7432,1.65821a4.20632,4.20632,0,0,1,.52438.39559l-.7597.68449h2.4277a8.73833,8.73833,0,0,1-1.37989,2.27831l-.42771-.27831a4.961,4.961,0,0,0,.5566-1.51849h-.8984Zm6.16109-7.24221a4.11708,4.11708,0,0,1-1.2305,2.36431,6.124,6.124,0,0,0,2.1817,1.0381l-.2881.4277a7.21823,7.21823,0,0,1-2.46091-.99511,5.89445,5.89445,0,0,1-1.22951.64161l1.04781.0537c.043,0,.12891.01069.12891.09669a.74586.74586,0,0,1-.0752.24611c-.0215.1923-.0322.34179-.08591.69429h2.5351c-.2246,3.2734-.39549,3.61621-1.6044,3.61621h-1.22951l-.22459-.5244a4.67783,4.67783,0,0,0,.85539.0752c.46,0,.64162-.0859.749-.375a10.55947,10.55947,0,0,0,.3311-2.3213H169.996c-.2675.97361-.85539,2.3428-3.2626,3.21971l-.3418-.3955a4.10907,4.10907,0,0,0,2.5136-2.82421h-1.97951v-.4707h2.0752a2.31392,2.31392,0,0,0,.043-.4912,1.67053,1.67053,0,0,0-.0859-.5567,10.18687,10.18687,0,0,1-1.11231.34279l-.3204-.4072a5.41945,5.41945,0,0,0,2.1924-1.0693,4.3207,4.3207,0,0,1-1.209-1.7325,7.91881,7.91881,0,0,1-.8662.92l-.4707-.2354a6.89383,6.89383,0,0,0,1.47659-3.00591l1.208.32041c.043.0107.09671.03221.09671.0859,0,.07521-.06451.1182-.19241.1924-.12891.2138-.2139.3535-.3848.5888H172.916v.48049Zm-3.0918,0c-.1279.17191-.18159.23541-.331.4395l.7695-.23539a4.15812,4.15812,0,0,0,.835,1.57229,3.54769,3.54769,0,0,0,.71581-1.77641Z"/>
                <path class="cls-1" d="M178.0029,83.42837v3.66889h-2.6738a5.10558,5.10558,0,0,1-1.42291,3.36921l-.5029-.3213a5.07987,5.07987,0,0,0,.85539-3.2618v-3.455Zm.23531-2.18261v.47071H173.831v-.47071Zm-2.89841,2.664v2.7061H176.997v-2.7061Zm4.6201,1.22949c0,1.34771-.0849,3.80861-2.20309,5.39161l-.46-.2998c1.0264-.9736,1.5616-1.9365,1.5616-4.7383v-4.1181l.9843.1601a7.41993,7.41993,0,0,0,2.90919-.6846l.5137.6524c.0537.0644.07421.09669.07421.1289,0,.085-.07421.085-.1816.085a.94742.94742,0,0,0-.3096.0322,14.33279,14.33279,0,0,1-2.8887.332V84.444h3.5088v.4814h-1.0478v5.6797h-1.0918v-5.6797h-1.3692Z"/>
              </g>
            </g>
          </g>
        </g>
      </g>
    </g>
  </g>
</svg>
