<?xml version="1.0" encoding="utf-8"?>
<!-- Generator: Adobe Illustrator 25.2.3, SVG Export Plug-In . SVG Version: 6.00 Build 0)  -->
<svg version="1.1" id="レイヤー_1" xmlns="http://www.w3.org/2000/svg" xmlns:xlink="http://www.w3.org/1999/xlink" x="0px"
	 y="0px" viewBox="0 0 100 100" style="enable-background:new 0 0 100 100;" xml:space="preserve">
<style type="text/css">
	.st0{fill:#4D4D4D;}
	.st1{fill:url(#SVGID_1_);}
	.st2{opacity:0.19;fill:#3FA64A;}
	.st3{fill:#3FA64A;}
</style>
<g>
	<path class="st0" d="M86.2,38.38V88.2c0,1.87-0.77,3.59-2,4.8c-1.22,1.22-2.92,1.98-4.79,1.98H6.8c-1.87,0-3.59-0.77-4.8-1.98
		c-1.22-1.22-2-2.93-2-4.8V15.58c0-1.87,0.78-3.58,2-4.8C3.21,9.56,4.93,8.8,6.8,8.8h72.61c1.07,0,2.09,0.25,2.98,0.7l-5.52,4.94
		H6.8c-0.32,0-0.6,0.12-0.81,0.34c-0.23,0.23-0.35,0.5-0.35,0.81V88.2c0,0.32,0.12,0.59,0.35,0.81c0.21,0.21,0.5,0.34,0.81,0.34
		h72.61c0.32,0,0.59-0.12,0.81-0.34c0.21-0.23,0.34-0.5,0.34-0.81V44.44L86.2,38.38z"/>
	<linearGradient id="SVGID_1_" gradientUnits="userSpaceOnUse" x1="19.5971" y1="41.2948" x2="100" y2="41.2948">
		<stop  offset="4.587160e-03" style="stop-color:#B21C32"/>
		<stop  offset="0.844" style="stop-color:#C43E51"/>
	</linearGradient>
	<polygon class="st1" points="24.07,61.93 23.63,61.09 19.6,39.85 22.44,38.32 40.15,55.57 96.7,5.02 99.51,6.17 100,13.62 
		99.55,14.88 41.34,77.56 38.87,77.57 	"/>
	<polygon class="st2" points="40.21,55.64 48.62,50 99.51,6.22 96.7,5.02 	"/>
	<path class="st3" d="M49.01,48.31"/>
</g>
</svg>
